<svg width="104" height="111" viewBox="0 0 104 111" fill="none" xmlns="http://www.w3.org/2000/svg">
<path d="M87.3646 0.078125H40.0241C31.3451 0.078125 24.244 7.1792 24.244 15.8583V71.4834C22.9618 71.2368 21.655 71.0889 20.2989 71.0889C9.40076 71.0889 0.57373 79.9159 0.57373 90.8141C0.57373 101.712 9.40076 110.539 20.2989 110.539C31.1971 110.539 40.0241 101.712 40.0241 90.8141C40.0241 90.1484 40.0241 39.5285 40.0241 39.5285H87.3646V63.5933C86.0825 63.3467 84.7757 63.1988 83.4196 63.1988C72.5214 63.1988 63.6944 72.0258 63.6944 82.924C63.6944 93.8222 72.5214 102.649 83.4196 102.649C94.3178 102.649 103.145 93.8222 103.145 82.924C103.145 82.2583 103.145 15.8583 103.145 15.8583C103.145 7.1792 96.0437 0.078125 87.3646 0.078125Z" fill="black"/>
</svg>
