<svg width="117" height="133" viewBox="0 0 117 133" fill="none" xmlns="http://www.w3.org/2000/svg">
<path d="M110.429 82.0437L90.699 62.7523C86.906 42.5066 75.9298 20.7647 53.4057 26.2326L39.1358 12.2798C46.0614 8.90113 51.4327 8.90113 51.4327 8.90113C51.4327 -1.93111 68.2876 -1.67342 68.2876 8.90113C68.2876 8.90113 110.002 8.90113 110.429 82.0437Z" fill="black"/>
<path fill-rule="evenodd" clip-rule="evenodd" d="M19.1967 13.1309L114.028 105.952C121.139 113.277 109.946 122.561 103.656 116.113L93.0182 105.694C58.3019 111.832 0.868164 106.906 0.868164 91.4319L9.29156 83.1786C9.29156 60.0958 13.3503 44.1832 18.9632 33.2221L8.82449 23.2923C1.81841 15.9938 12.3517 6.83806 19.1967 13.1309ZM26.1464 88.7493C26.1464 88.7493 26.1464 65.744 33.5229 47.4839L77.1619 90.1933C60.0413 91.2769 45.5782 90.8123 26.1464 88.7493Z" fill="black"/>
<path d="M35.4959 114.205C43.5247 139.144 76.1875 138.886 84.2163 114.205C68.2795 116.191 51.4327 116.191 35.4959 114.205Z" fill="black"/>
</svg>
