<svg width="133" height="133" viewBox="0 0 133 133" fill="none" xmlns="http://www.w3.org/2000/svg">
<path d="M125.084 0.282227H7.72977C3.68397 0.282227 0.437012 3.52918 0.437012 7.57499V124.955C0.437012 128.975 3.68397 132.222 7.72977 132.222H70.9165V81.1211H53.7283V61.2013H70.9165V46.5127C70.9165 29.479 81.3274 20.202 96.5314 20.202C103.824 20.202 110.06 20.7432 111.89 20.9751V38.7818H101.35C93.0783 38.7818 91.4806 42.6988 91.4806 48.4711V61.1755H111.194L108.617 81.0953H91.4548V132.222H125.084C129.104 132.222 132.377 128.949 132.377 124.929V7.57499C132.377 3.52918 129.104 0.282227 125.084 0.282227Z" fill="black"/>
</svg>
