<svg width="154" height="114" viewBox="0 0 154 114" fill="none" xmlns="http://www.w3.org/2000/svg">
<path d="M153.606 0.0100098H0.187988V113.54H153.606V0.0100098Z" fill="black"/>
<path d="M148.812 4.74048H4.98242V14.2013H148.812V4.74048Z" fill="#E03232"/>
<path d="M148.812 14.2012H4.98242V23.662H148.812V14.2012Z" fill="white"/>
<path d="M148.812 23.6621H4.98242V33.1229H148.812V23.6621Z" fill="#E03232"/>
<path d="M148.812 33.1228H4.98242V42.5836H148.812V33.1228Z" fill="white"/>
<path d="M148.812 42.5835H4.98242V52.0443H148.812V42.5835Z" fill="#E03232"/>
<path d="M148.812 52.0444H4.98242V61.5052H148.812V52.0444Z" fill="white"/>
<path d="M148.812 61.5051H4.98242V70.9659H148.812V61.5051Z" fill="#E03232"/>
<path d="M148.812 70.9661H4.98242V80.4269H148.812V70.9661Z" fill="white"/>
<path d="M148.812 80.4268H4.98242V89.8876H148.812V80.4268Z" fill="#E03232"/>
<path d="M148.812 89.8875H4.98242V99.3482H148.812V89.8875Z" fill="white"/>
<path d="M148.812 99.3484H4.98242V108.809H148.812V99.3484Z" fill="#E03232"/>
<path d="M81.6916 4.74048H4.98242V61.5053H81.6916V4.74048Z" fill="#66A1CC"/>
<path d="M81.6916 4.74048H4.98242V61.5053H81.6916V4.74048Z" fill="#0035A0"/>
</svg>
