<svg width="136" height="136" viewBox="0 0 136 136" fill="none" xmlns="http://www.w3.org/2000/svg">
<path d="M101.649 25.5279C96.9819 25.5279 93.2111 29.2986 93.2111 33.9659C93.2111 38.6332 96.9819 42.4039 101.649 42.4039C106.316 42.4039 110.087 38.6332 110.087 33.9659C110.087 29.2986 106.316 25.5279 101.649 25.5279Z" fill="black"/>
<path fill-rule="evenodd" clip-rule="evenodd" d="M34.1451 67.7177C35.3053 111.938 100.726 112.175 101.649 67.7177C99.9879 22.2316 35.8063 23.4973 34.1451 67.7177ZM84.7731 67.7177C84.7731 90.4475 51.0211 90.9485 51.0211 67.7177C51.0211 45.9898 84.7731 44.9878 84.7731 67.7177Z" fill="black"/>
<path fill-rule="evenodd" clip-rule="evenodd" d="M93.2111 0.213867H42.5831C19.3786 0.213867 0.393066 19.1994 0.393066 42.4039V93.0319C0.393066 116.236 19.3786 135.222 42.5831 135.222H93.2111C116.416 135.222 135.401 116.236 135.401 93.0319V42.4039C135.401 19.1994 116.416 0.213867 93.2111 0.213867ZM93.2111 17.0899C107.16 17.0899 118.525 28.4548 118.525 42.4039V93.0319C118.525 106.981 107.16 118.346 93.2111 118.346H42.5831C28.634 118.346 17.2691 106.981 17.2691 93.0319V42.4039C17.2691 28.4548 28.634 17.0899 42.5831 17.0899H93.2111Z" fill="black"/>
</svg>
