<svg width="473" height="324" viewBox="0 0 473 324" fill="none" xmlns="http://www.w3.org/2000/svg">
<path d="M25.7371 67.6676H56.5574V72.0705H60.9603V76.4734H65.3632V133.711H60.9603V138.114H56.5574V142.517H30.14V138.114H21.3342V133.711H16.9313V124.905H8.12549V111.697H12.5284V76.4734H16.9313V72.0705H25.7371V67.6676Z" fill="#FAE6CE"/>
<path fill-rule="evenodd" clip-rule="evenodd" d="M21.3342 146.92H56.5574V151.323H60.9603V160.128H56.5574V186.546H60.9603V195.352H56.5574V217.366H47.7516V195.352H43.3487V204.157H38.9458V208.56H34.5429V217.366H25.7371V190.949H30.14V186.546H16.9313V151.323H21.3342V146.92ZM25.7371 155.726H30.14V182.143H25.7371V155.726Z" fill="#FAE6CE"/>
<path d="M60.9603 160.128H65.3632V173.337H69.7661V182.143H60.9603V160.128Z" fill="#FAE6CE"/>
<path d="M56.5588 67.6676H34.5443V72.0705H52.1559V76.4734H60.9617V111.697H65.3646V76.4734H60.9617V72.0705H56.5588V67.6676Z" fill="#E3C4A6"/>
<path d="M16.9327 76.4734H12.5298V94.085H16.9327V76.4734Z" fill="#E3C4A6"/>
<path d="M12.5298 116.099H16.9327V111.697H21.3356V133.711H16.9327V120.502H12.5298V116.099Z" fill="#E3C4A6"/>
<path d="M21.3356 133.711H34.5443V138.114H56.5588V142.517H30.1414V138.114H21.3356V133.711Z" fill="#E3C4A6"/>
<path d="M60.9617 160.128H65.3646V173.337H69.7675V182.143H60.9617V160.128Z" fill="#E3C4A6"/>
<path d="M60.9617 160.128H56.5588V155.726H52.1559V151.323H30.1414V146.92H56.5588V151.323H60.9617V160.128Z" fill="#E3C4A6"/>
<path d="M60.9617 186.546H56.5588V164.531H52.1559V186.546H56.5588V195.352H60.9617V186.546Z" fill="#E3C4A6"/>
<path d="M52.1559 199.755H56.5588V217.366H52.1559V199.755Z" fill="#E3C4A6"/>
<path d="M30.1414 190.949H25.7385V217.366H34.5443V208.56H30.1414V190.949Z" fill="#E3C4A6"/>
<path d="M38.9472 195.352H43.3501V199.755H38.9472V195.352Z" fill="#E3C4A6"/>
<path d="M25.7385 164.531H21.3356V177.74H16.9327V186.546H30.1414V182.143H25.7385V164.531Z" fill="#E3C4A6"/>
<path d="M30.14 76.4733H34.5429V80.8762H30.14V76.4733Z" fill="#FFF8EF"/>
<path d="M52.1545 76.4733H38.9458V80.8762H52.1545V85.2791H56.5574V89.682H60.9603V85.2791H56.5574V80.8762H52.1545V76.4733Z" fill="#FFF8EF"/>
<path d="M12.5284 111.697H8.12549V116.099H12.5284V111.697Z" fill="#FFF8EF"/>
<path d="M21.3342 146.92H30.14V151.323H21.3342V146.92Z" fill="#FFF8EF"/>
<path d="M21.3342 151.323V155.726H16.9313V151.323H21.3342Z" fill="#FFF8EF"/>
<path d="M38.9458 162.33H34.5429V171.136H38.9458V162.33Z" fill="#FFF8EF"/>
<path d="M38.9458 162.33H43.3487V157.927H38.9458V162.33Z" fill="#FFF8EF"/>
<path d="M47.7516 190.949H43.3487V195.352H47.7516V190.949Z" fill="#FFF8EF"/>
<path fill-rule="evenodd" clip-rule="evenodd" d="M56.5579 63.2647H25.7376V67.6676H16.9318V72.0705H12.5289V76.4734H8.12604V111.697H3.72314V124.905H8.12604V129.308H12.5289V133.711H16.9318V138.114H21.3347V146.92H16.9318V151.323H12.5289V186.546H16.9318V190.949H21.3347V221.769H38.9463V208.56H43.3492V221.769H65.3637V217.366H60.9608V195.352H65.3637V186.546H69.7666V182.143H74.1695V173.337H69.7666V160.128H65.3637V151.323H60.9608V146.92H56.5579V142.517H60.9608V138.114H65.3637V133.711H69.7666V76.4734H65.3637V72.0705H60.9608V67.6676H56.5579V63.2647ZM56.5579 67.6676V72.0705H60.9608V76.4734H65.3637V133.711H60.9608V138.114H56.5579V142.517H30.1405V138.114H21.3347V133.711H16.9318V124.905H8.12604V111.697H12.5289V116.099H16.9318V111.697H12.5289V76.4734H16.9318V72.0705H25.7376V67.6676H56.5579ZM60.9608 160.128H56.5579V186.546H60.9608V195.352H56.5579V217.366H47.7521V195.352H43.3492V199.755H38.9463V208.56H34.5434V217.366H25.7376V190.949H34.5434V182.143H30.1405V155.726H25.7376V182.143H30.1405V186.546H16.9318V151.323H21.3347V146.92H56.5579V151.323H60.9608V160.128ZM60.9608 160.128V182.143H69.7666V173.337H65.3637V160.128H60.9608Z" fill="black"/>
<path d="M421.137 61.9261H451.749V66.2992H456.122V70.6724H460.495V127.523H456.122V131.896H451.749V136.27H425.51V131.896H416.763V127.523H412.39V118.777H403.644V105.658H408.017V70.6724H412.39V66.2992H421.137V61.9261Z" fill="#F3CCA7"/>
<path fill-rule="evenodd" clip-rule="evenodd" d="M416.763 140.643H451.749V145.016H456.122V153.762H451.749V180.001H456.122V188.747H451.749V210.613H443.002V188.747H438.629V197.494H434.256V201.867H429.883V210.613H421.137V184.374H425.51V180.001H412.39V145.016H416.763V140.643ZM421.137 149.389H425.51V175.628H421.137V149.389Z" fill="#F3CCA7"/>
<path d="M456.122 153.762H460.495V166.882H464.868V175.628H456.122V153.762Z" fill="#F3CCA7"/>
<path d="M451.749 61.9261H429.883V66.2992H447.375V70.6724H456.122V105.658H460.495V70.6724H456.122V66.2992H451.749V61.9261Z" fill="#F3CCA7"/>
<path d="M412.39 70.6724H408.017V88.165H412.39V70.6724Z" fill="#F3CCA7"/>
<path d="M408.017 110.031H412.39V105.658H416.763V127.523H412.39V114.404H408.017V110.031Z" fill="#F3CCA7"/>
<path d="M416.763 127.523H429.883V131.896H451.749V136.27H425.51V131.896H416.763V127.523Z" fill="#F3CCA7"/>
<path d="M456.122 153.762H460.495V166.882H464.868V175.628H456.122V153.762Z" fill="#F3CCA7"/>
<path d="M456.122 153.762H451.749V149.389H447.375V145.016H425.51V140.643H451.749V145.016H456.122V153.762Z" fill="#F3CCA7"/>
<path d="M456.122 180.001H451.749V158.135H447.375V180.001H451.749V188.747H456.122V180.001Z" fill="#F3CCA7"/>
<path d="M447.375 193.121H451.749V210.613H447.375V193.121Z" fill="#F3CCA7"/>
<path d="M425.51 184.374H421.137V210.613H429.883V201.867H425.51V184.374Z" fill="#F3CCA7"/>
<path d="M434.256 188.747H438.629V193.121H434.256V188.747Z" fill="#F3CCA7"/>
<path d="M421.137 158.135H416.763V171.255H412.39V180.001H425.51V175.628H421.137V158.135Z" fill="#F3CCA7"/>
<path d="M425.51 70.6722H429.883V75.0454H425.51V70.6722Z" fill="#D4B194"/>
<path d="M447.376 70.6722H434.256V75.0454H447.376V79.4185H451.749V83.7917H456.122V79.4185H451.749V75.0454H447.376V70.6722Z" fill="#D4B194"/>
<path d="M408.017 105.657H403.644V110.031H408.017V105.657Z" fill="#D4B194"/>
<path d="M416.763 140.643H425.51V145.016H416.763V140.643Z" fill="#D4B194"/>
<path d="M416.763 145.016V149.389H412.39V145.016H416.763Z" fill="#D4B194"/>
<path d="M434.256 155.949H429.883V164.695H434.256V155.949Z" fill="#D4B194"/>
<path d="M434.256 155.949H438.629V151.575H434.256V155.949Z" fill="#D4B194"/>
<path d="M443.002 184.374H438.629V188.747H443.002V184.374Z" fill="#D4B194"/>
<path fill-rule="evenodd" clip-rule="evenodd" d="M451.748 57.5527H421.136V61.9259H412.39V66.299H408.017V70.6722H403.644V105.657H399.271V118.777H403.644V123.15H408.017V127.523H412.39V131.896H416.763V140.643H412.39V145.016H408.017V180.001H412.39V184.374H416.763V214.986H434.256V201.867H438.629V214.986H460.495V210.613H456.121V188.747H460.495V180.001H464.868V175.628H469.241V166.881H464.868V153.762H460.495V145.016H456.121V140.643H451.748V136.269H456.121V131.896H460.495V127.523H464.868V70.6722H460.495V66.299H456.121V61.9259H451.748V57.5527ZM451.748 61.9259V66.299H456.121V70.6722H460.495V127.523H456.121V131.896H451.748V136.269H425.509V131.896H416.763V127.523H412.39V118.777H403.644V105.657H408.017V110.031H412.39V105.657H408.017V70.6722H412.39V66.299H421.136V61.9259H451.748ZM456.121 153.762H451.748V180.001H456.121V188.747H451.748V210.613H443.002V188.747H438.629V193.12H434.256V201.867H429.883V210.613H421.136V184.374H429.883V175.628H425.509V149.389H421.136V175.628H425.509V180.001H412.39V145.016H416.763V140.643H451.748V145.016H456.121V153.762ZM456.121 153.762V175.628H464.868V166.881H460.495V153.762H456.121Z" fill="black"/>
<path d="M209.707 10.7869H272.181V19.7117H281.106V28.6365H290.031V144.659H281.106V153.584H272.181V162.508H218.632V153.584H200.783V144.659H191.858V126.809H174.008V100.035H182.933V28.6365H191.858V19.7117H209.707V10.7869Z" fill="#9C6F4B"/>
<path fill-rule="evenodd" clip-rule="evenodd" d="M200.783 171.433H272.181V180.358H281.106V198.208H272.181V251.756H281.106V269.606H272.181V314.23H254.331V269.606H245.407V287.455H236.482V296.38H227.557V314.23H209.707V260.681H218.632V251.756H191.858V180.358H200.783V171.433ZM209.707 189.283H218.632V242.832H209.707V189.283Z" fill="#9C6F4B"/>
<path d="M281.106 198.208H290.031V224.982H298.955V242.832H281.106V198.208Z" fill="#9C6F4B"/>
<path d="M272.181 10.7869H227.557V19.7117H263.256V28.6365H281.106V100.035H290.031V28.6365H281.106V19.7117H272.181V10.7869Z" fill="#714A1C" fill-opacity="0.25" style="mix-blend-mode:multiply"/>
<path d="M191.858 28.6365H182.933V64.3356H191.858V28.6365Z" fill="#714A1C" fill-opacity="0.25" style="mix-blend-mode:multiply"/>
<path d="M182.933 108.96H191.858V100.035H200.783V144.659H191.858V117.884H182.933V108.96Z" fill="#714A1C" fill-opacity="0.25" style="mix-blend-mode:multiply"/>
<path d="M200.783 144.659H227.557V153.584H272.181V162.508H218.632V153.584H200.783V144.659Z" fill="#714A1C" fill-opacity="0.25" style="mix-blend-mode:multiply"/>
<path d="M281.106 198.208H290.031V224.982H298.955V242.832H281.106V198.208Z" fill="#714A1C" fill-opacity="0.25" style="mix-blend-mode:multiply"/>
<path d="M281.106 198.208H272.181V189.283H263.256V180.358H218.632V171.433H272.181V180.358H281.106V198.208Z" fill="#714A1C" fill-opacity="0.25" style="mix-blend-mode:multiply"/>
<path d="M281.106 251.756H272.181V207.132H263.256V251.756H272.181V269.606H281.106V251.756Z" fill="#714A1C" fill-opacity="0.25" style="mix-blend-mode:multiply"/>
<path d="M263.256 278.531H272.181V314.23H263.256V278.531Z" fill="#714A1C" fill-opacity="0.25" style="mix-blend-mode:multiply"/>
<path d="M218.632 260.681H209.707V314.23H227.557V296.38H218.632V260.681Z" fill="#714A1C" fill-opacity="0.25" style="mix-blend-mode:multiply"/>
<path d="M236.482 269.606H245.407V278.531H236.482V269.606Z" fill="#714A1C" fill-opacity="0.25" style="mix-blend-mode:multiply"/>
<path d="M209.707 207.132H200.783V233.907H191.858V251.756H218.632V242.832H209.707V207.132Z" fill="#714A1C" fill-opacity="0.25" style="mix-blend-mode:multiply"/>
<path d="M218.632 28.6365H227.557V37.5613H218.632V28.6365Z" fill="#FFFCF9" fill-opacity="0.7" style="mix-blend-mode:lighten"/>
<path d="M263.256 28.6365H236.482V37.5613H263.256V46.486H272.181V55.4108H281.106V46.486H272.181V37.5613H263.256V28.6365Z" fill="#FFFCF9" fill-opacity="0.7" style="mix-blend-mode:lighten"/>
<path d="M182.933 100.035H174.008V108.96H182.933V100.035Z" fill="#FFFCF9" fill-opacity="0.7" style="mix-blend-mode:lighten"/>
<path d="M200.783 171.433H218.632V180.358H200.783V171.433Z" fill="#FFFCF9" fill-opacity="0.7" style="mix-blend-mode:lighten"/>
<path d="M200.783 180.358V189.283H191.858V180.358H200.783Z" fill="#FFFCF9" fill-opacity="0.7" style="mix-blend-mode:lighten"/>
<path d="M236.482 202.67H227.557V220.52H236.482V202.67Z" fill="#FFFCF9" fill-opacity="0.7" style="mix-blend-mode:lighten"/>
<path d="M236.482 202.67H245.407V193.745H236.482V202.67Z" fill="#FFFCF9" fill-opacity="0.7" style="mix-blend-mode:lighten"/>
<path d="M254.331 260.681H245.407V269.606H254.331V260.681Z" fill="#FFFCF9" fill-opacity="0.7" style="mix-blend-mode:lighten"/>
<path fill-rule="evenodd" clip-rule="evenodd" d="M272.181 1.86208H209.707V10.7869H191.858V19.7117H182.933V28.6365H174.008V100.035H165.083V126.809H174.008V135.734H182.933V144.659H191.858V153.584H200.783V171.433H191.858V180.358H182.933V251.756H191.858V260.681H200.783V323.155H236.482V296.38H245.407V323.155H290.031V314.23H281.106V269.606H290.031V251.756H298.955V242.832H307.88V224.982H298.955V198.208H290.031V180.358H281.106V171.433H272.181V162.508H281.106V153.584H290.031V144.659H298.955V28.6365H290.031V19.7117H281.106V10.7869H272.181V1.86208ZM272.181 10.7869V19.7117H281.106V28.6365H290.031V144.659H281.106V153.584H272.181V162.508H218.632V153.584H200.783V144.659H191.858V126.809H174.008V100.035H182.933V108.96H191.858V100.035H182.933V28.6365H191.858V19.7117H209.707V10.7869H272.181ZM281.106 198.208H272.181V251.756H281.106V269.606H272.181V314.23H254.331V269.606H245.407V278.531H236.482V296.38H227.557V314.23H209.707V260.681H227.557V242.832H218.632V189.283H209.707V242.832H218.632V251.756H191.858V180.358H200.783V171.433H272.181V180.358H281.106V198.208ZM281.106 198.208V242.832H298.955V224.982H290.031V198.208H281.106Z" fill="black"/>
<path fill-rule="evenodd" clip-rule="evenodd" d="M272.979 9.11433H210.413V18.2287H201.475H192.537V27.343H183.6V100.258H174.662V127.601H183.6H192.537V145.829H201.475L201.475 154.944L210.413 154.944H219.351V164.058H272.979V154.944L281.917 154.944V145.829H290.855V27.343H281.917V18.2287H272.979V9.11433Z" fill="#9C6F4B"/>
<path fill-rule="evenodd" clip-rule="evenodd" d="M228.289 9.11433H272.979V18.2287H281.917L281.917 27.343L264.041 27.343V18.2287H228.289V9.11433ZM281.917 27.343H290.855V100.258H281.917V27.343ZM183.6 27.343H192.538V100.258H183.6V27.343ZM192.538 100.258H201.475V145.829H192.538V118.486H183.6V109.372H192.538V100.258ZM192.538 27.343V18.2287H201.475V27.343L192.538 27.343ZM201.475 145.829H228.289V154.944H272.979V164.058H219.351V154.944H201.475V145.829Z" fill="#714A1C" fill-opacity="0.25" style="mix-blend-mode:multiply"/>
<path fill-rule="evenodd" clip-rule="evenodd" d="M228.289 27.343H219.351V36.4574H228.289V27.343ZM237.227 27.343H264.041V36.4574H237.227V27.343ZM272.979 45.5717V36.4574H264.041L264.041 45.5717H272.979ZM272.979 45.5717V54.686H281.917V45.5717H272.979ZM174.662 100.258H183.6V109.372H174.662V100.258Z" fill="#FFFCF9" fill-opacity="0.7" style="mix-blend-mode:lighten"/>
<path fill-rule="evenodd" clip-rule="evenodd" d="M219.351 91.1434H246.165V100.258H237.227V118.486H228.289V100.258H219.351V91.1434ZM264.041 136.715H246.165V145.829H264.041V136.715ZM264.041 136.715H272.979V127.601H264.041V136.715ZM281.917 100.258H264.041V109.372H281.917V100.258Z" fill="black"/>
<path fill-rule="evenodd" clip-rule="evenodd" d="M255.103 91.1434H246.165V100.258H237.227V109.372H246.165V100.258H255.103V91.1434Z" fill="#714A1C" fill-opacity="0.25" style="mix-blend-mode:multiply"/>
<path fill-rule="evenodd" clip-rule="evenodd" d="M210.413 0H272.979V9.11434H210.413V0ZM192.537 18.2287V9.11434H210.413V18.2287H192.537ZM183.599 27.343V18.2287H192.537V27.343H183.599ZM183.599 100.258V27.343H174.662V100.258H165.724V127.601H174.662V136.715H183.599V145.829H192.537V154.944H201.475V164.058H219.351V173.172H272.979V164.058H281.917V154.944H290.855V145.829H299.793V27.343H290.855V18.2287H281.917V9.11434H272.979L272.979 18.2287H281.917V27.343H290.855V145.829L281.917 145.829V154.944H272.979V164.058H219.351V154.944H201.475V145.829H192.537L192.537 136.715V127.601H174.662V100.258H183.599ZM183.599 100.258V109.372H192.537V100.258H183.599Z" fill="black"/>
<path fill-rule="evenodd" clip-rule="evenodd" d="M55.8615 67.7205H25.4477V72.1307H21.1028H16.758V133.873H21.1028V138.283L25.4477 138.283H29.7925V142.693H55.8615L55.8615 138.283L60.2063 138.283V133.873H64.5511V76.5408H60.2063V72.1307H55.8615L55.8615 67.7205ZM8.06836 111.822H12.4132V76.5408H16.758V125.053H12.4132H8.06836V111.822Z" fill="#FAE6CE"/>
<path fill-rule="evenodd" clip-rule="evenodd" d="M34.1372 67.7205H55.8614V72.1307H60.2062L60.2062 76.5408H51.5165V72.1307H34.1372V67.7205ZM60.2062 76.5408H64.551V111.822H60.2062V76.5408ZM12.4131 76.5408H16.7579V111.822H12.4131V76.5408ZM21.1027 133.873H16.7579V120.642H12.4131V116.232H16.7579V111.822L21.1027 111.822V133.873ZM34.1372 138.283V133.873L21.1027 133.873V138.283H29.7924V142.693H55.8614V138.283H34.1372ZM16.7579 76.5408V72.1307H21.1027V76.5408H16.7579Z" fill="#714A1C" fill-opacity="0.25" style="mix-blend-mode:multiply"/>
<path fill-rule="evenodd" clip-rule="evenodd" d="M34.1373 76.5408H29.7925V80.951H34.1373V76.5408ZM38.4822 76.5408H51.5166V80.951H38.4822V76.5408ZM51.5166 80.951H55.8615V85.3612H51.5166L51.5166 80.951ZM8.06836 111.822H12.4132V116.232H8.06836V111.822ZM60.2063 85.3612H55.8615V89.7713H60.2063V85.3612Z" fill="#FFFCF9" fill-opacity="0.7" style="mix-blend-mode:lighten"/>
<path fill-rule="evenodd" clip-rule="evenodd" d="M42.827 107.412H29.7925V111.822H34.1373V120.642H38.4821V111.822H42.827V107.412ZM42.827 129.463H51.5166V133.873H42.827V129.463ZM42.827 129.463H38.4821V125.053H42.827V129.463ZM51.5166 107.412H55.8615H60.2063V111.822H55.8615V120.642H51.5166V107.412Z" fill="black"/>
<path fill-rule="evenodd" clip-rule="evenodd" d="M47.1721 107.412H42.8272V111.822H38.4824V116.232H42.8272V111.822H47.1721V107.412Z" fill="#714A1C" fill-opacity="0.25" style="mix-blend-mode:multiply"/>
<path fill-rule="evenodd" clip-rule="evenodd" d="M25.4478 63.3103H55.8616V67.7205H25.4478V63.3103ZM16.7581 72.1307V67.7205H25.4478V72.1307H16.7581ZM12.4133 76.5408V72.1307H16.7581V76.5408H12.4133ZM12.4133 111.822V76.5408H8.06846V111.822H3.72363V125.053H8.06846V129.463H12.4133V133.873H16.7581V138.283H21.1029V142.693H29.7926V147.103H55.8616V142.693H60.2064V138.283H64.5512V133.873H68.896V76.5408H64.5512V72.1307H60.2064V67.7205H55.8616V72.1307H60.2064V76.5408H64.5512V133.873H60.2064V138.283H55.8616V142.693H29.7926V138.283H21.1029V133.873H16.7581L16.7581 129.463V125.053H8.06846V111.822H12.4133ZM12.4133 111.822V116.232H16.7581V111.822H12.4133Z" fill="black"/>
<path d="M25.7371 67.6676H56.5574V72.0705H60.9603V76.4734H65.3632V133.711H60.9603V138.114H56.5574V142.517H30.14V138.114H21.3342V133.711H16.9313V124.905H8.12549V111.697H12.5284V76.4734H16.9313V72.0705H25.7371V67.6676Z" fill="#FAE6CE"/>
<path fill-rule="evenodd" clip-rule="evenodd" d="M21.3342 146.92H56.5574V151.323H60.9603V160.128H56.5574V186.546H60.9603V195.352H56.5574V217.366H47.7516V195.352H43.3487V204.157H38.9458V208.56H34.5429V217.366H25.7371V190.949H30.14V186.546H16.9313V151.323H21.3342V146.92ZM25.7371 155.726H30.14V182.143H25.7371V155.726Z" fill="#FAE6CE"/>
<path d="M60.9603 160.128H65.3632V173.337H69.7661V182.143H60.9603V160.128Z" fill="#FAE6CE"/>
<path d="M56.5588 67.6676H34.5443V72.0705H52.1559V76.4734H60.9617V111.697H65.3646V76.4734H60.9617V72.0705H56.5588V67.6676Z" fill="#E3C4A6"/>
<path d="M16.9327 76.4734H12.5298V94.085H16.9327V76.4734Z" fill="#E3C4A6"/>
<path d="M12.5298 116.099H16.9327V111.697H21.3356V133.711H16.9327V120.502H12.5298V116.099Z" fill="#E3C4A6"/>
<path d="M21.3356 133.711H34.5443V138.114H56.5588V142.517H30.1414V138.114H21.3356V133.711Z" fill="#E3C4A6"/>
<path d="M60.9617 160.128H65.3646V173.337H69.7675V182.143H60.9617V160.128Z" fill="#E3C4A6"/>
<path d="M60.9617 160.128H56.5588V155.726H52.1559V151.323H30.1414V146.92H56.5588V151.323H60.9617V160.128Z" fill="#E3C4A6"/>
<path d="M60.9617 186.546H56.5588V164.531H52.1559V186.546H56.5588V195.352H60.9617V186.546Z" fill="#E3C4A6"/>
<path d="M52.1559 199.755H56.5588V217.366H52.1559V199.755Z" fill="#E3C4A6"/>
<path d="M30.1414 190.949H25.7385V217.366H34.5443V208.56H30.1414V190.949Z" fill="#E3C4A6"/>
<path d="M38.9472 195.352H43.3501V199.755H38.9472V195.352Z" fill="#E3C4A6"/>
<path d="M25.7385 164.531H21.3356V177.74H16.9327V186.546H30.1414V182.143H25.7385V164.531Z" fill="#E3C4A6"/>
<path d="M30.14 76.4733H34.5429V80.8762H30.14V76.4733Z" fill="#FFF8EF"/>
<path d="M52.1545 76.4733H38.9458V80.8762H52.1545V85.2791H56.5574V89.682H60.9603V85.2791H56.5574V80.8762H52.1545V76.4733Z" fill="#FFF8EF"/>
<path d="M12.5284 111.697H8.12549V116.099H12.5284V111.697Z" fill="#FFF8EF"/>
<path d="M21.3342 146.92H30.14V151.323H21.3342V146.92Z" fill="#FFF8EF"/>
<path d="M21.3342 151.323V155.726H16.9313V151.323H21.3342Z" fill="#FFF8EF"/>
<path d="M38.9458 162.33H34.5429V171.136H38.9458V162.33Z" fill="#FFF8EF"/>
<path d="M38.9458 162.33H43.3487V157.927H38.9458V162.33Z" fill="#FFF8EF"/>
<path d="M47.7516 190.949H43.3487V195.352H47.7516V190.949Z" fill="#FFF8EF"/>
<path fill-rule="evenodd" clip-rule="evenodd" d="M56.5579 63.2647H25.7376V67.6676H16.9318V72.0705H12.5289V76.4734H8.12604V111.697H3.72314V124.905H8.12604V129.308H12.5289V133.711H16.9318V138.114H21.3347V146.92H16.9318V151.323H12.5289V186.546H16.9318V190.949H21.3347V221.769H38.9463V208.56H43.3492V221.769H65.3637V217.366H60.9608V195.352H65.3637V186.546H69.7666V182.143H74.1695V173.337H69.7666V160.128H65.3637V151.323H60.9608V146.92H56.5579V142.517H60.9608V138.114H65.3637V133.711H69.7666V76.4734H65.3637V72.0705H60.9608V67.6676H56.5579V63.2647ZM56.5579 67.6676V72.0705H60.9608V76.4734H65.3637V133.711H60.9608V138.114H56.5579V142.517H30.1405V138.114H21.3347V133.711H16.9318V124.905H8.12604V111.697H12.5289V116.099H16.9318V111.697H12.5289V76.4734H16.9318V72.0705H25.7376V67.6676H56.5579ZM60.9608 160.128H56.5579V186.546H60.9608V195.352H56.5579V217.366H47.7521V195.352H43.3492V199.755H38.9463V208.56H34.5434V217.366H25.7376V190.949H34.5434V182.143H30.1405V155.726H25.7376V182.143H30.1405V186.546H16.9318V151.323H21.3347V146.92H56.5579V151.323H60.9608V160.128ZM60.9608 160.128V182.143H69.7666V173.337H65.3637V160.128H60.9608Z" fill="black"/>
<path fill-rule="evenodd" clip-rule="evenodd" d="M55.8615 67.7205H25.4477V72.1307H21.1028H16.758V133.873H21.1028V138.283L25.4477 138.283H29.7925V142.693H55.8615L55.8615 138.283L60.2063 138.283V133.873H64.5511V76.5408H60.2063V72.1307H55.8615L55.8615 67.7205ZM8.06836 111.822H12.4132V76.5408H16.758V125.053H12.4132H8.06836V111.822Z" fill="#FAE6CE"/>
<path fill-rule="evenodd" clip-rule="evenodd" d="M34.1372 67.7205H55.8614V72.1307H60.2062L60.2062 76.5408H51.5165V72.1307H34.1372V67.7205ZM60.2062 76.5408H64.551V111.822H60.2062V76.5408ZM12.4131 76.5408H16.7579V111.822H12.4131V76.5408ZM21.1027 133.873H16.7579V120.642H12.4131V116.232H16.7579V111.822L21.1027 111.822V133.873ZM34.1372 138.283V133.873L21.1027 133.873V138.283H29.7924V142.693H55.8614V138.283H34.1372ZM16.7579 76.5408V72.1307H21.1027V76.5408H16.7579Z" fill="#714A1C" fill-opacity="0.25" style="mix-blend-mode:multiply"/>
<path fill-rule="evenodd" clip-rule="evenodd" d="M34.1373 76.5408H29.7925V80.951H34.1373V76.5408ZM38.4822 76.5408H51.5166V80.951H38.4822V76.5408ZM51.5166 80.951H55.8615V85.3612H51.5166L51.5166 80.951ZM8.06836 111.822H12.4132V116.232H8.06836V111.822ZM60.2063 85.3612H55.8615V89.7713H60.2063V85.3612Z" fill="#FFFCF9" fill-opacity="0.7" style="mix-blend-mode:lighten"/>
<path fill-rule="evenodd" clip-rule="evenodd" d="M42.827 107.412H29.7925V111.822H34.1373V120.642H38.4821V111.822H42.827V107.412ZM42.827 129.463H51.5166V133.873H42.827V129.463ZM42.827 129.463H38.4821V125.053H42.827V129.463ZM51.5166 107.412H55.8615H60.2063V111.822H55.8615V120.642H51.5166V107.412Z" fill="black"/>
<path fill-rule="evenodd" clip-rule="evenodd" d="M47.1721 107.412H42.8272V111.822H38.4824V116.232H42.8272V111.822H47.1721V107.412Z" fill="#714A1C" fill-opacity="0.25" style="mix-blend-mode:multiply"/>
<path fill-rule="evenodd" clip-rule="evenodd" d="M25.4478 63.3103H55.8616V67.7205H25.4478V63.3103ZM16.7581 72.1307V67.7205H25.4478V72.1307H16.7581ZM12.4133 76.5408V72.1307H16.7581V76.5408H12.4133ZM12.4133 111.822V76.5408H8.06846V111.822H3.72363V125.053H8.06846V129.463H12.4133V133.873H16.7581V138.283H21.1029V142.693H29.7926V147.103H55.8616V142.693H60.2064V138.283H64.5512V133.873H68.896V76.5408H64.5512V72.1307H60.2064V67.7205H55.8616V72.1307H60.2064V76.5408H64.5512V133.873H60.2064V138.283H55.8616V142.693H29.7926V138.283H21.1029V133.873H16.7581L16.7581 129.463V125.053H8.06846V111.822H12.4133ZM12.4133 111.822V116.232H16.7581V111.822H12.4133Z" fill="black"/>
<path d="M25.7371 67.6676H56.5574V72.0705H60.9603V76.4734H65.3632V133.711H60.9603V138.114H56.5574V142.517H30.14V138.114H21.3342V133.711H16.9313V124.905H8.12549V111.697H12.5284V76.4734H16.9313V72.0705H25.7371V67.6676Z" fill="#FAE6CE"/>
<path fill-rule="evenodd" clip-rule="evenodd" d="M21.3342 146.92H56.5574V151.323H60.9603V160.128H56.5574V186.546H60.9603V195.352H56.5574V217.366H47.7516V195.352H43.3487V204.157H38.9458V208.56H34.5429V217.366H25.7371V190.949H30.14V186.546H16.9313V151.323H21.3342V146.92ZM25.7371 155.726H30.14V182.143H25.7371V155.726Z" fill="#FAE6CE"/>
<path d="M60.9603 160.128H65.3632V173.337H69.7661V182.143H60.9603V160.128Z" fill="#FAE6CE"/>
<path d="M56.5588 67.6676H34.5443V72.0705H52.1559V76.4734H60.9617V111.697H65.3646V76.4734H60.9617V72.0705H56.5588V67.6676Z" fill="#E3C4A6"/>
<path d="M16.9327 76.4734H12.5298V94.085H16.9327V76.4734Z" fill="#E3C4A6"/>
<path d="M12.5298 116.099H16.9327V111.697H21.3356V133.711H16.9327V120.502H12.5298V116.099Z" fill="#E3C4A6"/>
<path d="M21.3356 133.711H34.5443V138.114H56.5588V142.517H30.1414V138.114H21.3356V133.711Z" fill="#E3C4A6"/>
<path d="M60.9617 160.128H65.3646V173.337H69.7675V182.143H60.9617V160.128Z" fill="#E3C4A6"/>
<path d="M60.9617 160.128H56.5588V155.726H52.1559V151.323H30.1414V146.92H56.5588V151.323H60.9617V160.128Z" fill="#E3C4A6"/>
<path d="M60.9617 186.546H56.5588V164.531H52.1559V186.546H56.5588V195.352H60.9617V186.546Z" fill="#E3C4A6"/>
<path d="M52.1559 199.755H56.5588V217.366H52.1559V199.755Z" fill="#E3C4A6"/>
<path d="M30.1414 190.949H25.7385V217.366H34.5443V208.56H30.1414V190.949Z" fill="#E3C4A6"/>
<path d="M38.9472 195.352H43.3501V199.755H38.9472V195.352Z" fill="#E3C4A6"/>
<path d="M25.7385 164.531H21.3356V177.74H16.9327V186.546H30.1414V182.143H25.7385V164.531Z" fill="#E3C4A6"/>
<path d="M30.14 76.4733H34.5429V80.8762H30.14V76.4733Z" fill="#FFF8EF"/>
<path d="M52.1545 76.4733H38.9458V80.8762H52.1545V85.2791H56.5574V89.682H60.9603V85.2791H56.5574V80.8762H52.1545V76.4733Z" fill="#FFF8EF"/>
<path d="M12.5284 111.697H8.12549V116.099H12.5284V111.697Z" fill="#FFF8EF"/>
<path d="M21.3342 146.92H30.14V151.323H21.3342V146.92Z" fill="#FFF8EF"/>
<path d="M21.3342 151.323V155.726H16.9313V151.323H21.3342Z" fill="#FFF8EF"/>
<path d="M38.9458 162.33H34.5429V171.136H38.9458V162.33Z" fill="#FFF8EF"/>
<path d="M38.9458 162.33H43.3487V157.927H38.9458V162.33Z" fill="#FFF8EF"/>
<path d="M47.7516 190.949H43.3487V195.352H47.7516V190.949Z" fill="#FFF8EF"/>
<path fill-rule="evenodd" clip-rule="evenodd" d="M56.5579 63.2647H25.7376V67.6676H16.9318V72.0705H12.5289V76.4734H8.12604V111.697H3.72314V124.905H8.12604V129.308H12.5289V133.711H16.9318V138.114H21.3347V146.92H16.9318V151.323H12.5289V186.546H16.9318V190.949H21.3347V221.769H38.9463V208.56H43.3492V221.769H65.3637V217.366H60.9608V195.352H65.3637V186.546H69.7666V182.143H74.1695V173.337H69.7666V160.128H65.3637V151.323H60.9608V146.92H56.5579V142.517H60.9608V138.114H65.3637V133.711H69.7666V76.4734H65.3637V72.0705H60.9608V67.6676H56.5579V63.2647ZM56.5579 67.6676V72.0705H60.9608V76.4734H65.3637V133.711H60.9608V138.114H56.5579V142.517H30.1405V138.114H21.3347V133.711H16.9318V124.905H8.12604V111.697H12.5289V116.099H16.9318V111.697H12.5289V76.4734H16.9318V72.0705H25.7376V67.6676H56.5579ZM60.9608 160.128H56.5579V186.546H60.9608V195.352H56.5579V217.366H47.7521V195.352H43.3492V199.755H38.9463V208.56H34.5434V217.366H25.7376V190.949H34.5434V182.143H30.1405V155.726H25.7376V182.143H30.1405V186.546H16.9318V151.323H21.3347V146.92H56.5579V151.323H60.9608V160.128ZM60.9608 160.128V182.143H69.7666V173.337H65.3637V160.128H60.9608Z" fill="black"/>
<path fill-rule="evenodd" clip-rule="evenodd" d="M46.9235 148.249H37.7373V152.546H46.9235V148.249ZM69.889 174.032H65.2959H60.7029V178.329H65.296L65.2959 182.626H69.889V174.032ZM14.7718 178.329H10.1787V186.923H14.7718H19.3649V178.329H14.7718ZM23.958 178.329H19.3649V182.626H23.958V178.329Z" fill="#F3CCA7"/>
<path fill-rule="evenodd" clip-rule="evenodd" d="M37.737 148.249H46.9232V152.546H37.737V148.249ZM60.7025 174.032H65.2956H69.8887V182.626H65.2956V178.329H60.7025V174.032ZM19.3646 178.329H23.9577V182.626H19.3646V186.923H14.7715V178.329L19.3646 178.329Z" fill="#714A1C" fill-opacity="0.25" style="mix-blend-mode:multiply"/>
<rect x="37.7373" y="156.843" width="9.18621" height="25.7825" fill="#8F00FF"/>
<path d="M42.3301 156.843H46.9232V182.626H42.3301V156.843Z" fill="black" fill-opacity="0.2" style="mix-blend-mode:multiply"/>
<path fill-rule="evenodd" clip-rule="evenodd" d="M28.5508 143.952H23.9577L23.9577 148.249H19.3646V152.546H14.7715V174.032L19.3646 174.032H23.9577L23.9577 156.843H28.5508V143.952ZM23.9577 182.626H28.5508V191.22H23.9577V182.626ZM33.1439 148.249H28.5508V191.22H33.1439V148.249ZM46.9232 152.546H51.5163V148.249H56.1094L56.1094 152.546H60.7025V161.141H56.1094V182.626H60.7025V191.22H56.1094H51.5163V182.626H46.9232V152.546ZM60.7025 161.141V169.735H65.2956V161.141L60.7025 161.141Z" fill="black"/>
<path fill-rule="evenodd" clip-rule="evenodd" d="M23.9578 143.952H28.551V148.249H23.9578V143.952ZM28.551 152.546V148.249H33.1441V152.546L28.551 152.546ZM28.551 152.546V156.843H23.9578V152.546H28.551ZM51.5165 148.249H56.1096V152.546H51.5165V148.249ZM60.7027 161.141V152.546H56.1096V161.141H60.7027ZM60.7027 161.141V169.735H65.2958V161.141L60.7027 161.141ZM56.1096 174.032H51.5165V191.22H56.1096L60.7027 191.22V182.626H56.1096L56.1096 174.032ZM33.1441 182.626H23.9578V191.22H33.1441V182.626ZM19.3647 165.438H23.9578V174.032H19.3647V165.438Z" fill="black" fill-opacity="0.2" style="mix-blend-mode:multiply"/>
<path fill-rule="evenodd" clip-rule="evenodd" d="M28.551 139.655H23.9579V143.952H19.3648V148.249H14.7717V152.546H10.1786V178.329H5.58545V186.923H10.1786V191.22H19.3648H23.9579V195.517H33.1441V191.22H37.7372V186.923H46.9234V191.22H51.5165V152.546V148.249H56.1096V152.546H60.7027V161.141H56.1096V182.626H60.7027V191.22H51.5165V195.517H60.7027V191.22H65.2958V186.923H69.8889V182.626H74.482V174.032H69.8889V161.141H65.2958V152.546H60.7027V148.249H56.1096V143.952H51.5165V148.249H46.9234V152.546H37.7372V148.249H33.1441V143.952H28.551V139.655ZM28.551 143.952V148.249H33.1441V191.22L23.9579 191.22V182.626H28.551V156.843H23.9579V174.032H14.7717V152.546H19.3648V148.249H23.9579V143.952H28.551ZM69.8889 174.032V182.626H65.2958V178.329H60.7027V174.032H65.2958H69.8889ZM65.2958 161.141H60.7027V169.735H65.2958V161.141ZM46.9234 182.626V156.843H37.7372V182.626H46.9234ZM23.9579 182.626H19.3648L19.3648 186.923H10.1786V178.329H14.7717H23.9579V182.626Z" fill="black"/>
<path fill-rule="evenodd" clip-rule="evenodd" d="M227.917 256.138H210.041V307.034H227.917V298.552H236.855V290.069H245.793V264.621H254.731L254.731 307.034H272.607V298.552H281.544V256.138H272.607H254.731H245.793H236.855H227.917Z" fill="black"/>
<path fill-rule="evenodd" clip-rule="evenodd" d="M210.041 247.655H201.103V324H210.041H227.917H236.855V298.552H245.793V324H254.731H272.606H281.544H290.482V315.517H281.544V298.552H290.482V247.655H281.544H210.041ZM254.731 315.517H272.606V298.552H281.544V273.103H272.606V264.621H281.544L281.544 256.138H210.041V264.621H218.979V273.103H210.041V315.517H227.917V298.552H236.855V290.069H245.793V264.621H254.731V315.517Z" fill="black"/>
<path fill-rule="evenodd" clip-rule="evenodd" d="M210.041 256.138H218.979V264.621H210.041V256.138ZM210.041 273.103H218.979V281.586H210.041V273.103ZM227.917 298.552H218.979V307.034H227.917V298.552ZM236.855 290.069H227.917V298.552L236.855 298.552V290.069ZM236.855 290.069V264.621H245.793V290.069L236.855 290.069ZM281.544 256.138H272.607V264.621H281.544V256.138ZM272.607 273.103H281.544V281.586H272.607V273.103ZM263.669 273.103H254.731V307.034H263.669L272.607 307.034V290.069H263.669V273.103Z" fill="black" fill-opacity="0.2" style="mix-blend-mode:multiply"/>
<path fill-rule="evenodd" clip-rule="evenodd" d="M227.917 307.034H210.041V315.517H227.917V307.034ZM272.607 307.034H254.731V315.517H272.607V307.034Z" fill="black"/>
<path fill-rule="evenodd" clip-rule="evenodd" d="M218.979 307.034H210.041V315.517H218.979V307.034ZM263.669 307.034H254.731V315.517H263.669V307.034Z" fill="black" fill-opacity="0.2" style="mix-blend-mode:multiply"/>
<path fill-rule="evenodd" clip-rule="evenodd" d="M450.247 62.2323H418.965V134.363H423.434V138.871H450.247L450.247 134.363L454.716 134.363V129.855H459.185V71.2486H454.716V66.7405H450.247L450.247 62.2323ZM401.089 107.314H405.558V71.2486H410.027L410.027 66.7405H414.496H418.965V134.363H414.496L414.496 129.855H410.027L410.027 120.838L405.558 120.838H401.089V107.314Z" fill="#FAE6CE"/>
<path fill-rule="evenodd" clip-rule="evenodd" d="M427.903 62.2323H450.248V66.7405H454.717V71.2486H445.779V66.7405H427.903V62.2323ZM454.717 71.2486H459.186V107.314H454.717V71.2486ZM405.558 71.2486H410.027V107.314H405.558V71.2486ZM414.496 129.855H410.027V116.33H405.558V111.822H410.027V107.314L414.496 107.314V129.855ZM427.903 134.363V129.855H414.496V134.363L423.434 134.363V138.871H450.248V134.363L427.903 134.363ZM410.027 71.2486V66.7405H414.496V71.2486H410.027Z" fill="#714A1C" fill-opacity="0.25" style="mix-blend-mode:multiply"/>
<path fill-rule="evenodd" clip-rule="evenodd" d="M427.903 71.2486H423.434V75.7568H427.903V71.2486ZM432.372 71.2486H445.779V75.7568H432.372V71.2486ZM450.247 80.265V75.7568H445.779V80.265H450.247ZM450.247 80.265V84.7731H454.716V80.265H450.247ZM401.089 107.314H405.558V111.822H401.089V107.314Z" fill="#FFFCF9" fill-opacity="0.7" style="mix-blend-mode:lighten"/>
<path fill-rule="evenodd" clip-rule="evenodd" d="M427.903 102.806H432.372V107.314H427.903V102.806ZM427.903 107.314V111.822H423.434V107.314H427.903ZM432.372 107.314H436.841V111.822H432.372V107.314ZM436.841 125.347H445.779V129.855H436.841V125.347ZM436.841 125.347H432.372V120.838H436.841V125.347ZM445.779 125.347H450.248V120.838H445.779V125.347ZM445.779 107.314H441.31V111.822H445.779V107.314ZM450.248 107.314H445.779V102.806H450.248V107.314ZM450.248 107.314V111.822H454.717V107.314H450.248Z" fill="black"/>
<path fill-rule="evenodd" clip-rule="evenodd" d="M436.841 102.806H432.372V107.314H436.841V111.822H441.31V107.314H436.841V102.806Z" fill="#714A1C" fill-opacity="0.25" style="mix-blend-mode:multiply"/>
<path fill-rule="evenodd" clip-rule="evenodd" d="M418.965 57.7241H450.248V62.2323H418.965V57.7241ZM410.027 66.7405V62.2323H418.965V66.7405H410.027ZM405.558 71.2486V66.7405H410.027V71.2486H405.558ZM405.558 107.314V71.2486H401.089V107.314H396.62V120.838H401.089V125.347H405.558V129.855H410.027V134.363H414.496V138.871H423.434V143.379H450.248V138.871H454.717V134.363H459.186V129.855H463.655V71.2486H459.186V66.7405H454.717V62.2323H450.248V66.7405H454.717V71.2486H459.186V129.855L454.717 129.855V134.363H450.248V138.871H423.434V134.363H414.496V129.855H410.027L410.027 125.347V120.838H401.089V107.314H405.558ZM405.558 107.314V111.822H410.027V107.314H405.558Z" fill="black"/>
<path fill-rule="evenodd" clip-rule="evenodd" d="M420.729 61.6912H416.711L416.711 65.6582H408.674V69.6252H404.656V101.361H408.674V105.328H416.711L416.711 97.3943H420.729L420.729 93.4273H428.765V89.4603H436.802V85.4933H440.82L440.82 81.5262H444.838V85.4933H448.856V89.4603H452.874L452.874 93.4273H456.892V65.6582H452.874L452.874 61.6912H448.856H444.838H440.82H436.802H428.765H420.729ZM404.656 121.196H408.674V125.163H412.693V129.13H416.711V137.064H412.693V141.031H408.674H404.656H400.638V137.064H404.656V121.196ZM456.892 73.5922H460.91L460.91 85.4933H464.929V125.163H460.91V133.097H464.929V137.064H468.947V141.031H464.929H460.91L460.91 144.998H456.892V117.229H460.91V101.361H456.892V73.5922ZM456.892 129.13H452.874V141.031H456.892V129.13Z" fill="black"/>
<path fill-rule="evenodd" clip-rule="evenodd" d="M448.856 65.6582H444.838V73.5922H440.82V81.5262H444.838L444.838 73.5922H448.856V65.6582ZM404.656 69.6252H408.674V97.3943H412.693V93.4273L416.711 93.4273H420.729V97.3943H416.711L416.711 105.328H412.693H408.674V101.361H404.656V69.6252ZM436.801 85.4933H428.765V89.4603H420.729V93.4273H428.765V89.4603H436.801V85.4933ZM436.801 85.4933L436.801 81.5262H440.82V85.4933L436.801 85.4933ZM460.91 117.229H456.892V129.13H452.874V141.031H456.892V144.999H460.91V141.031H464.928H468.947V137.064H464.928V133.097H460.91V125.163H464.928V85.4933H460.91V117.229Z" fill="black" fill-opacity="0.2" style="mix-blend-mode:multiply"/>
<path fill-rule="evenodd" clip-rule="evenodd" d="M436.802 65.6582H440.82V73.5922H436.802V65.6582ZM432.784 77.5592V73.5922H436.802L436.802 77.5592H432.784ZM424.747 77.5592H432.784V81.5262H424.747V77.5592ZM416.711 77.5592H424.747V73.5922H428.766V65.6582H424.747L424.747 73.5922H416.711V77.5592ZM416.711 77.5592V81.5262H412.693V77.5592L416.711 77.5592ZM420.729 81.5262H424.747V85.4933H420.729V81.5262ZM412.693 81.5262H408.675V89.4603H412.693V81.5262Z" fill="white" fill-opacity="0.3" style="mix-blend-mode:lighten"/>
<path fill-rule="evenodd" clip-rule="evenodd" d="M452.874 57.7241H416.711V61.6912H408.675V65.6582H404.656V69.6252H400.638V101.361H404.656V69.6252H408.675V65.6582H416.711V61.6912H452.874V65.6582H456.892V73.5922H460.91V85.4932H464.929V125.163H460.91V133.097H464.929V137.064H468.947V141.031H460.91V144.998H456.892V141.031H452.874V133.097H448.856V141.031H452.874V144.998H456.892V148.966H460.91V144.998H468.947V141.031H472.965V137.064H468.947V133.097H464.929V125.163H468.947V85.4932H464.929V73.5922H460.91V65.6582H456.892V61.6912H452.874V57.7241ZM400.638 121.196H404.656V137.064H400.638V121.196ZM400.638 141.031H396.62V137.064H400.638V141.031ZM412.693 141.031V144.998H400.638V141.031H412.693ZM416.711 137.064V141.031H412.693L412.693 137.064H416.711ZM416.711 137.064V133.097H420.729V137.064H416.711ZM452.874 117.229H456.892V129.13H452.874V117.229Z" fill="black"/>
<path fill-rule="evenodd" clip-rule="evenodd" d="M219.724 154.552H210.786V163.707H201.848V172.862H192.911V182.017H183.973V236.948L175.035 236.948V255.259H183.973V264.414H201.848V255.259H300.166V246.103H291.228V236.948H282.29V200.328H291.228V227.793H300.166V246.103H309.104V227.793H300.166V200.328H291.228V182.017H282.29V172.862H273.352V163.707H264.414V172.862H255.476V182.017H237.6V172.862H228.662V163.707H219.724V154.552ZM219.724 163.707V172.862H228.662V182.017H237.6V191.172H255.476V182.017H264.414V172.862H273.352V182.017H282.29V200.328H273.352V246.103H219.724V191.172H210.786V200.328H192.911V182.017H201.848V172.862H210.786V163.707H219.724ZM210.786 246.103H201.848L201.848 255.259H183.973V236.948H192.911V209.483H210.786V246.103Z" fill="black"/>
<path fill-rule="evenodd" clip-rule="evenodd" d="M255.476 172.862H237.6V182.017H255.476V172.862ZM192.911 209.483H201.849V255.259H192.911L183.973 255.259V236.948H192.911V209.483ZM300.166 227.793H291.228V246.103H300.166V227.793ZM282.29 200.328H291.228V236.948H282.29V200.328ZM210.786 209.483H201.849V246.103H210.786V209.483Z" fill="#9C6F4B"/>
<path fill-rule="evenodd" clip-rule="evenodd" d="M237.6 172.862H255.476V182.017H237.6V172.862ZM282.29 200.328H291.228V227.793H300.166V246.103H291.228V236.948H282.29V200.328ZM201.849 209.483H210.787V246.103H201.849V255.259H192.911V236.948H201.849V209.483Z" fill="#714A1C" fill-opacity="0.25" style="mix-blend-mode:multiply"/>
<path fill-rule="evenodd" clip-rule="evenodd" d="M219.724 163.707H210.787L210.787 172.862H201.849V182.017H192.911V200.328H201.849H210.787L210.787 191.172H219.724L219.724 246.103H228.662L237.6 246.103H246.538H255.476H264.414L273.352 246.103V200.328H282.29V182.017H273.352V172.862H264.414L264.414 182.017H255.476V191.172H246.538H237.6V182.017H228.662V172.862H219.724L219.724 163.707Z" fill="white"/>
<path fill-rule="evenodd" clip-rule="evenodd" d="M210.787 163.707H219.724V172.862H210.787V163.707ZM264.414 172.862H273.352V182.017H264.414V172.862ZM273.352 182.017L273.352 200.328H282.29V182.017H273.352ZM273.352 236.948H219.724V246.103H273.352V236.948ZM219.724 182.017H210.787V191.172H201.849V200.328H210.787V191.172H219.724V182.017Z" fill="black" fill-opacity="0.2" style="mix-blend-mode:multiply"/>
<path fill-rule="evenodd" clip-rule="evenodd" d="M31.4684 190.245H22.9028V214.47H31.4684V210.433H35.7511V206.395H40.0339V194.282H44.3166V214.47H52.8821V210.433H57.1649V190.245H52.8821H44.3166H40.0339H35.7511H31.4684Z" fill="black"/>
<path fill-rule="evenodd" clip-rule="evenodd" d="M22.9029 186.207H18.6201V222.545H22.9029H31.4684H35.7512V210.433H40.0339V222.545H44.3167H52.8822H57.1649H61.4477V218.508H57.1649V210.433H61.4477V186.207H57.1649H22.9029ZM44.3167 218.508H52.8822V210.433H57.1649V198.32H52.8822V194.282H57.1649V190.245H22.9029V194.282H27.1856V198.32H22.9029V218.508H31.4684V210.433H35.7512V206.395H40.0339V194.282H44.3167V218.508Z" fill="black"/>
<path fill-rule="evenodd" clip-rule="evenodd" d="M22.9028 190.245H27.1856V194.282H22.9028V190.245ZM22.9028 198.32H27.1856V202.357H22.9028V198.32ZM31.4684 210.433H27.1856V214.47H31.4684V210.433ZM35.7511 206.395H31.4684V210.433L35.7511 210.433V206.395ZM35.7511 206.395V194.282H40.0339V206.395L35.7511 206.395ZM57.1649 190.245H52.8821V194.282H57.1649V190.245ZM52.8821 198.32H57.1649V202.357H52.8821V198.32ZM48.5994 198.32H44.3166V214.47H48.5994L52.8821 214.47V206.395H48.5994V198.32Z" fill="black" fill-opacity="0.2" style="mix-blend-mode:multiply"/>
<path fill-rule="evenodd" clip-rule="evenodd" d="M31.4684 214.47H22.9028V218.508H31.4684V214.47ZM52.8821 214.47H44.3166V218.508H52.8821V214.47Z" fill="white"/>
<path fill-rule="evenodd" clip-rule="evenodd" d="M27.1856 214.47H22.9028V218.508H27.1856V214.47ZM48.5994 214.47H44.3166V218.508H48.5994V214.47Z" fill="black" fill-opacity="0.2" style="mix-blend-mode:multiply"/>
<path fill-rule="evenodd" clip-rule="evenodd" d="M448.758 134.853H430.882V139.361H435.351V143.869H444.289V139.361H448.758V134.853ZM413.007 143.869H417.476H421.944V175.427H417.476L417.476 179.935H413.007H408.538V170.918H413.007V143.869ZM462.165 166.41H466.634V175.427H462.165H457.696V152.886H462.165V166.41Z" fill="#FAE6CE"/>
<path fill-rule="evenodd" clip-rule="evenodd" d="M448.758 134.853H430.882V139.361H448.758V134.853ZM457.696 152.886H462.165V166.41H466.634V175.427H462.165H457.696V152.886ZM417.476 157.394H421.944V179.935H417.476H408.538V170.918H417.476L417.476 157.394Z" fill="#714A1C" fill-opacity="0.25" style="mix-blend-mode:multiply"/>
<path d="M413.007 143.869H417.476V148.378H413.007V143.869Z" fill="#FFFCF9" fill-opacity="0.7" style="mix-blend-mode:lighten"/>
<path fill-rule="evenodd" clip-rule="evenodd" d="M421.945 134.853H426.414V139.361H430.883V143.869H435.352V202.475L430.883 202.475L426.414 202.476H421.945H417.476H413.007V197.967H417.476V188.951H421.945V175.427H426.414V143.869H421.945V134.853ZM444.29 148.378H435.352V202.475H444.29H448.759L453.228 202.476H457.696H462.165V193.459H457.696V179.935H453.228V139.361H448.759L448.759 143.869H444.29L444.29 148.378Z" fill="#E62E2E"/>
<path fill-rule="evenodd" clip-rule="evenodd" d="M421.945 134.853H426.414V139.361H421.945V134.853ZM426.414 139.361H430.882V143.869H426.414V139.361ZM453.227 139.361H448.758L448.758 143.869H444.289V148.378H448.758L448.758 152.886H453.227V139.361ZM444.289 184.443H448.758V193.459H444.289V184.443ZM444.289 193.459V202.476H439.82V193.459H444.289ZM448.758 175.427H444.289V179.935H448.758V175.427ZM444.289 161.902H448.758V170.918H444.289V161.902ZM435.351 188.951H430.882V193.459H426.414V197.967H430.882V193.459H435.351V188.951ZM435.351 188.951H439.82V179.935H435.351L435.351 188.951ZM430.882 161.902H426.414V175.427H421.945V184.443H426.414V175.427H430.882V161.902ZM421.945 188.951H417.476V193.459H421.945V188.951ZM457.696 193.459H462.165V202.476H457.696V193.459ZM457.696 179.935H453.227V188.951H457.696V179.935Z" fill="black" fill-opacity="0.2" style="mix-blend-mode:multiply"/>
<path fill-rule="evenodd" clip-rule="evenodd" d="M426.414 139.361H421.945V143.869H426.414V139.361ZM444.29 166.41H439.821V175.427H444.29V166.41ZM430.883 184.443H435.352V188.951H430.883V184.443ZM426.414 188.951H430.883V193.459H426.414V188.951ZM426.414 193.459V202.476H421.945V193.459L426.414 193.459ZM435.352 193.459H439.821V202.476H435.352V193.459ZM439.821 193.459V188.951H444.29V193.459L439.821 193.459Z" fill="white" fill-opacity="0.3" style="mix-blend-mode:lighten"/>
<path fill-rule="evenodd" clip-rule="evenodd" d="M430.883 206.984H421.945V211.492H430.883V206.984ZM453.228 206.984H444.29V211.492H453.228V206.984Z" fill="black"/>
<path fill-rule="evenodd" clip-rule="evenodd" d="M426.414 206.984H421.945V211.492H426.414V206.984ZM448.759 206.984H444.29V211.492H448.759V206.984Z" fill="black" fill-opacity="0.2" style="mix-blend-mode:multiply"/>
<path fill-rule="evenodd" clip-rule="evenodd" d="M421.945 130.345H426.414V134.853H421.945V130.345ZM421.945 143.869V134.853H417.476V139.361H413.007V143.869H408.538V170.918H404.069V179.935H408.538V184.443H417.476L417.476 188.951H413.007V197.967H408.538V202.476V206.984H417.476V216H421.945H430.883H435.352V206.984H439.821V216H444.29H462.165V211.492H457.696V206.984H466.634L466.634 202.476V193.459H462.165V179.935H466.634V175.427H471.103V166.41H466.634V152.886H462.165V143.869H457.696V139.361H453.227V134.853H448.759V139.361H444.29V143.869H435.352V139.361H430.883V134.853H426.414V139.361H430.883V143.869H435.352V148.378H444.29V143.869H448.759V139.361H453.227V179.935H457.696V193.459H462.165V202.476H413.007V197.967H417.476V188.951H421.945V175.427H426.414V143.869L421.945 143.869ZM421.945 143.869H417.476L413.007 143.869V170.918H408.538V179.935H417.476L417.476 175.427H421.945V143.869ZM462.165 152.886H457.696V175.427H462.165H466.634V166.41H462.165V152.886ZM444.29 211.492H453.227V206.984H444.29V211.492ZM430.883 211.492V206.984H421.945V211.492H430.883Z" fill="black"/>
<path fill-rule="evenodd" clip-rule="evenodd" d="M57.3515 69.7786H26.0687V74.3848H21.5998H17.1308V138.871H21.5998V143.477L26.0687 143.477H30.5377V148.083H57.3515L57.3515 143.477L61.8205 143.477V138.871H66.2894V78.9909H61.8205V74.3848H57.3515L57.3515 69.7786ZM8.19287 115.84H12.6618V78.9909H17.1308V129.659H12.6618H8.19287V115.84Z" fill="#F3CCA7"/>
<path fill-rule="evenodd" clip-rule="evenodd" d="M35.0069 69.7786H57.3518V74.3848H61.8207L61.8207 78.9909H52.8828V74.3848H35.0069V69.7786ZM61.8207 78.9909H66.2897V115.84H61.8207V78.9909ZM12.6621 78.9909H17.1311V115.84H12.6621V78.9909ZM21.6 138.871H17.1311V125.053H12.6621V120.446H17.1311V115.84L21.6 115.84V138.871ZM35.0069 143.477V138.871L21.6 138.871V143.477H30.538V148.083H57.3518V143.477H35.0069ZM17.1311 78.9909V74.3848H21.6V78.9909H17.1311Z" fill="#714A1C" fill-opacity="0.25" style="mix-blend-mode:multiply"/>
<path fill-rule="evenodd" clip-rule="evenodd" d="M35.0067 78.9909H30.5377V83.5971H35.0067V78.9909ZM39.4756 78.9909H52.8825V83.5971H39.4756V78.9909ZM52.8825 83.5971H57.3515V88.2033H52.8825L52.8825 83.5971ZM8.19287 115.84H12.6618V120.446H8.19287V115.84ZM61.8205 88.2033H57.3515V92.8094H61.8205V88.2033Z" fill="#FFFCF9" fill-opacity="0.7" style="mix-blend-mode:lighten"/>
<path fill-rule="evenodd" clip-rule="evenodd" d="M43.945 111.234H30.5381V115.84H35.007V125.053H39.476V115.84H43.945V111.234ZM43.945 134.265H52.8829V138.871H43.945V134.265ZM43.945 134.265H39.476V129.659H43.945V134.265ZM52.8829 111.234H57.3519H61.8208V115.84H57.3519V125.053H52.8829V111.234Z" fill="black"/>
<path fill-rule="evenodd" clip-rule="evenodd" d="M48.414 111.234H43.945V115.84H39.4761V120.446H43.945V115.84H48.414V111.234Z" fill="#714A1C" fill-opacity="0.25" style="mix-blend-mode:multiply"/>
<path fill-rule="evenodd" clip-rule="evenodd" d="M26.069 65.1724H57.3517V69.7786H26.069V65.1724ZM17.131 74.3848V69.7786H26.069V74.3848H17.131ZM12.6621 78.9909V74.3848H17.131V78.9909H12.6621ZM12.6621 115.84V78.9909H8.19309V115.84H3.72412V129.659H8.19309V134.265H12.6621V138.871H17.131V143.477H21.6V148.084H30.5379V152.69H57.3517V148.084H61.8207V143.477H66.2896V138.871H70.7586V78.9909H66.2896V74.3848H61.8207V69.7786H57.3517V74.3848H61.8207V78.9909H66.2896V138.871H61.8207V143.477H57.3517V148.084H30.5379V143.477H21.6V138.871H17.131L17.131 134.265V129.659H8.19309V115.84L12.6621 115.84ZM12.6621 115.84V120.446H17.131V115.84L12.6621 115.84Z" fill="black"/>
<path fill-rule="evenodd" clip-rule="evenodd" d="M32.1451 65.4207H28.127V69.3931H24.1088V73.3655H20.0907L20.0907 77.3379H16.0725H12.0544V81.3103H8.03622H4.01807V85.2828H8.03622V105.145H12.0544V109.117H16.0725L16.0725 113.09H20.0907L20.0907 121.034H24.1088V105.145H28.127V97.2H32.1451V93.2276H48.2177H60.2721V97.2H64.2903V101.172H68.3084V89.2552H72.3266V85.2828H68.3084V81.3103H72.3266V77.3379H68.3084H64.2903V73.3655H60.2721V69.3931H48.2177V65.4207H32.1451Z" fill="black"/>
<path fill-rule="evenodd" clip-rule="evenodd" d="M20.0906 73.3655H24.1087V77.3379H28.1269V81.3103H32.145V85.2828H40.1813L40.1813 89.2552H60.2721V93.2276H40.1813H32.145V97.2H28.1269V105.145H24.1087V121.034H20.0906V113.09H16.0724V109.117H12.0543V105.145H8.03613V93.2276H12.0543V97.2H16.0724H20.0906V93.2276H24.1087V89.2552H28.1269V85.2828H24.1087V81.3103H20.0906V73.3655ZM68.3084 89.2552H64.2902V93.2276H60.2721V97.2H64.2902V101.172H68.3084V89.2552ZM68.3084 89.2552H72.3265V85.2828H68.3084L68.3084 89.2552ZM56.2539 81.3103H44.1995V85.2828H56.2539V81.3103ZM56.2539 81.3103H64.2902V77.3379H56.2539V81.3103Z" fill="black" fill-opacity="0.2" style="mix-blend-mode:multiply"/>
<path fill-rule="evenodd" clip-rule="evenodd" d="M32.1454 73.3655H44.1999V77.3379H32.1454V73.3655ZM20.091 81.3103H16.0728V85.2828H12.0547V89.2552H16.0728V85.2828H20.091V81.3103ZM52.2362 73.3655H48.218V77.3379H52.2362V73.3655Z" fill="white" fill-opacity="0.3" style="mix-blend-mode:lighten"/>
<path fill-rule="evenodd" clip-rule="evenodd" d="M28.127 61.4483H48.2178V65.4207H28.127V61.4483ZM24.1089 69.3931V65.4207H28.127V69.3931H24.1089ZM20.0907 73.3655V69.3931H24.1089V73.3655H20.0907ZM12.0544 77.3379V73.3655H20.0907V77.3379H12.0544ZM4.01815 81.3103V77.3379H12.0544V81.3103H4.01815ZM4.01815 85.2828H0V81.3103H4.01815V85.2828ZM8.0363 105.145H4.01815V85.2828H8.0363V105.145ZM8.0363 105.145H12.0544V113.09H8.0363V105.145ZM60.2722 69.3931H48.2178V65.4207H60.2722V69.3931ZM64.2904 73.3655H60.2722V69.3931H64.2904V73.3655ZM72.3267 77.3379H64.2904V73.3655H72.3267V77.3379ZM72.3267 81.3103V77.3379H76.3448V81.3103H72.3267ZM72.3267 85.2828H68.3085V81.3103H72.3267V85.2828ZM72.3267 89.2552H76.3448V85.2828H72.3267V89.2552ZM72.3267 89.2552V105.145H68.3085V89.2552H72.3267Z" fill="black"/>
</svg>
