<svg width="97" height="662" viewBox="0 0 97 662" fill="none" xmlns="http://www.w3.org/2000/svg">
<path d="M39.0954 19.4754H66.6062V23.4055H70.5363V27.3356H74.4665V78.4271H70.5363V82.3572H66.6062V86.2873H43.0256V82.3572H35.1653V78.4271H31.2352V70.5669H23.375V58.7765H27.3051V27.3356H31.2352V23.4055H39.0954V19.4754Z" fill="#F3CCA7"/>
<path fill-rule="evenodd" clip-rule="evenodd" d="M35.1653 90.2174H66.6062V94.1475H70.5363V102.008H66.6062V125.588H70.5363V133.449H66.6062V153.099H58.746V133.449H54.8159V141.309H50.8858V145.239H46.9557V153.099H39.0954V129.519H43.0256V125.588H31.2352V94.1475H35.1653V90.2174ZM39.0954 98.0776H43.0256V121.658H39.0954V98.0776Z" fill="#F3CCA7"/>
<path d="M70.5363 102.008H74.4665V113.798H78.3966V121.658H70.5363V102.008Z" fill="#F3CCA7"/>
<path d="M66.6058 19.4754H46.9552V23.4055H62.6757V27.3356H70.5359V58.7765H74.466V27.3356H70.5359V23.4055H66.6058V19.4754Z" fill="#714A1C" fill-opacity="0.25" style="mix-blend-mode:multiply"/>
<path d="M31.2348 27.3356H27.3047V43.0561H31.2348V27.3356Z" fill="#714A1C" fill-opacity="0.25" style="mix-blend-mode:multiply"/>
<path d="M27.3047 62.7066H31.2348V58.7765H35.1649V78.4271H31.2348V66.6367H27.3047V62.7066Z" fill="#714A1C" fill-opacity="0.25" style="mix-blend-mode:multiply"/>
<path d="M35.1649 78.4271H46.9552V82.3572H66.6058V86.2873H43.0251V82.3572H35.1649V78.4271Z" fill="#714A1C" fill-opacity="0.25" style="mix-blend-mode:multiply"/>
<path d="M70.5359 102.008H74.466V113.798H78.3962V121.658H70.5359V102.008Z" fill="#714A1C" fill-opacity="0.25" style="mix-blend-mode:multiply"/>
<path d="M70.5359 102.008H66.6058V98.0776H62.6757V94.1475H43.0251V90.2174H66.6058V94.1475H70.5359V102.008Z" fill="#714A1C" fill-opacity="0.25" style="mix-blend-mode:multiply"/>
<path d="M70.5359 125.588H66.6058V105.938H62.6757V125.588H66.6058V133.449H70.5359V125.588Z" fill="#714A1C" fill-opacity="0.25" style="mix-blend-mode:multiply"/>
<path d="M62.6757 137.379H66.6058V153.099H62.6757V137.379Z" fill="#714A1C" fill-opacity="0.25" style="mix-blend-mode:multiply"/>
<path d="M43.0251 129.519H39.095V153.099H46.9552V145.239H43.0251V129.519Z" fill="#714A1C" fill-opacity="0.25" style="mix-blend-mode:multiply"/>
<path d="M50.8854 133.449H54.8155V137.379H50.8854V133.449Z" fill="#714A1C" fill-opacity="0.25" style="mix-blend-mode:multiply"/>
<path d="M39.095 105.938H35.1649V117.728H31.2348V125.588H43.0251V121.658H39.095V105.938Z" fill="#714A1C" fill-opacity="0.25" style="mix-blend-mode:multiply"/>
<path d="M43.0256 27.3356H46.9557V31.2657H43.0256V27.3356Z" fill="#FFFCF9" fill-opacity="0.7" style="mix-blend-mode:lighten"/>
<path d="M62.6761 27.3356H50.8858V31.2657H62.6761V35.1958H66.6062V39.126H70.5364V35.1958H66.6062V31.2657H62.6761V27.3356Z" fill="#FFFCF9" fill-opacity="0.7" style="mix-blend-mode:lighten"/>
<path d="M27.3051 58.7765H23.375V62.7066H27.3051V58.7765Z" fill="#FFFCF9" fill-opacity="0.7" style="mix-blend-mode:lighten"/>
<path d="M35.1653 90.2174H43.0256V94.1475H35.1653V90.2174Z" fill="#FFFCF9" fill-opacity="0.7" style="mix-blend-mode:lighten"/>
<path d="M35.1653 94.1475V98.0776H31.2352V94.1475H35.1653Z" fill="#FFFCF9" fill-opacity="0.7" style="mix-blend-mode:lighten"/>
<path d="M50.8858 103.973H46.9557V111.833H50.8858V103.973Z" fill="#FFFCF9" fill-opacity="0.7" style="mix-blend-mode:lighten"/>
<path d="M50.8858 103.973H54.8159V100.043H50.8858V103.973Z" fill="#FFFCF9" fill-opacity="0.7" style="mix-blend-mode:lighten"/>
<path d="M58.746 129.519H54.8159V133.449H58.746V129.519Z" fill="#FFFCF9" fill-opacity="0.7" style="mix-blend-mode:lighten"/>
<path fill-rule="evenodd" clip-rule="evenodd" d="M66.6067 15.5453H39.0959V19.4754H31.2357V23.4055H27.3055V27.3356H23.3754V58.7765H19.4453V70.5669H23.3754V74.497H27.3055V78.4271H31.2357V82.3572H35.1658V90.2174H31.2357V94.1475H27.3055V125.588H31.2357V129.519H35.1658V157.029H50.8862V145.239H54.8163V157.029H74.4669V153.099H70.5368V133.449H74.4669V125.588H78.397V121.658H82.3271V113.798H78.397V102.008H74.4669V94.1475H70.5368V90.2174H66.6067V86.2873H70.5368V82.3572H74.4669V78.4271H78.397V27.3356H74.4669V23.4055H70.5368V19.4754H66.6067V15.5453ZM66.6067 19.4754V23.4055H70.5368V27.3356H74.4669V78.4271H70.5368V82.3572H66.6067V86.2873H43.026V82.3572H35.1658V78.4271H31.2357V70.5669H23.3754V58.7765H27.3055V62.7066H31.2357V58.7765H27.3055V27.3356H31.2357V23.4055H39.0959V19.4754H66.6067ZM70.5368 102.008H66.6067V125.588H70.5368V133.449H66.6067V153.099H58.7464V133.449H54.8163V137.379H50.8862V145.239H46.9561V153.099H39.0959V129.519H46.9561V121.658H43.026V98.0777H39.0959V121.658H43.026V125.588H31.2357V94.1475H35.1658V90.2174H66.6067V94.1475H70.5368V102.008ZM70.5368 102.008V121.658H78.397V113.798H74.4669V102.008H70.5368Z" fill="black"/>
<path fill-rule="evenodd" clip-rule="evenodd" d="M66.7332 19.4837H39.1491V23.4221H35.2085H31.2679V78.5595H35.2085V82.4979L39.1491 82.4979H43.0897V86.4362H66.7332L66.7332 82.4979L70.6738 82.4979V78.5595H74.6144V27.3604H70.6738V23.4221H66.7332L66.7332 82.4979V19.4837ZM23.3867 58.8675H27.3273V27.3604H31.2679V70.6827L27.3273 70.6827H23.3867V58.8675Z" fill="#F3CCA7"/>
<path fill-rule="evenodd" clip-rule="evenodd" d="M47.0291 19.4837H66.7321V23.4221H70.6727L70.6727 27.3604H62.7915V23.4221H47.0291V19.4837ZM70.6727 27.3604H74.6133V58.8675H70.6727V27.3604ZM27.3262 27.3604H31.2668V58.8675H27.3262V27.3604ZM35.2074 78.5595H31.2668V66.7443H27.3262V62.8059H31.2668V58.8675H35.2074V78.5595ZM47.0291 82.4979V78.5595L35.2074 78.5595V82.4979H43.0885V86.4362H66.7321V82.4979H47.0291ZM31.2668 27.3604V23.4221H35.2074V27.3604H31.2668Z" fill="#714A1C" fill-opacity="0.25" style="mix-blend-mode:multiply"/>
<path fill-rule="evenodd" clip-rule="evenodd" d="M47.0303 27.3604H43.0897V31.2988H47.0303V27.3604ZM50.9709 27.3604H62.7926V31.2988H50.9709V27.3604ZM66.7332 35.2372V31.2988H62.7926V35.2372H66.7332ZM66.7332 35.2372L66.7332 39.1756H70.6738V35.2372H66.7332ZM23.3867 58.8675H27.3273V62.8059H23.3867V58.8675Z" fill="#FFFCF9" fill-opacity="0.7" style="mix-blend-mode:lighten"/>
<path fill-rule="evenodd" clip-rule="evenodd" d="M54.9116 54.9292H43.0898V58.8675H47.0304V66.7443H50.971V58.8675H54.9116V54.9292ZM54.9116 74.6211H62.7928V78.5595H54.9116V74.6211ZM54.9116 74.6211H50.971V70.6827H54.9116V74.6211ZM62.7928 54.9292H66.7334H70.674V58.8675H66.7334V66.7443H62.7928V54.9292Z" fill="black"/>
<path fill-rule="evenodd" clip-rule="evenodd" d="M58.8519 54.9292H54.9113V58.8675H50.9707V62.8059H54.9113V58.8675H58.8519V54.9292Z" fill="#714A1C" fill-opacity="0.25" style="mix-blend-mode:multiply"/>
<path fill-rule="evenodd" clip-rule="evenodd" d="M39.1483 15.5453H66.7324V19.4837H39.1483V15.5453ZM31.2671 23.4221V19.4837H39.1483V23.4221H31.2671ZM27.3265 27.3604V23.4221H31.2671V27.3604H27.3265ZM27.3265 58.8675V27.3604H23.3859V58.8675H19.4453V70.6827H23.3859V74.6211H27.3265V78.5595H31.2671V82.4979H35.2077V86.4362H43.0889V90.3746H66.7324V86.4362H70.673V82.4979H74.6136V78.5595H78.5542V27.3604H74.6136V23.4221H70.673V19.4837H66.7324V23.4221H70.673V27.3604H74.6136V78.5595H70.673V82.4979H66.7324V86.4362H43.0889V82.4979H35.2077V78.5595H31.2671L31.2671 74.6211V70.6827H23.3859V58.8675H27.3265ZM27.3265 58.8675V62.8059H31.2671V58.8675H27.3265Z" fill="black"/>
<path fill-rule="evenodd" clip-rule="evenodd" d="M43.571 16.3418H40.1621V19.6536H36.7533V22.9653H33.3444V26.2771H29.9356H26.5267V29.5889H23.1178H19.709V32.9007H23.1178V49.4595H26.5267V52.7713H29.9356L29.9356 56.0831H33.3444V62.7066H36.7533V49.4595H40.1621V42.836H43.571V39.5242H57.2064L67.433 39.5242V42.836H70.8418V46.1478H74.2507V36.2124H77.6595V32.9007H74.2507V29.5889H77.6595V26.2771H74.2507H70.8418V22.9653H67.433V19.6536H57.2064V16.3418H43.571Z" fill="black"/>
<path fill-rule="evenodd" clip-rule="evenodd" d="M33.3457 22.9653H36.7546V26.2771H40.1634V29.5889H43.5723V32.9007H50.39V36.2124H67.4343V39.5242H50.39H43.5723V42.836H40.1634V49.4595H36.7546V62.7066H33.3457V56.0831H29.9369V52.7713H26.528V49.4595H23.1191V39.5242H26.528V42.836H29.9369H33.3457V39.5242H36.7546V36.2124H40.1634V32.9007H36.7546V29.5889H33.3457V22.9653ZM74.252 36.2124H70.8431V39.5242H67.4343V42.836H70.8431V46.1478H74.252V36.2124ZM74.252 36.2124H77.6608V32.9007H74.252V36.2124ZM64.0254 29.5889H53.7988V32.9007H64.0254V29.5889ZM64.0254 29.5889H70.8431V26.2771H64.0254V29.5889Z" fill="black" fill-opacity="0.2" style="mix-blend-mode:multiply"/>
<path fill-rule="evenodd" clip-rule="evenodd" d="M43.5716 22.9653H53.7982V26.2771H43.5716V22.9653ZM33.3451 29.5889H29.9362V32.9007H26.5273V36.2124H29.9362V32.9007H33.3451V29.5889ZM60.6159 22.9653H57.207V26.2771H60.6159V22.9653Z" fill="white" fill-opacity="0.3" style="mix-blend-mode:lighten"/>
<path fill-rule="evenodd" clip-rule="evenodd" d="M40.1628 13.03H57.207V16.3418H40.1628V13.03ZM36.7539 19.6536V16.3418H40.1628V19.6536H36.7539ZM33.3451 22.9653V19.6536H36.7539V22.9653H33.3451ZM26.5273 26.2771V22.9653H33.3451V26.2771H26.5273ZM19.7096 29.5889V26.2771H26.5273V29.5889H19.7096ZM19.7096 32.9007H16.3008V29.5889H19.7096V32.9007ZM23.1185 49.4595H19.7096V32.9007H23.1185V49.4595ZM23.1185 49.4595H26.5273V56.0831H23.1185V49.4595ZM67.4336 19.6536H57.207V16.3418H67.4336V19.6536ZM70.8425 22.9653H67.4336V19.6536H70.8425V22.9653ZM77.6602 26.2771H70.8425V22.9653H77.6602V26.2771ZM77.6602 29.5889V26.2771H81.069V29.5889H77.6602ZM77.6602 32.9007H74.2513V29.5889H77.6602V32.9007ZM77.6602 36.2124H81.069V32.9007H77.6602V36.2124ZM77.6602 36.2124V49.4595H74.2513V36.2124H77.6602Z" fill="black"/>
<path fill-rule="evenodd" clip-rule="evenodd" d="M46.3444 62.5475H39.8477V69.1395H46.3444V62.5475ZM72.3314 62.5475H69.083V69.1395H72.3314V62.5475Z" fill="#E61A10"/>
<path fill-rule="evenodd" clip-rule="evenodd" d="M46.3444 62.5475H39.8477V65.8435H46.3444V62.5475ZM72.3314 62.5475H69.083V65.8435H72.3314V62.5475Z" fill="white" fill-opacity="0.3" style="mix-blend-mode:lighten"/>
<path fill-rule="evenodd" clip-rule="evenodd" d="M47.1159 126.698H39.2441V149.111H47.1159V145.375H51.0518V141.64H54.9877V130.433H58.9236L58.9236 149.111H66.7954V145.375H70.7313V126.698H66.7954H58.9236H54.9877H51.0518H47.1159Z" fill="black"/>
<path fill-rule="evenodd" clip-rule="evenodd" d="M39.2445 122.962H35.3086V156.582H39.2445H47.1163H51.0522V145.375H54.9881V156.582H58.924H66.7958H70.7317H74.6676V152.846H70.7317V145.375H74.6676V122.962H70.7317H39.2445ZM58.924 152.846H66.7958V145.375H70.7317V134.169H66.7958V130.433H70.7317V126.698H39.2445V130.433H43.1804V134.169H39.2445V152.846H47.1163V145.375H51.0522V141.64H54.9881V130.433H58.924V152.846Z" fill="black"/>
<path fill-rule="evenodd" clip-rule="evenodd" d="M39.2441 126.698H43.18V130.433H39.2441V126.698ZM39.2441 134.169H43.18V137.904H39.2441V134.169ZM47.1159 145.375H43.18V149.111H47.1159V145.375ZM51.0518 141.64H47.1159V145.375L51.0518 145.375V141.64ZM51.0518 141.64V130.433H54.9877V141.64L51.0518 141.64ZM70.7313 126.698H66.7954V130.433H70.7313V126.698ZM66.7954 134.169H70.7313V137.904H66.7954V134.169ZM62.8595 134.169H58.9236V149.111H62.8595L66.7954 149.111V141.64H62.8595V134.169Z" fill="black" fill-opacity="0.2" style="mix-blend-mode:multiply"/>
<path fill-rule="evenodd" clip-rule="evenodd" d="M47.1159 149.111H39.2441V152.846H47.1159V149.111ZM66.7954 149.111H58.9236V152.846H66.7954V149.111Z" fill="#BA6434"/>
<path fill-rule="evenodd" clip-rule="evenodd" d="M43.18 149.111H39.2441V152.846H43.18V149.111ZM62.8595 149.111H58.9236V152.846H62.8595V149.111Z" fill="black" fill-opacity="0.2" style="mix-blend-mode:multiply"/>
<path fill-rule="evenodd" clip-rule="evenodd" d="M58.9226 90.3526H50.9414V94.1371H58.9226V90.3526ZM78.8754 113.06H74.8848H70.8942V116.844H74.8848L74.8848 120.629H78.8754V113.06ZM30.9886 116.844H26.998V124.413H30.9886H34.9792V116.844H30.9886ZM38.9697 116.844H34.9792V120.629H38.9697V116.844Z" fill="#F3CCA7"/>
<path fill-rule="evenodd" clip-rule="evenodd" d="M50.9411 90.3526H58.9222V94.1371H50.9411V90.3526ZM70.8939 113.06H74.8845H78.875V120.629H74.8845V116.844H70.8939V113.06ZM34.9788 116.844H38.9694V120.629H34.9788V124.413H30.9883V116.844H34.9788Z" fill="#714A1C" fill-opacity="0.25" style="mix-blend-mode:multiply"/>
<rect x="50.9414" y="97.9216" width="7.98112" height="22.7071" fill="#8F00FF"/>
<path d="M54.9316 97.9216H58.9222V120.629H54.9316V97.9216Z" fill="black" fill-opacity="0.2" style="mix-blend-mode:multiply"/>
<path fill-rule="evenodd" clip-rule="evenodd" d="M42.96 86.568H38.9694L38.9694 90.3526H34.9788V94.1371H30.9883V113.06L34.9788 113.06H38.9694L38.9694 97.9216H42.96V86.568ZM38.9694 120.629H42.96V128.198H38.9694V120.629ZM46.9505 90.3526H42.96V128.198H46.9505V90.3526ZM58.9222 94.1371H62.9128L62.9128 90.3526H66.9034V94.1371H70.8939V101.706H66.9034V120.629H70.8939V128.198L66.9034 128.198H62.9128L62.9128 120.629H58.9222V94.1371ZM70.8939 101.706V109.275H74.8845V101.706H70.8939Z" fill="black"/>
<path fill-rule="evenodd" clip-rule="evenodd" d="M38.971 86.568H42.9616V90.3526H38.971V86.568ZM42.9616 94.1371V90.3526H46.9522V94.1371H42.9616ZM42.9616 94.1371V97.9216H38.971V94.1371H42.9616ZM62.9144 90.3526H66.905V94.1371H62.9144V90.3526ZM70.8955 101.706V94.1371H66.905V101.706H70.8955ZM70.8955 101.706V109.275H74.8861V101.706H70.8955ZM66.905 113.06H62.9144V128.198H66.905L70.8955 128.198V120.629H66.905L66.905 113.06ZM46.9522 120.629H38.971V128.198H46.9522V120.629ZM34.9805 105.491H38.971V113.06H34.9805V105.491Z" fill="black" fill-opacity="0.2" style="mix-blend-mode:multiply"/>
<path fill-rule="evenodd" clip-rule="evenodd" d="M42.9606 82.7835H38.9701V86.568H34.9795V90.3526H30.9889V94.1371H26.9984V116.844H23.0078V124.413H26.9984V128.198H34.9795H38.9701V131.982H46.9512V128.198H50.9418V124.413H58.9229V128.198H62.9134V94.1371V90.3526H66.904V94.1371H70.8946V101.706H66.904V120.629H70.8946V128.198H62.9134V131.982H70.8946V128.198H74.8851V124.413H78.8757V120.629H82.8663V113.06H78.8757V101.706H74.8851V94.1371H70.8946V90.3526H66.904V86.568H62.9134V90.3526H58.9229V94.1371H50.9418V90.3526H46.9512V86.568H42.9606V82.7835ZM42.9606 86.568V90.3526H46.9512V128.198L38.9701 128.198V120.629H42.9606V97.9216H38.9701V113.06H30.9889V94.1371H34.9795V90.3526H38.9701V86.568H42.9606ZM78.8757 113.06V120.629H74.8851V116.844H70.8946V113.06H74.8851H78.8757ZM74.8851 101.706H70.8946V109.275H74.8851V101.706ZM58.9229 120.629V97.9216H50.9418V120.629H58.9229ZM38.9701 120.629V116.844H30.9889H26.9984V124.413H34.9795L34.9795 120.629H38.9701Z" fill="black"/>
<path fill-rule="evenodd" clip-rule="evenodd" d="M47.1159 126.698H39.2441V149.111H47.1159V145.375H51.0518V141.64H54.9877V130.433H58.9236L58.9236 149.111H66.7954V145.375H70.7313V126.698H66.7954H58.9236H54.9877H51.0518H47.1159Z" fill="black"/>
<path fill-rule="evenodd" clip-rule="evenodd" d="M39.2445 122.962H35.3086V156.582H39.2445H47.1163H51.0522V145.375H54.9881V156.582H58.924H66.7958H70.7317H74.6676V152.846H70.7317V145.375H74.6676V122.962H70.7317H39.2445ZM58.924 152.846H66.7958V145.375H70.7317V134.169H66.7958V130.433H70.7317V126.698H39.2445V130.433H43.1804V134.169H39.2445V152.846H47.1163V145.375H51.0522V141.64H54.9881V130.433H58.924V152.846Z" fill="black"/>
<path fill-rule="evenodd" clip-rule="evenodd" d="M39.2441 126.698H43.18V130.433H39.2441V126.698ZM39.2441 134.169H43.18V137.904H39.2441V134.169ZM47.1159 145.375H43.18V149.111H47.1159V145.375ZM51.0518 141.64H47.1159V145.375L51.0518 145.375V141.64ZM51.0518 141.64V130.433H54.9877V141.64L51.0518 141.64ZM70.7313 126.698H66.7954V130.433H70.7313V126.698ZM66.7954 134.169H70.7313V137.904H66.7954V134.169ZM62.8595 134.169H58.9236V149.111H62.8595L66.7954 149.111V141.64H62.8595V134.169Z" fill="black" fill-opacity="0.2" style="mix-blend-mode:multiply"/>
<path fill-rule="evenodd" clip-rule="evenodd" d="M47.1159 149.111H39.2441V152.846H47.1159V149.111ZM66.7954 149.111H58.9236V152.846H66.7954V149.111Z" fill="white"/>
<path fill-rule="evenodd" clip-rule="evenodd" d="M43.18 149.111H39.2441V152.846H43.18V149.111ZM62.8595 149.111H58.9236V152.846H62.8595V149.111Z" fill="black" fill-opacity="0.2" style="mix-blend-mode:multiply"/>
<path d="M39.0954 19.4754H66.6062V23.4055H70.5363V27.3356H74.4665V78.4271H70.5363V82.3572H66.6062V86.2873H43.0256V82.3572H35.1653V78.4271H31.2352V70.5669H23.375V58.7765H27.3051V27.3356H31.2352V23.4055H39.0954V19.4754Z" fill="#F3CCA7"/>
<path fill-rule="evenodd" clip-rule="evenodd" d="M35.1653 90.2174H66.6062V94.1475H70.5363V102.008H66.6062V125.588H70.5363V133.449H66.6062V153.099H58.746V133.449H54.8159V141.309H50.8858V145.239H46.9557V153.099H39.0954V129.519H43.0256V125.588H31.2352V94.1475H35.1653V90.2174ZM39.0954 98.0776H43.0256V121.658H39.0954V98.0776Z" fill="#F3CCA7"/>
<path d="M70.5363 102.008H74.4665V113.798H78.3966V121.658H70.5363V102.008Z" fill="#F3CCA7"/>
<path d="M66.6058 19.4754H46.9552V23.4055H62.6757V27.3356H70.5359V58.7765H74.466V27.3356H70.5359V23.4055H66.6058V19.4754Z" fill="#714A1C" fill-opacity="0.25" style="mix-blend-mode:multiply"/>
<path d="M31.2348 27.3356H27.3047V43.0561H31.2348V27.3356Z" fill="#714A1C" fill-opacity="0.25" style="mix-blend-mode:multiply"/>
<path d="M27.3047 62.7066H31.2348V58.7765H35.1649V78.4271H31.2348V66.6367H27.3047V62.7066Z" fill="#714A1C" fill-opacity="0.25" style="mix-blend-mode:multiply"/>
<path d="M35.1649 78.4271H46.9552V82.3572H66.6058V86.2873H43.0251V82.3572H35.1649V78.4271Z" fill="#714A1C" fill-opacity="0.25" style="mix-blend-mode:multiply"/>
<path d="M70.5359 102.008H74.466V113.798H78.3962V121.658H70.5359V102.008Z" fill="#714A1C" fill-opacity="0.25" style="mix-blend-mode:multiply"/>
<path d="M70.5359 102.008H66.6058V98.0776H62.6757V94.1475H43.0251V90.2174H66.6058V94.1475H70.5359V102.008Z" fill="#714A1C" fill-opacity="0.25" style="mix-blend-mode:multiply"/>
<path d="M70.5359 125.588H66.6058V105.938H62.6757V125.588H66.6058V133.449H70.5359V125.588Z" fill="#714A1C" fill-opacity="0.25" style="mix-blend-mode:multiply"/>
<path d="M62.6757 137.379H66.6058V153.099H62.6757V137.379Z" fill="#714A1C" fill-opacity="0.25" style="mix-blend-mode:multiply"/>
<path d="M43.0251 129.519H39.095V153.099H46.9552V145.239H43.0251V129.519Z" fill="#714A1C" fill-opacity="0.25" style="mix-blend-mode:multiply"/>
<path d="M50.8854 133.449H54.8155V137.379H50.8854V133.449Z" fill="#714A1C" fill-opacity="0.25" style="mix-blend-mode:multiply"/>
<path d="M39.095 105.938H35.1649V117.728H31.2348V125.588H43.0251V121.658H39.095V105.938Z" fill="#714A1C" fill-opacity="0.25" style="mix-blend-mode:multiply"/>
<path d="M43.0256 27.3356H46.9557V31.2657H43.0256V27.3356Z" fill="#FFFCF9" fill-opacity="0.7" style="mix-blend-mode:lighten"/>
<path d="M62.6761 27.3356H50.8858V31.2657H62.6761V35.1958H66.6062V39.126H70.5364V35.1958H66.6062V31.2657H62.6761V27.3356Z" fill="#FFFCF9" fill-opacity="0.7" style="mix-blend-mode:lighten"/>
<path d="M27.3051 58.7765H23.375V62.7066H27.3051V58.7765Z" fill="#FFFCF9" fill-opacity="0.7" style="mix-blend-mode:lighten"/>
<path d="M35.1653 90.2174H43.0256V94.1475H35.1653V90.2174Z" fill="#FFFCF9" fill-opacity="0.7" style="mix-blend-mode:lighten"/>
<path d="M35.1653 94.1475V98.0776H31.2352V94.1475H35.1653Z" fill="#FFFCF9" fill-opacity="0.7" style="mix-blend-mode:lighten"/>
<path d="M50.8858 103.973H46.9557V111.833H50.8858V103.973Z" fill="#FFFCF9" fill-opacity="0.7" style="mix-blend-mode:lighten"/>
<path d="M50.8858 103.973H54.8159V100.043H50.8858V103.973Z" fill="#FFFCF9" fill-opacity="0.7" style="mix-blend-mode:lighten"/>
<path d="M58.746 129.519H54.8159V133.449H58.746V129.519Z" fill="#FFFCF9" fill-opacity="0.7" style="mix-blend-mode:lighten"/>
<path fill-rule="evenodd" clip-rule="evenodd" d="M66.6067 15.5453H39.0959V19.4754H31.2357V23.4055H27.3055V27.3356H23.3754V58.7765H19.4453V70.5669H23.3754V74.497H27.3055V78.4271H31.2357V82.3572H35.1658V90.2174H31.2357V94.1475H27.3055V125.588H31.2357V129.519H35.1658V157.029H50.8862V145.239H54.8163V157.029H74.4669V153.099H70.5368V133.449H74.4669V125.588H78.397V121.658H82.3271V113.798H78.397V102.008H74.4669V94.1475H70.5368V90.2174H66.6067V86.2873H70.5368V82.3572H74.4669V78.4271H78.397V27.3356H74.4669V23.4055H70.5368V19.4754H66.6067V15.5453ZM66.6067 19.4754V23.4055H70.5368V27.3356H74.4669V78.4271H70.5368V82.3572H66.6067V86.2873H43.026V82.3572H35.1658V78.4271H31.2357V70.5669H23.3754V58.7765H27.3055V62.7066H31.2357V58.7765H27.3055V27.3356H31.2357V23.4055H39.0959V19.4754H66.6067ZM70.5368 102.008H66.6067V125.588H70.5368V133.449H66.6067V153.099H58.7464V133.449H54.8163V137.379H50.8862V145.239H46.9561V153.099H39.0959V129.519H46.9561V121.658H43.026V98.0777H39.0959V121.658H43.026V125.588H31.2357V94.1475H35.1658V90.2174H66.6067V94.1475H70.5368V102.008ZM70.5368 102.008V121.658H78.397V113.798H74.4669V102.008H70.5368Z" fill="black"/>
<path fill-rule="evenodd" clip-rule="evenodd" d="M66.7332 19.4837H39.1491V23.4221H35.2085H31.2679V78.5595H35.2085V82.4979L39.1491 82.4979H43.0897V86.4362H66.7332L66.7332 82.4979L70.6738 82.4979V78.5595H74.6144V27.3604H70.6738V23.4221H66.7332L66.7332 82.4979V19.4837ZM23.3867 58.8675H27.3273V27.3604H31.2679V70.6827L27.3273 70.6827H23.3867V58.8675Z" fill="#F3CCA7"/>
<path fill-rule="evenodd" clip-rule="evenodd" d="M47.0291 19.4837H66.7321V23.4221H70.6727L70.6727 27.3604H62.7915V23.4221H47.0291V19.4837ZM70.6727 27.3604H74.6133V58.8675H70.6727V27.3604ZM27.3262 27.3604H31.2668V58.8675H27.3262V27.3604ZM35.2074 78.5595H31.2668V66.7443H27.3262V62.8059H31.2668V58.8675H35.2074V78.5595ZM47.0291 82.4979V78.5595L35.2074 78.5595V82.4979H43.0885V86.4362H66.7321V82.4979H47.0291ZM31.2668 27.3604V23.4221H35.2074V27.3604H31.2668Z" fill="#714A1C" fill-opacity="0.25" style="mix-blend-mode:multiply"/>
<path fill-rule="evenodd" clip-rule="evenodd" d="M47.0303 27.3604H43.0897V31.2988H47.0303V27.3604ZM50.9709 27.3604H62.7926V31.2988H50.9709V27.3604ZM66.7332 35.2372V31.2988H62.7926V35.2372H66.7332ZM66.7332 35.2372L66.7332 39.1756H70.6738V35.2372H66.7332ZM23.3867 58.8675H27.3273V62.8059H23.3867V58.8675Z" fill="#FFFCF9" fill-opacity="0.7" style="mix-blend-mode:lighten"/>
<path fill-rule="evenodd" clip-rule="evenodd" d="M54.9116 54.9292H43.0898V58.8675H47.0304V66.7443H50.971V58.8675H54.9116V54.9292ZM54.9116 74.6211H62.7928V78.5595H54.9116V74.6211ZM54.9116 74.6211H50.971V70.6827H54.9116V74.6211ZM62.7928 54.9292H66.7334H70.674V58.8675H66.7334V66.7443H62.7928V54.9292Z" fill="black"/>
<path fill-rule="evenodd" clip-rule="evenodd" d="M58.8519 54.9292H54.9113V58.8675H50.9707V62.8059H54.9113V58.8675H58.8519V54.9292Z" fill="#714A1C" fill-opacity="0.25" style="mix-blend-mode:multiply"/>
<path fill-rule="evenodd" clip-rule="evenodd" d="M39.1483 15.5453H66.7324V19.4837H39.1483V15.5453ZM31.2671 23.4221V19.4837H39.1483V23.4221H31.2671ZM27.3265 27.3604V23.4221H31.2671V27.3604H27.3265ZM27.3265 58.8675V27.3604H23.3859V58.8675H19.4453V70.6827H23.3859V74.6211H27.3265V78.5595H31.2671V82.4979H35.2077V86.4362H43.0889V90.3746H66.7324V86.4362H70.673V82.4979H74.6136V78.5595H78.5542V27.3604H74.6136V23.4221H70.673V19.4837H66.7324V23.4221H70.673V27.3604H74.6136V78.5595H70.673V82.4979H66.7324V86.4362H43.0889V82.4979H35.2077V78.5595H31.2671L31.2671 74.6211V70.6827H23.3859V58.8675H27.3265ZM27.3265 58.8675V62.8059H31.2671V58.8675H27.3265Z" fill="black"/>
<path fill-rule="evenodd" clip-rule="evenodd" d="M43.571 16.3418H40.1621V19.6536H36.7533V22.9653H33.3444V26.2771H29.9356H26.5267V29.5889H23.1178H19.709V32.9007H23.1178V49.4595H26.5267V52.7713H29.9356L29.9356 56.0831H33.3444V62.7066H36.7533V49.4595H40.1621V42.836H43.571V39.5242H57.2064L67.433 39.5242V42.836H70.8418V46.1478H74.2507V36.2124H77.6595V32.9007H74.2507V29.5889H77.6595V26.2771H74.2507H70.8418V22.9653H67.433V19.6536H57.2064V16.3418H43.571Z" fill="black"/>
<path fill-rule="evenodd" clip-rule="evenodd" d="M33.3457 22.9653H36.7546V26.2771H40.1634V29.5889H43.5723V32.9007H50.39V36.2124H67.4343V39.5242H50.39H43.5723V42.836H40.1634V49.4595H36.7546V62.7066H33.3457V56.0831H29.9369V52.7713H26.528V49.4595H23.1191V39.5242H26.528V42.836H29.9369H33.3457V39.5242H36.7546V36.2124H40.1634V32.9007H36.7546V29.5889H33.3457V22.9653ZM74.252 36.2124H70.8431V39.5242H67.4343V42.836H70.8431V46.1478H74.252V36.2124ZM74.252 36.2124H77.6608V32.9007H74.252V36.2124ZM64.0254 29.5889H53.7988V32.9007H64.0254V29.5889ZM64.0254 29.5889H70.8431V26.2771H64.0254V29.5889Z" fill="black" fill-opacity="0.2" style="mix-blend-mode:multiply"/>
<path fill-rule="evenodd" clip-rule="evenodd" d="M43.5716 22.9653H53.7982V26.2771H43.5716V22.9653ZM33.3451 29.5889H29.9362V32.9007H26.5273V36.2124H29.9362V32.9007H33.3451V29.5889ZM60.6159 22.9653H57.207V26.2771H60.6159V22.9653Z" fill="white" fill-opacity="0.3" style="mix-blend-mode:lighten"/>
<path fill-rule="evenodd" clip-rule="evenodd" d="M40.1628 13.03H57.207V16.3418H40.1628V13.03ZM36.7539 19.6536V16.3418H40.1628V19.6536H36.7539ZM33.3451 22.9653V19.6536H36.7539V22.9653H33.3451ZM26.5273 26.2771V22.9653H33.3451V26.2771H26.5273ZM19.7096 29.5889V26.2771H26.5273V29.5889H19.7096ZM19.7096 32.9007H16.3008V29.5889H19.7096V32.9007ZM23.1185 49.4595H19.7096V32.9007H23.1185V49.4595ZM23.1185 49.4595H26.5273V56.0831H23.1185V49.4595ZM67.4336 19.6536H57.207V16.3418H67.4336V19.6536ZM70.8425 22.9653H67.4336V19.6536H70.8425V22.9653ZM77.6602 26.2771H70.8425V22.9653H77.6602V26.2771ZM77.6602 29.5889V26.2771H81.069V29.5889H77.6602ZM77.6602 32.9007H74.2513V29.5889H77.6602V32.9007ZM77.6602 36.2124H81.069V32.9007H77.6602V36.2124ZM77.6602 36.2124V49.4595H74.2513V36.2124H77.6602Z" fill="black"/>
<path fill-rule="evenodd" clip-rule="evenodd" d="M46.3444 62.5475H39.8477V69.1395H46.3444V62.5475ZM72.3314 62.5475H69.083V69.1395H72.3314V62.5475Z" fill="#E61A10"/>
<path fill-rule="evenodd" clip-rule="evenodd" d="M46.3444 62.5475H39.8477V65.8435H46.3444V62.5475ZM72.3314 62.5475H69.083V65.8435H72.3314V62.5475Z" fill="white" fill-opacity="0.3" style="mix-blend-mode:lighten"/>
<path fill-rule="evenodd" clip-rule="evenodd" d="M47.1159 126.698H39.2441V149.111H47.1159V145.375H51.0518V141.64H54.9877V130.433H58.9236L58.9236 149.111H66.7954V145.375H70.7313V126.698H66.7954H58.9236H54.9877H51.0518H47.1159Z" fill="black"/>
<path fill-rule="evenodd" clip-rule="evenodd" d="M39.2445 122.962H35.3086V156.582H39.2445H47.1163H51.0522V145.375H54.9881V156.582H58.924H66.7958H70.7317H74.6676V152.846H70.7317V145.375H74.6676V122.962H70.7317H39.2445ZM58.924 152.846H66.7958V145.375H70.7317V134.169H66.7958V130.433H70.7317V126.698H39.2445V130.433H43.1804V134.169H39.2445V152.846H47.1163V145.375H51.0522V141.64H54.9881V130.433H58.924V152.846Z" fill="black"/>
<path fill-rule="evenodd" clip-rule="evenodd" d="M39.2441 126.698H43.18V130.433H39.2441V126.698ZM39.2441 134.169H43.18V137.904H39.2441V134.169ZM47.1159 145.375H43.18V149.111H47.1159V145.375ZM51.0518 141.64H47.1159V145.375L51.0518 145.375V141.64ZM51.0518 141.64V130.433H54.9877V141.64L51.0518 141.64ZM70.7313 126.698H66.7954V130.433H70.7313V126.698ZM66.7954 134.169H70.7313V137.904H66.7954V134.169ZM62.8595 134.169H58.9236V149.111H62.8595L66.7954 149.111V141.64H62.8595V134.169Z" fill="black" fill-opacity="0.2" style="mix-blend-mode:multiply"/>
<path fill-rule="evenodd" clip-rule="evenodd" d="M47.1159 149.111H39.2441V152.846H47.1159V149.111ZM66.7954 149.111H58.9236V152.846H66.7954V149.111Z" fill="#BA6434"/>
<path fill-rule="evenodd" clip-rule="evenodd" d="M43.18 149.111H39.2441V152.846H43.18V149.111ZM62.8595 149.111H58.9236V152.846H62.8595V149.111Z" fill="black" fill-opacity="0.2" style="mix-blend-mode:multiply"/>
<path d="M39.0954 19.4754H66.6062V23.4055H70.5363V27.3356H74.4665V78.4271H70.5363V82.3572H66.6062V86.2873H43.0256V82.3572H35.1653V78.4271H31.2352V70.5669H23.375V58.7765H27.3051V27.3356H31.2352V23.4055H39.0954V19.4754Z" fill="#F3CCA7"/>
<path fill-rule="evenodd" clip-rule="evenodd" d="M35.1653 90.2174H66.6062V94.1475H70.5363V102.008H66.6062V125.588H70.5363V133.449H66.6062V153.099H58.746V133.449H54.8159V141.309H50.8858V145.239H46.9557V153.099H39.0954V129.519H43.0256V125.588H31.2352V94.1475H35.1653V90.2174ZM39.0954 98.0776H43.0256V121.658H39.0954V98.0776Z" fill="#F3CCA7"/>
<path d="M70.5363 102.008H74.4665V113.798H78.3966V121.658H70.5363V102.008Z" fill="#F3CCA7"/>
<path d="M66.6058 19.4754H46.9552V23.4055H62.6757V27.3356H70.5359V58.7765H74.466V27.3356H70.5359V23.4055H66.6058V19.4754Z" fill="#714A1C" fill-opacity="0.25" style="mix-blend-mode:multiply"/>
<path d="M31.2348 27.3356H27.3047V43.0561H31.2348V27.3356Z" fill="#714A1C" fill-opacity="0.25" style="mix-blend-mode:multiply"/>
<path d="M27.3047 62.7066H31.2348V58.7765H35.1649V78.4271H31.2348V66.6367H27.3047V62.7066Z" fill="#714A1C" fill-opacity="0.25" style="mix-blend-mode:multiply"/>
<path d="M35.1649 78.4271H46.9552V82.3572H66.6058V86.2873H43.0251V82.3572H35.1649V78.4271Z" fill="#714A1C" fill-opacity="0.25" style="mix-blend-mode:multiply"/>
<path d="M70.5359 102.008H74.466V113.798H78.3962V121.658H70.5359V102.008Z" fill="#714A1C" fill-opacity="0.25" style="mix-blend-mode:multiply"/>
<path d="M70.5359 102.008H66.6058V98.0776H62.6757V94.1475H43.0251V90.2174H66.6058V94.1475H70.5359V102.008Z" fill="#714A1C" fill-opacity="0.25" style="mix-blend-mode:multiply"/>
<path d="M70.5359 125.588H66.6058V105.938H62.6757V125.588H66.6058V133.449H70.5359V125.588Z" fill="#714A1C" fill-opacity="0.25" style="mix-blend-mode:multiply"/>
<path d="M62.6757 137.379H66.6058V153.099H62.6757V137.379Z" fill="#714A1C" fill-opacity="0.25" style="mix-blend-mode:multiply"/>
<path d="M43.0251 129.519H39.095V153.099H46.9552V145.239H43.0251V129.519Z" fill="#714A1C" fill-opacity="0.25" style="mix-blend-mode:multiply"/>
<path d="M50.8854 133.449H54.8155V137.379H50.8854V133.449Z" fill="#714A1C" fill-opacity="0.25" style="mix-blend-mode:multiply"/>
<path d="M39.095 105.938H35.1649V117.728H31.2348V125.588H43.0251V121.658H39.095V105.938Z" fill="#714A1C" fill-opacity="0.25" style="mix-blend-mode:multiply"/>
<path d="M43.0256 27.3356H46.9557V31.2657H43.0256V27.3356Z" fill="#FFFCF9" fill-opacity="0.7" style="mix-blend-mode:lighten"/>
<path d="M62.6761 27.3356H50.8858V31.2657H62.6761V35.1958H66.6062V39.126H70.5364V35.1958H66.6062V31.2657H62.6761V27.3356Z" fill="#FFFCF9" fill-opacity="0.7" style="mix-blend-mode:lighten"/>
<path d="M27.3051 58.7765H23.375V62.7066H27.3051V58.7765Z" fill="#FFFCF9" fill-opacity="0.7" style="mix-blend-mode:lighten"/>
<path d="M35.1653 90.2174H43.0256V94.1475H35.1653V90.2174Z" fill="#FFFCF9" fill-opacity="0.7" style="mix-blend-mode:lighten"/>
<path d="M35.1653 94.1475V98.0776H31.2352V94.1475H35.1653Z" fill="#FFFCF9" fill-opacity="0.7" style="mix-blend-mode:lighten"/>
<path d="M50.8858 103.973H46.9557V111.833H50.8858V103.973Z" fill="#FFFCF9" fill-opacity="0.7" style="mix-blend-mode:lighten"/>
<path d="M50.8858 103.973H54.8159V100.043H50.8858V103.973Z" fill="#FFFCF9" fill-opacity="0.7" style="mix-blend-mode:lighten"/>
<path d="M58.746 129.519H54.8159V133.449H58.746V129.519Z" fill="#FFFCF9" fill-opacity="0.7" style="mix-blend-mode:lighten"/>
<path fill-rule="evenodd" clip-rule="evenodd" d="M66.6067 15.5453H39.0959V19.4754H31.2357V23.4055H27.3055V27.3356H23.3754V58.7765H19.4453V70.5669H23.3754V74.497H27.3055V78.4271H31.2357V82.3572H35.1658V90.2174H31.2357V94.1475H27.3055V125.588H31.2357V129.519H35.1658V157.029H50.8862V145.239H54.8163V157.029H74.4669V153.099H70.5368V133.449H74.4669V125.588H78.397V121.658H82.3271V113.798H78.397V102.008H74.4669V94.1475H70.5368V90.2174H66.6067V86.2873H70.5368V82.3572H74.4669V78.4271H78.397V27.3356H74.4669V23.4055H70.5368V19.4754H66.6067V15.5453ZM66.6067 19.4754V23.4055H70.5368V27.3356H74.4669V78.4271H70.5368V82.3572H66.6067V86.2873H43.026V82.3572H35.1658V78.4271H31.2357V70.5669H23.3754V58.7765H27.3055V62.7066H31.2357V58.7765H27.3055V27.3356H31.2357V23.4055H39.0959V19.4754H66.6067ZM70.5368 102.008H66.6067V125.588H70.5368V133.449H66.6067V153.099H58.7464V133.449H54.8163V137.379H50.8862V145.239H46.9561V153.099H39.0959V129.519H46.9561V121.658H43.026V98.0777H39.0959V121.658H43.026V125.588H31.2357V94.1475H35.1658V90.2174H66.6067V94.1475H70.5368V102.008ZM70.5368 102.008V121.658H78.397V113.798H74.4669V102.008H70.5368Z" fill="black"/>
<path fill-rule="evenodd" clip-rule="evenodd" d="M66.7332 19.4837H39.1491V23.4221H35.2085H31.2679V78.5595H35.2085V82.4979L39.1491 82.4979H43.0897V86.4362H66.7332L66.7332 82.4979L70.6738 82.4979V78.5595H74.6144V27.3604H70.6738V23.4221H66.7332L66.7332 82.4979V19.4837ZM23.3867 58.8675H27.3273V27.3604H31.2679V70.6827L27.3273 70.6827H23.3867V58.8675Z" fill="#F3CCA7"/>
<path fill-rule="evenodd" clip-rule="evenodd" d="M47.0291 19.4837H66.7321V23.4221H70.6727L70.6727 27.3604H62.7915V23.4221H47.0291V19.4837ZM70.6727 27.3604H74.6133V58.8675H70.6727V27.3604ZM27.3262 27.3604H31.2668V58.8675H27.3262V27.3604ZM35.2074 78.5595H31.2668V66.7443H27.3262V62.8059H31.2668V58.8675H35.2074V78.5595ZM47.0291 82.4979V78.5595L35.2074 78.5595V82.4979H43.0885V86.4362H66.7321V82.4979H47.0291ZM31.2668 27.3604V23.4221H35.2074V27.3604H31.2668Z" fill="#714A1C" fill-opacity="0.25" style="mix-blend-mode:multiply"/>
<path fill-rule="evenodd" clip-rule="evenodd" d="M47.0303 27.3604H43.0897V31.2988H47.0303V27.3604ZM50.9709 27.3604H62.7926V31.2988H50.9709V27.3604ZM66.7332 35.2372V31.2988H62.7926V35.2372H66.7332ZM66.7332 35.2372L66.7332 39.1756H70.6738V35.2372H66.7332ZM23.3867 58.8675H27.3273V62.8059H23.3867V58.8675Z" fill="#FFFCF9" fill-opacity="0.7" style="mix-blend-mode:lighten"/>
<path fill-rule="evenodd" clip-rule="evenodd" d="M54.9116 54.9292H43.0898V58.8675H47.0304V66.7443H50.971V58.8675H54.9116V54.9292ZM54.9116 74.6211H62.7928V78.5595H54.9116V74.6211ZM54.9116 74.6211H50.971V70.6827H54.9116V74.6211ZM62.7928 54.9292H66.7334H70.674V58.8675H66.7334V66.7443H62.7928V54.9292Z" fill="black"/>
<path fill-rule="evenodd" clip-rule="evenodd" d="M58.8519 54.9292H54.9113V58.8675H50.9707V62.8059H54.9113V58.8675H58.8519V54.9292Z" fill="#714A1C" fill-opacity="0.25" style="mix-blend-mode:multiply"/>
<path fill-rule="evenodd" clip-rule="evenodd" d="M39.1483 15.5453H66.7324V19.4837H39.1483V15.5453ZM31.2671 23.4221V19.4837H39.1483V23.4221H31.2671ZM27.3265 27.3604V23.4221H31.2671V27.3604H27.3265ZM27.3265 58.8675V27.3604H23.3859V58.8675H19.4453V70.6827H23.3859V74.6211H27.3265V78.5595H31.2671V82.4979H35.2077V86.4362H43.0889V90.3746H66.7324V86.4362H70.673V82.4979H74.6136V78.5595H78.5542V27.3604H74.6136V23.4221H70.673V19.4837H66.7324V23.4221H70.673V27.3604H74.6136V78.5595H70.673V82.4979H66.7324V86.4362H43.0889V82.4979H35.2077V78.5595H31.2671L31.2671 74.6211V70.6827H23.3859V58.8675H27.3265ZM27.3265 58.8675V62.8059H31.2671V58.8675H27.3265Z" fill="black"/>
<path fill-rule="evenodd" clip-rule="evenodd" d="M43.571 16.3418H40.1621V19.6536H36.7533V22.9653H33.3444V26.2771H29.9356H26.5267V29.5889H23.1178H19.709V32.9007H23.1178V49.4595H26.5267V52.7713H29.9356L29.9356 56.0831H33.3444V62.7066H36.7533V49.4595H40.1621V42.836H43.571V39.5242H57.2064L67.433 39.5242V42.836H70.8418V46.1478H74.2507V36.2124H77.6595V32.9007H74.2507V29.5889H77.6595V26.2771H74.2507H70.8418V22.9653H67.433V19.6536H57.2064V16.3418H43.571Z" fill="black"/>
<path fill-rule="evenodd" clip-rule="evenodd" d="M33.3457 22.9653H36.7546V26.2771H40.1634V29.5889H43.5723V32.9007H50.39V36.2124H67.4343V39.5242H50.39H43.5723V42.836H40.1634V49.4595H36.7546V62.7066H33.3457V56.0831H29.9369V52.7713H26.528V49.4595H23.1191V39.5242H26.528V42.836H29.9369H33.3457V39.5242H36.7546V36.2124H40.1634V32.9007H36.7546V29.5889H33.3457V22.9653ZM74.252 36.2124H70.8431V39.5242H67.4343V42.836H70.8431V46.1478H74.252V36.2124ZM74.252 36.2124H77.6608V32.9007H74.252V36.2124ZM64.0254 29.5889H53.7988V32.9007H64.0254V29.5889ZM64.0254 29.5889H70.8431V26.2771H64.0254V29.5889Z" fill="black" fill-opacity="0.2" style="mix-blend-mode:multiply"/>
<path fill-rule="evenodd" clip-rule="evenodd" d="M43.5716 22.9653H53.7982V26.2771H43.5716V22.9653ZM33.3451 29.5889H29.9362V32.9007H26.5273V36.2124H29.9362V32.9007H33.3451V29.5889ZM60.6159 22.9653H57.207V26.2771H60.6159V22.9653Z" fill="white" fill-opacity="0.3" style="mix-blend-mode:lighten"/>
<path fill-rule="evenodd" clip-rule="evenodd" d="M40.1628 13.03H57.207V16.3418H40.1628V13.03ZM36.7539 19.6536V16.3418H40.1628V19.6536H36.7539ZM33.3451 22.9653V19.6536H36.7539V22.9653H33.3451ZM26.5273 26.2771V22.9653H33.3451V26.2771H26.5273ZM19.7096 29.5889V26.2771H26.5273V29.5889H19.7096ZM19.7096 32.9007H16.3008V29.5889H19.7096V32.9007ZM23.1185 49.4595H19.7096V32.9007H23.1185V49.4595ZM23.1185 49.4595H26.5273V56.0831H23.1185V49.4595ZM67.4336 19.6536H57.207V16.3418H67.4336V19.6536ZM70.8425 22.9653H67.4336V19.6536H70.8425V22.9653ZM77.6602 26.2771H70.8425V22.9653H77.6602V26.2771ZM77.6602 29.5889V26.2771H81.069V29.5889H77.6602ZM77.6602 32.9007H74.2513V29.5889H77.6602V32.9007ZM77.6602 36.2124H81.069V32.9007H77.6602V36.2124ZM77.6602 36.2124V49.4595H74.2513V36.2124H77.6602Z" fill="black"/>
<path fill-rule="evenodd" clip-rule="evenodd" d="M58.9226 90.3526H50.9414V94.1371H58.9226V90.3526ZM78.8754 113.06H74.8848H70.8942V116.844H74.8848L74.8848 120.629H78.8754V113.06ZM30.9886 116.844H26.998V124.413H30.9886H34.9792V116.844H30.9886ZM38.9697 116.844H34.9792V120.629H38.9697V116.844Z" fill="#F3CCA7"/>
<path fill-rule="evenodd" clip-rule="evenodd" d="M50.9411 90.3526H58.9222V94.1371H50.9411V90.3526ZM70.8939 113.06H74.8845H78.875V120.629H74.8845V116.844H70.8939V113.06ZM34.9788 116.844H38.9694V120.629H34.9788V124.413H30.9883V116.844H34.9788Z" fill="#714A1C" fill-opacity="0.25" style="mix-blend-mode:multiply"/>
<rect x="50.9414" y="97.9216" width="7.98112" height="22.7071" fill="#8F00FF"/>
<path d="M54.9316 97.9216H58.9222V120.629H54.9316V97.9216Z" fill="black" fill-opacity="0.2" style="mix-blend-mode:multiply"/>
<path fill-rule="evenodd" clip-rule="evenodd" d="M42.96 86.5681H38.9694L38.9694 90.3526H34.9788V94.1371H30.9883V113.06L34.9788 113.06H38.9694L38.9694 97.9216H42.96V86.5681ZM38.9694 120.629H42.96V128.198H38.9694V120.629ZM46.9505 90.3526H42.96V128.198H46.9505V90.3526ZM58.9222 94.1371H62.9128L62.9128 90.3526H66.9034V94.1371H70.8939V101.706H66.9034V120.629H70.8939V128.198L66.9034 128.198H62.9128L62.9128 120.629H58.9222V94.1371ZM70.8939 101.706V109.275H74.8845V101.706H70.8939Z" fill="black"/>
<path fill-rule="evenodd" clip-rule="evenodd" d="M38.971 86.5681H42.9616V90.3526H38.971V86.5681ZM42.9616 94.1371V90.3526H46.9522V94.1371H42.9616ZM42.9616 94.1371V97.9216H38.971V94.1371H42.9616ZM62.9144 90.3526H66.905V94.1371H62.9144V90.3526ZM70.8955 101.706V94.1371H66.905V101.706H70.8955ZM70.8955 101.706V109.275H74.8861V101.706H70.8955ZM66.905 113.06H62.9144V128.198H66.905L70.8955 128.198V120.629H66.905L66.905 113.06ZM46.9522 120.629H38.971V128.198H46.9522V120.629ZM34.9805 105.491H38.971V113.06H34.9805V105.491Z" fill="black" fill-opacity="0.2" style="mix-blend-mode:multiply"/>
<path fill-rule="evenodd" clip-rule="evenodd" d="M42.9606 82.7835H38.9701V86.5681H34.9795V90.3526H30.9889V94.1371H26.9984V116.844H23.0078V124.413H26.9984V128.198H34.9795H38.9701V131.982H46.9512V128.198H50.9418V124.413H58.9229V128.198H62.9134V94.1371V90.3526H66.904V94.1371H70.8946V101.706H66.904V120.629H70.8946V128.198H62.9134V131.982H70.8946V128.198H74.8851V124.413H78.8757V120.629H82.8663V113.06H78.8757V101.706H74.8851V94.1371H70.8946V90.3526H66.904V86.5681H62.9134V90.3526H58.9229V94.1371H50.9418V90.3526H46.9512V86.5681H42.9606V82.7835ZM42.9606 86.5681V90.3526H46.9512V128.198L38.9701 128.198V120.629H42.9606V97.9216H38.9701V113.06H30.9889V94.1371H34.9795V90.3526H38.9701V86.5681H42.9606ZM78.8757 113.06V120.629H74.8851V116.844H70.8946V113.06H74.8851H78.8757ZM74.8851 101.706H70.8946V109.275H74.8851V101.706ZM58.9229 120.629V97.9216H50.9418V120.629H58.9229ZM38.9701 120.629V116.844H30.9889H26.9984V124.413H34.9795L34.9795 120.629H38.9701Z" fill="black"/>
<path fill-rule="evenodd" clip-rule="evenodd" d="M47.1159 126.698H39.2441V149.111H47.1159V145.375H51.0518V141.64H54.9877V130.433H58.9236L58.9236 149.111H66.7954V145.375H70.7313V126.698H66.7954H58.9236H54.9877H51.0518H47.1159Z" fill="black"/>
<path fill-rule="evenodd" clip-rule="evenodd" d="M39.2445 122.962H35.3086V156.582H39.2445H47.1163H51.0522V145.375H54.9881V156.582H58.924H66.7958H70.7317H74.6676V152.846H70.7317V145.375H74.6676V122.962H70.7317H39.2445ZM58.924 152.846H66.7958V145.375H70.7317V134.169H66.7958V130.433H70.7317V126.698H39.2445V130.433H43.1804V134.169H39.2445V152.846H47.1163V145.375H51.0522V141.64H54.9881V130.433H58.924V152.846Z" fill="black"/>
<path fill-rule="evenodd" clip-rule="evenodd" d="M39.2441 126.698H43.18V130.433H39.2441V126.698ZM39.2441 134.169H43.18V137.904H39.2441V134.169ZM47.1159 145.375H43.18V149.111H47.1159V145.375ZM51.0518 141.64H47.1159V145.375L51.0518 145.375V141.64ZM51.0518 141.64V130.433H54.9877V141.64L51.0518 141.64ZM70.7313 126.698H66.7954V130.433H70.7313V126.698ZM66.7954 134.169H70.7313V137.904H66.7954V134.169ZM62.8595 134.169H58.9236V149.111H62.8595L66.7954 149.111V141.64H62.8595V134.169Z" fill="black" fill-opacity="0.2" style="mix-blend-mode:multiply"/>
<path fill-rule="evenodd" clip-rule="evenodd" d="M47.1159 149.111H39.2441V152.846H47.1159V149.111ZM66.7954 149.111H58.9236V152.846H66.7954V149.111Z" fill="white"/>
<path fill-rule="evenodd" clip-rule="evenodd" d="M43.18 149.111H39.2441V152.846H43.18V149.111ZM62.8595 149.111H58.9236V152.846H62.8595V149.111Z" fill="black" fill-opacity="0.2" style="mix-blend-mode:multiply"/>
<path d="M49.5597 210.338H72.4928V213.614H75.7689V216.89H79.0451V259.479H75.7689V262.755H72.4928V266.032H52.8358V262.755H46.2835V259.479H43.0074V252.927H36.4551V243.099H39.7312V216.89H43.0074V213.614H49.5597V210.338Z" fill="#9C6F4B"/>
<path fill-rule="evenodd" clip-rule="evenodd" d="M46.2835 269.308H72.4928V272.584H75.7689V279.136H72.4928V298.793H75.7689V305.345H72.4928V321.725H65.9405V305.345H62.6643V311.897H59.3882V315.173H56.112V321.725H49.5597V302.069H52.8358V298.793H43.0074V272.584H46.2835V269.308ZM49.5597 275.86H52.8358V295.516H49.5597V275.86Z" fill="#9C6F4B"/>
<path d="M75.7689 279.136H79.0451V288.964H82.3212V295.516H75.7689V279.136Z" fill="#9C6F4B"/>
<path d="M72.494 210.338H56.1132V213.614H69.2178V216.89H75.7701V243.099H79.0463V216.89H75.7701V213.614H72.494V210.338Z" fill="#7E5333"/>
<path d="M43.0086 216.89H39.7324V229.994H43.0086V216.89Z" fill="#7E5333"/>
<path d="M39.7324 246.375H43.0086V243.099H46.2847V259.479H43.0086V249.651H39.7324V246.375Z" fill="#7E5333"/>
<path d="M46.2847 259.479H56.1132V262.755H72.494V266.032H52.837V262.755H46.2847V259.479Z" fill="#7E5333"/>
<path d="M75.7701 279.136H79.0463V288.964H82.3224V295.516H75.7701V279.136Z" fill="#7E5333"/>
<path d="M75.7701 279.136H72.494V275.86H69.2178V272.584H52.837V269.308H72.494V272.584H75.7701V279.136Z" fill="#7E5333"/>
<path d="M75.7701 298.793H72.494V282.412H69.2178V298.793H72.494V305.345H75.7701V298.793Z" fill="#7E5333"/>
<path d="M69.2178 308.621H72.494V321.725H69.2178V308.621Z" fill="#7E5333"/>
<path d="M52.837 302.069H49.5609V321.725H56.1132V315.173H52.837V302.069Z" fill="#7E5333"/>
<path d="M59.3893 305.345H62.6655V308.621H59.3893V305.345Z" fill="#7E5333"/>
<path d="M49.5609 282.412H46.2847V292.24H43.0086V298.793H52.837V295.516H49.5609V282.412Z" fill="#7E5333"/>
<path d="M52.8358 216.89H56.112V220.166H52.8358V216.89Z" fill="#D4B194"/>
<path d="M69.2166 216.89H59.3882V220.166H69.2166V223.442H72.4928V226.718H75.7689V223.442H72.4928V220.166H69.2166V216.89Z" fill="#D4B194"/>
<path d="M39.7312 243.099H36.4551V246.375H39.7312V243.099Z" fill="#D4B194"/>
<path d="M46.2835 269.307H52.8358V272.584H46.2835V269.307Z" fill="#D4B194"/>
<path d="M46.2835 272.584V275.86H43.0074V272.584H46.2835Z" fill="#D4B194"/>
<path d="M59.3882 280.774H56.112V287.326H59.3882V280.774Z" fill="#D4B194"/>
<path d="M59.3882 280.774H62.6643V277.498H59.3882V280.774Z" fill="#D4B194"/>
<path d="M65.9405 302.069H62.6643V305.345H65.9405V302.069Z" fill="#D4B194"/>
<path fill-rule="evenodd" clip-rule="evenodd" d="M72.4935 207.061H49.5605V210.338H43.0081V213.614H39.732V216.89H36.4558V243.099H33.1797V252.927H36.4558V256.203H39.732V259.479H43.0081V262.755H46.2843V269.307H43.0081V272.584H39.732V298.792H43.0081V302.069H46.2843V325.001H59.3889V315.173H62.6651V325.001H79.0458V321.725H75.7697V305.345H79.0458V298.792H82.322V295.516H85.5981V288.964H82.322V279.136H79.0458V272.584H75.7697V269.307H72.4935V266.031H75.7697V262.755H79.0458V259.479H82.322V216.89H79.0458V213.614H75.7697V210.338H72.4935V207.061ZM72.4935 210.338V213.614H75.7697V216.89H79.0458V259.479H75.7697V262.755H72.4935V266.031H52.8366V262.755H46.2843V259.479H43.0081V252.927H36.4558V243.099H39.732V246.375H43.0081V243.099H39.732V216.89H43.0081V213.614H49.5605V210.338H72.4935ZM75.7697 279.136H72.4935V298.792H75.7697V305.345H72.4935V321.725H65.9412V305.345H62.6651V308.621H59.3889V315.173H56.1128V321.725H49.5605V302.069H56.1128V295.516H52.8366V275.86H49.5605V295.516H52.8366V298.792H43.0081V272.584H46.2843V269.307H72.4935V272.584H75.7697V279.136ZM75.7697 279.136V295.516H82.322V288.964H79.0458V279.136H75.7697Z" fill="black"/>
<path fill-rule="evenodd" clip-rule="evenodd" d="M56.0109 300.399H49.4492V319.081H56.0109V315.968H59.2918V312.854H62.5726V303.512H65.8535V319.081H72.4152V315.968H75.696V300.399H72.4152H65.8535H62.5726H59.2918H56.0109Z" fill="black"/>
<path fill-rule="evenodd" clip-rule="evenodd" d="M49.4488 297.285H46.168V325.309H49.4488H56.0105H59.2914V315.968H62.5722V325.309H65.8531H72.4148H75.6956H78.9765V322.195H75.6956V315.968H78.9765V297.285H75.6956H49.4488ZM65.8531 322.195H72.4148V315.968H75.6956V306.626H72.4148V303.512H75.6956V300.399H49.4488V303.512H52.7297V306.626H49.4488V322.195H56.0105V315.968H59.2914V312.854H62.5722V303.512H65.8531V322.195Z" fill="black"/>
<path fill-rule="evenodd" clip-rule="evenodd" d="M49.4492 300.399H52.7301V303.512H49.4492V300.399ZM49.4492 306.626H52.7301V309.74H49.4492V306.626ZM56.0109 315.968H52.7301V319.081H56.0109V315.968ZM59.2918 312.854V315.968L56.0109 315.968V312.854H59.2918ZM59.2918 312.854V303.512H62.5726V312.854H59.2918ZM75.696 300.399H72.4152V303.512H75.696V300.399ZM72.4152 306.626H75.696V309.74H72.4152V306.626ZM69.1343 306.626H65.8535V319.081H69.1343L72.4152 319.081V312.854H69.1343V306.626Z" fill="black" fill-opacity="0.2" style="mix-blend-mode:multiply"/>
<path fill-rule="evenodd" clip-rule="evenodd" d="M56.0109 319.081H49.4492V322.195H56.0109V319.081ZM72.4152 319.081H65.8535V322.195H72.4152V319.081Z" fill="#BA6434"/>
<path fill-rule="evenodd" clip-rule="evenodd" d="M52.7301 319.081H49.4492V322.195H52.7301V319.081ZM69.1343 319.081H65.8535V322.195H69.1343V319.081Z" fill="black" fill-opacity="0.2" style="mix-blend-mode:multiply"/>
<path fill-rule="evenodd" clip-rule="evenodd" d="M66.5371 269.419H59.8843V272.573H66.5371V269.419ZM83.1692 288.347H79.8428L76.5164 288.347V291.501H79.8428L79.8428 294.656H83.1692V288.347ZM43.2522 291.501H39.9258V297.811H43.2522H46.5786V291.501H43.2522ZM49.905 291.501H46.5786V294.656H49.905V291.501Z" fill="#9C6F4B"/>
<path fill-rule="evenodd" clip-rule="evenodd" d="M59.8841 269.419H66.5369V272.573H59.8841V269.419ZM83.169 288.347H79.8426L76.5162 288.347V291.501H79.8426V294.656H83.169V288.347ZM46.5784 291.501H49.9048V294.656H46.5784V297.811H43.252V291.501H46.5784Z" fill="#714A1C" fill-opacity="0.25" style="mix-blend-mode:multiply"/>
<rect x="59.8848" y="275.728" width="6.65284" height="18.928" fill="white"/>
<path d="M63.2109 275.728H66.5374V294.656H63.2109V275.728Z" fill="black" fill-opacity="0.2" style="mix-blend-mode:multiply"/>
<path fill-rule="evenodd" clip-rule="evenodd" d="M53.2312 266.264H49.9048L49.9048 269.419H46.5784V272.573H43.252V288.347L46.5784 288.347H49.9048L49.9048 275.728H53.2312V266.264ZM49.9048 294.656H53.2312V300.965H49.9048V294.656ZM56.5576 269.419H53.2312V300.965H56.5576V269.419ZM66.5369 272.573H69.8633V269.419H73.1897L73.1897 272.573H76.5162V278.883H73.1897V294.656H76.5162V300.965H73.1897H69.8633V294.656H66.5369V272.573ZM76.5162 278.883V285.192H79.8426V278.883H76.5162Z" fill="black"/>
<path fill-rule="evenodd" clip-rule="evenodd" d="M49.9045 266.264H53.231V269.419H49.9045V266.264ZM53.231 272.573V269.419H56.5574V272.573H53.231ZM53.231 272.573V275.728H49.9045V272.573H53.231ZM69.8631 269.419H73.1895V272.573H69.8631V269.419ZM76.5159 278.883V272.573H73.1895V278.883H76.5159ZM76.5159 278.883L76.5159 285.192H79.8423V278.883H76.5159ZM73.1895 288.347H69.8631V300.965H73.1895H76.5159V294.656H73.1895L73.1895 288.347ZM56.5574 294.656H49.9045V300.965H56.5574V294.656ZM46.5781 282.037H49.9045V288.347H46.5781V282.037Z" fill="black" fill-opacity="0.2" style="mix-blend-mode:multiply"/>
<path fill-rule="evenodd" clip-rule="evenodd" d="M53.2317 263.109H49.9053V266.264H46.5789V269.419H43.2524V272.573H39.926V291.501H36.5996V297.811H39.926V300.965H46.5789H49.9053V304.12H56.5581V300.965H59.8846V297.811H66.5374V300.965H69.8638V272.573V269.419H73.1902V272.573H76.5167V278.883H73.1902V294.656H76.5167V300.965H69.8638V304.12H76.5167V300.965H79.8431V297.811H83.1695V294.656H86.4959V288.347H83.1695V278.883H79.8431V272.573H76.5167V269.419H73.1902V266.264H69.8638V269.419H66.5374V272.573H59.8846V269.419H56.5581V266.264H53.2317V263.109ZM53.2317 266.264V269.419H56.5581V300.965H49.9053V294.656H53.2317V275.728H49.9053V288.347H43.2524V272.573H46.5789V269.419H49.9053V266.264H53.2317ZM83.1695 288.347V294.656H79.8431V291.501H76.5167V288.347H79.8431H83.1695ZM79.8431 278.883H76.5167V285.192H79.8431V278.883ZM66.5374 294.656V275.728H59.8846V294.656H66.5374ZM49.9053 294.656V291.501H43.2524H39.926V297.811H46.5789L46.5789 294.656H49.9053Z" fill="black"/>
<path fill-rule="evenodd" clip-rule="evenodd" d="M73.1004 210.371H49.8154V213.681H46.489H43.1626V260.016H46.489V263.325L49.8154 263.325L53.1419 263.325V266.635H73.1004L73.1004 263.325L76.4268 263.325V260.016H79.7532V216.99H76.4268V213.681H73.1004V210.371ZM36.5098 243.467H39.8362V216.99H43.1626V253.396H39.8362H36.5098V243.467Z" fill="#9C6F4B"/>
<path fill-rule="evenodd" clip-rule="evenodd" d="M56.468 210.371H73.1002V213.681H76.4266L76.4266 216.99H69.7737V213.681H56.468V210.371ZM76.4266 216.99H79.753V243.467H76.4266V216.99ZM39.8359 216.99H43.1624V243.467H39.8359V216.99ZM46.4888 260.016H43.1624V250.087H39.8359V246.777H43.1624V243.467H46.4888V260.016ZM56.468 263.325V260.016H46.4888V263.325H53.1416V266.635H73.1002V263.325H56.468ZM43.1624 216.99V213.681H46.4888V216.99H43.1624Z" fill="#714A1C" fill-opacity="0.25" style="mix-blend-mode:multiply"/>
<path fill-rule="evenodd" clip-rule="evenodd" d="M56.4683 216.99H53.1419V220.3H56.4683V216.99ZM59.7947 216.99H69.774V220.3H59.7947V216.99ZM69.774 220.3H73.1004V223.61H69.774L69.774 220.3ZM36.5098 243.467H39.8362V246.777H36.5098V243.467ZM76.4268 223.61H73.1004V226.919H76.4268V223.61Z" fill="#D4B194" style="mix-blend-mode:lighten"/>
<path fill-rule="evenodd" clip-rule="evenodd" d="M63.1218 240.158H53.1426V243.467H56.469V250.087H59.7954V243.467H63.1218V240.158ZM63.1218 256.706H69.7747V260.016H63.1218V256.706ZM63.1218 256.706H59.7954V253.396H63.1218V256.706ZM69.7747 240.158H73.1011H76.4275V243.467H73.1011V250.087H69.7747V240.158Z" fill="black"/>
<path fill-rule="evenodd" clip-rule="evenodd" d="M66.4478 240.158H63.1213V243.467H59.7949V246.777H63.1213V243.467H66.4478V240.158Z" fill="#714A1C" fill-opacity="0.25" style="mix-blend-mode:multiply"/>
<path fill-rule="evenodd" clip-rule="evenodd" d="M49.8157 207.061H73.1006V210.371H49.8157V207.061ZM43.1629 213.681V210.371H49.8157V213.681H43.1629ZM39.8364 216.99V213.681H43.1629V216.99H39.8364ZM39.8364 243.467V216.99H36.51V243.467H33.1836V253.396H36.51V256.706H39.8364V260.016H43.1629V263.325H46.4893V266.635H53.1421V269.944H73.1006V266.635H76.4271V263.325H79.7535V260.016H83.0799V216.99H79.7535V213.681H76.4271V210.371H73.1006V213.681H76.4271V216.99H79.7535V260.016H76.4271V263.325H73.1006V266.635H53.1421V263.325H46.4893V260.016H43.1629L43.1629 256.706V253.396H36.51V243.467L39.8364 243.467ZM39.8364 243.467V246.777H43.1629V243.467L39.8364 243.467Z" fill="black"/>
<path fill-rule="evenodd" clip-rule="evenodd" d="M42.3921 201.229H33.0028V204.464H29.873V207.699H33.0028H42.3921L42.3921 217.405H39.2623V236.817H42.3921L42.3921 240.052H45.5219V207.699H42.3921V201.229ZM48.6516 207.699H51.7814H54.9111H70.5599V210.935H76.8195V214.17H79.9492V223.876H76.8195V220.641H70.5599H54.9111V223.876H51.7814V233.582H48.6516V243.288H45.5219V207.699H48.6516Z" fill="black"/>
<path fill-rule="evenodd" clip-rule="evenodd" d="M42.3921 201.229H33.0028V204.464H29.873V207.699H33.0028H42.3921L42.3921 217.405H39.2623V236.817H42.3921L42.3921 240.052H45.5219V207.699H42.3921V201.229ZM51.7814 214.17H54.9111V217.405H76.8195V214.17H79.9492V223.876H76.8195V220.641H54.9111H51.7814V233.582H48.6516V243.288H45.5219V207.699H48.6516H51.7814V210.935H48.6516V214.17H51.7814Z" fill="black" fill-opacity="0.2" style="mix-blend-mode:multiply"/>
<path fill-rule="evenodd" clip-rule="evenodd" d="M45.5212 217.405H42.3915V220.641H39.2617V223.876H42.3915V227.111H45.5212V230.346H48.651V227.111H51.7808V223.876H54.9105V220.641H51.7808V217.405H48.651V220.641H45.5212V217.405ZM45.5212 223.876V227.111H48.651V223.876H51.7808V220.641H48.651V223.876H45.5212ZM45.5212 223.876V220.641H42.3915V223.876H45.5212Z" fill="white" fill-opacity="0.3" style="mix-blend-mode:lighten"/>
<path fill-rule="evenodd" clip-rule="evenodd" d="M45.5212 204.464H42.3915V207.699H39.2617V210.935H42.3915V207.699H45.5212V204.464Z" fill="#2E8EE6"/>
<path d="M39.2617 207.699H42.3915V210.935H39.2617V207.699Z" fill="black" fill-opacity="0.2" style="mix-blend-mode:multiply"/>
<path fill-rule="evenodd" clip-rule="evenodd" d="M36.1323 194.758H33.0026V201.229H29.8728V197.994H26.743V204.464L23.6133 204.464V207.699H29.8728V210.935H26.743V214.17H33.0026V210.935H39.2621V217.405H36.1323V240.052H39.2621V217.405H42.3918V210.935H39.2621V207.699H29.8728V204.464H33.0026V201.229H36.1323H42.3918V204.464H45.5216V207.699H70.5597V210.935H76.8192V214.17H79.949V227.111H83.0787V214.17H79.949V210.935H76.8192V207.699H70.5597V204.464H45.5216V201.229H42.3918V197.994H36.1323V194.758Z" fill="black"/>
<path d="M48.1767 362.88H75.5666V366.793H79.4795V370.706H83.3923V421.573H79.4795V425.486H75.5666V429.398H52.0896V425.486H44.2639V421.573H40.3511V413.747H32.5254V402.009H36.4382V370.706H40.3511V366.793H48.1767V362.88Z" fill="#FAE6CE"/>
<path fill-rule="evenodd" clip-rule="evenodd" d="M44.2639 433.311H75.5666V437.224H79.4795V445.05H75.5666V468.527H79.4795V476.353H75.5666V495.917H67.7409V476.353H63.8281V484.178H59.9153V488.091H56.0024V495.917H48.1767V472.44H52.0896V468.527H40.3511V437.224H44.2639V433.311ZM48.1767 441.137H52.0896V464.614H48.1767V441.137Z" fill="#FAE6CE"/>
<path d="M79.4795 445.05H83.3923V456.788H87.3051V464.614H79.4795V445.05Z" fill="#FAE6CE"/>
<path d="M75.5639 362.88H55.9997V366.793H71.6511V370.706H79.4768V402.009H83.3896V370.706H79.4768V366.793H75.5639V362.88Z" fill="#E3C4A6"/>
<path d="M40.3484 370.706H36.4355V386.357H40.3484V370.706Z" fill="#E3C4A6"/>
<path d="M36.4355 405.921H40.3484V402.009H44.2612V421.573H40.3484V409.834H36.4355V405.921Z" fill="#E3C4A6"/>
<path d="M44.2612 421.573H55.9997V425.486H75.5639V429.398H52.0869V425.486H44.2612V421.573Z" fill="#E3C4A6"/>
<path d="M79.4768 445.05H83.3896V456.788H87.3024V464.614H79.4768V445.05Z" fill="#E3C4A6"/>
<path d="M79.4768 445.05H75.5639V441.137H71.6511V437.224H52.0869V433.311H75.5639V437.224H79.4768V445.05Z" fill="#E3C4A6"/>
<path d="M79.4768 468.527H75.5639V448.963H71.6511V468.527H75.5639V476.353H79.4768V468.527Z" fill="#E3C4A6"/>
<path d="M71.6511 480.265H75.5639V495.917H71.6511V480.265Z" fill="#E3C4A6"/>
<path d="M52.0869 472.44H48.1741V495.917H55.9997V488.091H52.0869V472.44Z" fill="#E3C4A6"/>
<path d="M59.9126 476.353H63.8254V480.265H59.9126V476.353Z" fill="#E3C4A6"/>
<path d="M48.1741 448.963H44.2612V460.701H40.3484V468.527H52.0869V464.614H48.1741V448.963Z" fill="#E3C4A6"/>
<path d="M52.0896 370.706H56.0024V374.619H52.0896V370.706Z" fill="#FFF8EF"/>
<path d="M71.6538 370.706H59.9153V374.619H71.6538V378.532H75.5666V382.444H79.4795V378.532H75.5666V374.619H71.6538V370.706Z" fill="#FFF8EF"/>
<path d="M36.4382 402.009H32.5254V405.921H36.4382V402.009Z" fill="#FFF8EF"/>
<path d="M44.2639 433.311H52.0896V437.224H44.2639V433.311Z" fill="#FFF8EF"/>
<path d="M44.2639 437.224V441.137H40.3511V437.224H44.2639Z" fill="#FFF8EF"/>
<path d="M59.9153 447.006H56.0024V454.832H59.9153V447.006Z" fill="#FFF8EF"/>
<path d="M59.9153 447.006H63.8281V443.093H59.9153V447.006Z" fill="#FFF8EF"/>
<path d="M67.7409 472.44H63.8281V476.352H67.7409V472.44Z" fill="#FFF8EF"/>
<path fill-rule="evenodd" clip-rule="evenodd" d="M75.5654 358.967H48.1755V362.88H40.3498V366.793H36.437V370.706H32.5242V402.009H28.6113V413.747H32.5242V417.66H36.437V421.573H40.3498V425.486H44.2627V433.311H40.3498V437.224H36.437V468.527H40.3498V472.44H44.2627V499.829H59.914V488.091H63.8269V499.829H83.3911V495.917H79.4782V476.352H83.3911V468.527H87.3039V464.614H91.2168V456.788H87.3039V445.05H83.3911V437.224H79.4782V433.311H75.5654V429.398H79.4782V425.486H83.3911V421.573H87.3039V370.706H83.3911V366.793H79.4782V362.88H75.5654V358.967ZM75.5654 362.88V366.793H79.4782V370.706H83.3911V421.573H79.4782V425.486H75.5654V429.398H52.0884V425.486H44.2627V421.573H40.3498V413.747H32.5242V402.009H36.437V405.921H40.3498V402.009H36.437V370.706H40.3498V366.793H48.1755V362.88H75.5654ZM79.4782 445.05H75.5654V468.527H79.4782V476.352H75.5654V495.917H67.7397V476.352H63.8269V480.265H59.914V488.091H56.0012V495.917H48.1755V472.44H56.0012V464.614H52.0884V441.137H48.1755V464.614H52.0884V468.527H40.3498V437.224H44.2627V433.311H75.5654V437.224H79.4782V445.05ZM79.4782 445.05V464.614H87.3039V456.788H83.3911V445.05H79.4782Z" fill="black"/>
<path fill-rule="evenodd" clip-rule="evenodd" d="M74.9462 362.927H47.9176V366.847H44.0563H40.1951V421.717H44.0563V425.636L47.9176 425.636H51.7788V429.555H74.9462L74.9462 425.636L78.8074 425.636V421.717H82.6687V370.766H78.8074V366.847H74.9462V362.927ZM32.4727 402.12H36.3339V370.766H40.1951V413.878H36.3339H32.4727V402.12Z" fill="#FAE6CE"/>
<path fill-rule="evenodd" clip-rule="evenodd" d="M55.6401 362.927H74.9463V366.847H78.8075L78.8075 370.766L71.0851 370.766V366.847H55.6401V362.927ZM78.8075 370.766H82.6688V402.12H78.8075V370.766ZM36.334 370.766H40.1952V402.12H36.334V370.766ZM44.0564 421.717H40.1952V409.959H36.334V406.039H40.1952V402.12L44.0564 402.12V421.717ZM55.6401 425.636V421.717H44.0564V425.636H51.7789V429.555H74.9463V425.636H55.6401ZM40.1952 370.766V366.847H44.0564V370.766L40.1952 370.766Z" fill="#714A1C" fill-opacity="0.25" style="mix-blend-mode:multiply"/>
<path fill-rule="evenodd" clip-rule="evenodd" d="M55.64 370.766H51.7788V374.685H55.64V370.766ZM59.5013 370.766H71.085V374.685H59.5013V370.766ZM74.9462 378.604V374.685H71.085L71.085 378.604H74.9462ZM74.9462 378.604L74.9462 382.524H78.8074V378.604H74.9462ZM32.4727 402.12H36.3339V406.039H32.4727V402.12Z" fill="#FFFCF9" fill-opacity="0.7" style="mix-blend-mode:lighten"/>
<path fill-rule="evenodd" clip-rule="evenodd" d="M63.363 398.201H51.7793V402.12H55.6405V409.959H59.5018V402.12H63.363V398.201ZM63.363 417.797H71.0854V421.717H63.363V417.797ZM63.363 417.797H59.5018V413.878H63.363V417.797ZM71.0854 398.201H74.9467H78.8079V402.12H74.9467V409.959H71.0854V398.201Z" fill="black"/>
<path fill-rule="evenodd" clip-rule="evenodd" d="M67.2244 398.201H63.3632V402.12H59.502V406.039H63.3632V402.12H67.2244V398.201Z" fill="#714A1C" fill-opacity="0.25" style="mix-blend-mode:multiply"/>
<path fill-rule="evenodd" clip-rule="evenodd" d="M47.9175 359.008H74.9461V362.927H47.9175V359.008ZM40.195 366.847V362.927H47.9175V366.847H40.195ZM36.3338 370.766V366.847H40.195V370.766H36.3338ZM36.3338 370.766V402.12H32.4726V370.766H36.3338ZM32.4726 402.12H28.6113V413.878H32.4726V417.797H36.3338V421.717H40.195V425.636H44.0563V429.555H51.7787V433.475H74.9461V429.555H78.8073V425.636H82.6686V421.717H86.5298V370.766H82.6686V366.847H78.8073V362.927H74.9461V366.847H78.8073V370.766H82.6686V421.717H78.8073V425.636H74.9461V429.555H51.7787V425.636H44.0563V421.717H40.195L40.195 417.797V413.878H32.4726V402.12ZM40.195 402.12H36.3338V406.039H40.195V402.12Z" fill="black"/>
<path d="M48.1767 362.88H75.5666V366.793H79.4795V370.706H83.3923V421.573H79.4795V425.486H75.5666V429.398H52.0896V425.486H44.2639V421.573H40.3511V413.747H32.5254V402.009H36.4382V370.706H40.3511V366.793H48.1767V362.88Z" fill="#FAE6CE"/>
<path fill-rule="evenodd" clip-rule="evenodd" d="M44.2639 433.311H75.5666V437.224H79.4795V445.05H75.5666V468.527H79.4795V476.353H75.5666V495.917H67.7409V476.353H63.8281V484.178H59.9153V488.091H56.0024V495.917H48.1767V472.44H52.0896V468.527H40.3511V437.224H44.2639V433.311ZM48.1767 441.137H52.0896V464.614H48.1767V441.137Z" fill="#FAE6CE"/>
<path d="M79.4795 445.05H83.3923V456.788H87.3051V464.614H79.4795V445.05Z" fill="#FAE6CE"/>
<path d="M75.5639 362.88H55.9997V366.793H71.6511V370.706H79.4768V402.009H83.3896V370.706H79.4768V366.793H75.5639V362.88Z" fill="#E3C4A6"/>
<path d="M40.3484 370.706H36.4355V386.357H40.3484V370.706Z" fill="#E3C4A6"/>
<path d="M36.4355 405.921H40.3484V402.009H44.2612V421.573H40.3484V409.834H36.4355V405.921Z" fill="#E3C4A6"/>
<path d="M44.2612 421.573H55.9997V425.486H75.5639V429.398H52.0869V425.486H44.2612V421.573Z" fill="#E3C4A6"/>
<path d="M79.4768 445.05H83.3896V456.788H87.3024V464.614H79.4768V445.05Z" fill="#E3C4A6"/>
<path d="M79.4768 445.05H75.5639V441.137H71.6511V437.224H52.0869V433.311H75.5639V437.224H79.4768V445.05Z" fill="#E3C4A6"/>
<path d="M79.4768 468.527H75.5639V448.963H71.6511V468.527H75.5639V476.353H79.4768V468.527Z" fill="#E3C4A6"/>
<path d="M71.6511 480.265H75.5639V495.917H71.6511V480.265Z" fill="#E3C4A6"/>
<path d="M52.0869 472.44H48.1741V495.917H55.9997V488.091H52.0869V472.44Z" fill="#E3C4A6"/>
<path d="M59.9126 476.353H63.8254V480.265H59.9126V476.353Z" fill="#E3C4A6"/>
<path d="M48.1741 448.963H44.2612V460.701H40.3484V468.527H52.0869V464.614H48.1741V448.963Z" fill="#E3C4A6"/>
<path d="M52.0896 370.706H56.0024V374.619H52.0896V370.706Z" fill="#FFF8EF"/>
<path d="M71.6538 370.706H59.9153V374.619H71.6538V378.532H75.5666V382.444H79.4795V378.532H75.5666V374.619H71.6538V370.706Z" fill="#FFF8EF"/>
<path d="M36.4382 402.009H32.5254V405.921H36.4382V402.009Z" fill="#FFF8EF"/>
<path d="M44.2639 433.311H52.0896V437.224H44.2639V433.311Z" fill="#FFF8EF"/>
<path d="M44.2639 437.224V441.137H40.3511V437.224H44.2639Z" fill="#FFF8EF"/>
<path d="M59.9153 447.006H56.0024V454.832H59.9153V447.006Z" fill="#FFF8EF"/>
<path d="M59.9153 447.006H63.8281V443.093H59.9153V447.006Z" fill="#FFF8EF"/>
<path d="M67.7409 472.44H63.8281V476.352H67.7409V472.44Z" fill="#FFF8EF"/>
<path fill-rule="evenodd" clip-rule="evenodd" d="M75.5654 358.967H48.1755V362.88H40.3498V366.793H36.437V370.706H32.5242V402.009H28.6113V413.747H32.5242V417.66H36.437V421.573H40.3498V425.486H44.2627V433.311H40.3498V437.224H36.437V468.527H40.3498V472.44H44.2627V499.829H59.914V488.091H63.8269V499.829H83.3911V495.917H79.4782V476.352H83.3911V468.527H87.3039V464.614H91.2168V456.788H87.3039V445.05H83.3911V437.224H79.4782V433.311H75.5654V429.398H79.4782V425.486H83.3911V421.573H87.3039V370.706H83.3911V366.793H79.4782V362.88H75.5654V358.967ZM75.5654 362.88V366.793H79.4782V370.706H83.3911V421.573H79.4782V425.486H75.5654V429.398H52.0884V425.486H44.2627V421.573H40.3498V413.747H32.5242V402.009H36.437V405.921H40.3498V402.009H36.437V370.706H40.3498V366.793H48.1755V362.88H75.5654ZM79.4782 445.05H75.5654V468.527H79.4782V476.352H75.5654V495.917H67.7397V476.352H63.8269V480.265H59.914V488.091H56.0012V495.917H48.1755V472.44H56.0012V464.614H52.0884V441.137H48.1755V464.614H52.0884V468.527H40.3498V437.224H44.2627V433.311H75.5654V437.224H79.4782V445.05ZM79.4782 445.05V464.614H87.3039V456.788H83.3911V445.05H79.4782Z" fill="black"/>
<path fill-rule="evenodd" clip-rule="evenodd" d="M74.9462 362.927H47.9176V366.847H44.0563H40.1951V421.717H44.0563V425.636L47.9176 425.636H51.7788V429.555H74.9462L74.9462 425.636L78.8074 425.636V421.717H82.6687V370.766H78.8074V366.847H74.9462V362.927ZM32.4727 402.12H36.3339V370.766H40.1951V413.878H36.3339H32.4727V402.12Z" fill="#FAE6CE"/>
<path fill-rule="evenodd" clip-rule="evenodd" d="M55.6401 362.927H74.9463V366.847H78.8075L78.8075 370.766L71.0851 370.766V366.847H55.6401V362.927ZM78.8075 370.766H82.6688V402.12H78.8075V370.766ZM36.334 370.766H40.1952V402.12H36.334V370.766ZM44.0564 421.717H40.1952V409.959H36.334V406.039H40.1952V402.12L44.0564 402.12V421.717ZM55.6401 425.636V421.717H44.0564V425.636H51.7789V429.555H74.9463V425.636H55.6401ZM40.1952 370.766V366.847H44.0564V370.766L40.1952 370.766Z" fill="#714A1C" fill-opacity="0.25" style="mix-blend-mode:multiply"/>
<path fill-rule="evenodd" clip-rule="evenodd" d="M55.64 370.766H51.7788V374.685H55.64V370.766ZM59.5013 370.766H71.085V374.685H59.5013V370.766ZM74.9462 378.604V374.685H71.085L71.085 378.604H74.9462ZM74.9462 378.604L74.9462 382.524H78.8074V378.604H74.9462ZM32.4727 402.12H36.3339V406.039H32.4727V402.12Z" fill="#FFFCF9" fill-opacity="0.7" style="mix-blend-mode:lighten"/>
<path fill-rule="evenodd" clip-rule="evenodd" d="M63.363 398.201H51.7793V402.12H55.6405V409.959H59.5018V402.12H63.363V398.201ZM63.363 417.797H71.0854V421.717H63.363V417.797ZM63.363 417.797H59.5018V413.878H63.363V417.797ZM71.0854 398.201H74.9467H78.8079V402.12H74.9467V409.959H71.0854V398.201Z" fill="black"/>
<path fill-rule="evenodd" clip-rule="evenodd" d="M67.2244 398.201H63.3632V402.12H59.502V406.039H63.3632V402.12H67.2244V398.201Z" fill="#714A1C" fill-opacity="0.25" style="mix-blend-mode:multiply"/>
<path fill-rule="evenodd" clip-rule="evenodd" d="M47.9175 359.008H74.9461V362.927H47.9175V359.008ZM40.195 366.847V362.927H47.9175V366.847H40.195ZM36.3338 370.766V366.847H40.195V370.766H36.3338ZM36.3338 370.766V402.12H32.4726V370.766H36.3338ZM32.4726 402.12H28.6113V413.878H32.4726V417.797H36.3338V421.717H40.195V425.636H44.0563V429.555H51.7787V433.475H74.9461V429.555H78.8073V425.636H82.6686V421.717H86.5298V370.766H82.6686V366.847H78.8073V362.927H74.9461V366.847H78.8073V370.766H82.6686V421.717H78.8073V425.636H74.9461V429.555H51.7787V425.636H44.0563V421.717H40.195L40.195 417.797V413.878H32.4726V402.12ZM40.195 402.12H36.3338V406.039H40.195V402.12Z" fill="black"/>
<path d="M48.1767 362.88H75.5666V366.793H79.4795V370.706H83.3923V421.573H79.4795V425.486H75.5666V429.398H52.0896V425.486H44.2639V421.573H40.3511V413.747H32.5254V402.009H36.4382V370.706H40.3511V366.793H48.1767V362.88Z" fill="#FAE6CE"/>
<path fill-rule="evenodd" clip-rule="evenodd" d="M44.2639 433.311H75.5666V437.224H79.4795V445.05H75.5666V468.527H79.4795V476.353H75.5666V495.917H67.7409V476.353H63.8281V484.178H59.9153V488.091H56.0024V495.917H48.1767V472.44H52.0896V468.527H40.3511V437.224H44.2639V433.311ZM48.1767 441.137H52.0896V464.614H48.1767V441.137Z" fill="#FAE6CE"/>
<path d="M79.4795 445.05H83.3923V456.788H87.3051V464.614H79.4795V445.05Z" fill="#FAE6CE"/>
<path d="M75.5639 362.88H55.9997V366.793H71.6511V370.706H79.4768V402.009H83.3896V370.706H79.4768V366.793H75.5639V362.88Z" fill="#E3C4A6"/>
<path d="M40.3484 370.706H36.4355V386.357H40.3484V370.706Z" fill="#E3C4A6"/>
<path d="M36.4355 405.921H40.3484V402.009H44.2612V421.573H40.3484V409.834H36.4355V405.921Z" fill="#E3C4A6"/>
<path d="M44.2612 421.573H55.9997V425.486H75.5639V429.398H52.0869V425.486H44.2612V421.573Z" fill="#E3C4A6"/>
<path d="M79.4768 445.05H83.3896V456.788H87.3024V464.614H79.4768V445.05Z" fill="#E3C4A6"/>
<path d="M79.4768 445.05H75.5639V441.137H71.6511V437.224H52.0869V433.311H75.5639V437.224H79.4768V445.05Z" fill="#E3C4A6"/>
<path d="M79.4768 468.527H75.5639V448.963H71.6511V468.527H75.5639V476.353H79.4768V468.527Z" fill="#E3C4A6"/>
<path d="M71.6511 480.265H75.5639V495.917H71.6511V480.265Z" fill="#E3C4A6"/>
<path d="M52.0869 472.44H48.1741V495.917H55.9997V488.091H52.0869V472.44Z" fill="#E3C4A6"/>
<path d="M59.9126 476.353H63.8254V480.265H59.9126V476.353Z" fill="#E3C4A6"/>
<path d="M48.1741 448.963H44.2612V460.701H40.3484V468.527H52.0869V464.614H48.1741V448.963Z" fill="#E3C4A6"/>
<path d="M52.0896 370.706H56.0024V374.619H52.0896V370.706Z" fill="#FFF8EF"/>
<path d="M71.6538 370.706H59.9153V374.619H71.6538V378.532H75.5666V382.444H79.4795V378.532H75.5666V374.619H71.6538V370.706Z" fill="#FFF8EF"/>
<path d="M36.4382 402.009H32.5254V405.921H36.4382V402.009Z" fill="#FFF8EF"/>
<path d="M44.2639 433.311H52.0896V437.224H44.2639V433.311Z" fill="#FFF8EF"/>
<path d="M44.2639 437.224V441.137H40.3511V437.224H44.2639Z" fill="#FFF8EF"/>
<path d="M59.9153 447.006H56.0024V454.832H59.9153V447.006Z" fill="#FFF8EF"/>
<path d="M59.9153 447.006H63.8281V443.093H59.9153V447.006Z" fill="#FFF8EF"/>
<path d="M67.7409 472.44H63.8281V476.352H67.7409V472.44Z" fill="#FFF8EF"/>
<path fill-rule="evenodd" clip-rule="evenodd" d="M75.5654 358.967H48.1755V362.88H40.3498V366.793H36.437V370.706H32.5242V402.009H28.6113V413.747H32.5242V417.66H36.437V421.573H40.3498V425.486H44.2627V433.311H40.3498V437.224H36.437V468.527H40.3498V472.44H44.2627V499.829H59.914V488.091H63.8269V499.829H83.3911V495.917H79.4782V476.352H83.3911V468.527H87.3039V464.614H91.2168V456.788H87.3039V445.05H83.3911V437.224H79.4782V433.311H75.5654V429.398H79.4782V425.486H83.3911V421.573H87.3039V370.706H83.3911V366.793H79.4782V362.88H75.5654V358.967ZM75.5654 362.88V366.793H79.4782V370.706H83.3911V421.573H79.4782V425.486H75.5654V429.398H52.0884V425.486H44.2627V421.573H40.3498V413.747H32.5242V402.009H36.437V405.921H40.3498V402.009H36.437V370.706H40.3498V366.793H48.1755V362.88H75.5654ZM79.4782 445.05H75.5654V468.527H79.4782V476.352H75.5654V495.917H67.7397V476.352H63.8269V480.265H59.914V488.091H56.0012V495.917H48.1755V472.44H56.0012V464.614H52.0884V441.137H48.1755V464.614H52.0884V468.527H40.3498V437.224H44.2627V433.311H75.5654V437.224H79.4782V445.05ZM79.4782 445.05V464.614H87.3039V456.788H83.3911V445.05H79.4782Z" fill="black"/>
<path fill-rule="evenodd" clip-rule="evenodd" d="M76.2691 363.014H48.4682V427.117H52.4398V431.123H76.2691L76.2691 427.117H80.2407V423.11H84.2122V371.027H80.2407V367.021H76.2691L76.2691 363.014ZM32.582 403.078H36.5536V371.027H40.5251V367.021H44.4967H48.4682V427.117H44.4967V423.11H40.5251V415.097L36.5536 415.097H32.582V403.078Z" fill="#FAE6CE"/>
<path fill-rule="evenodd" clip-rule="evenodd" d="M56.4124 363.014H76.2702V367.021H80.2418V371.027H72.2987V367.021H56.4124V363.014ZM80.2418 371.027H84.2133V403.078H80.2418V371.027ZM36.5547 371.027H40.5262V403.078H36.5547V371.027ZM40.5262 371.027V367.021H44.4978V371.027H40.5262ZM36.5547 407.085H40.5262V403.078H44.4978V423.11H40.5262V411.091H36.5547V407.085ZM44.4978 423.11H56.4124V427.117H76.2702V431.123H52.4409V427.117H44.4978V423.11Z" fill="#714A1C" fill-opacity="0.25" style="mix-blend-mode:multiply"/>
<path fill-rule="evenodd" clip-rule="evenodd" d="M56.4113 371.027H52.4398V375.033H56.4113V371.027ZM60.3829 371.027H72.2976V375.033H60.3829V371.027ZM76.2691 379.04V375.033H72.2976L72.2976 379.04H76.2691ZM76.2691 379.04V383.046H80.2407V379.04H76.2691ZM32.582 403.078H36.5536V407.085H32.582V403.078Z" fill="#FFFCF9" fill-opacity="0.7" style="mix-blend-mode:lighten"/>
<path fill-rule="evenodd" clip-rule="evenodd" d="M56.413 399.072H60.3845V403.078H56.413V399.072ZM56.413 403.078V407.085H52.4414V403.078H56.413ZM60.3845 403.078H64.3561V407.085H60.3845V403.078ZM64.3561 419.104H72.2992V423.11H64.3561V419.104ZM64.3561 419.104H60.3845V415.097H64.3561V419.104ZM72.2992 419.104H76.2707V415.097H72.2992V419.104ZM72.2992 403.078H68.3276V407.085H72.2992V403.078ZM76.2707 403.078H72.2992V399.072H76.2707V403.078ZM76.2707 403.078V407.085H80.2423V403.078H76.2707Z" fill="black"/>
<path fill-rule="evenodd" clip-rule="evenodd" d="M64.3544 399.072H60.3828V403.078H64.3544V407.085H68.3259V403.078H64.3544V399.072Z" fill="#714A1C" fill-opacity="0.25" style="mix-blend-mode:multiply"/>
<path fill-rule="evenodd" clip-rule="evenodd" d="M48.4691 359.008H76.27V363.014H48.4691V359.008ZM40.526 367.021V363.014H48.4691V367.021H40.526ZM36.5544 371.027V367.021H40.526V371.027H36.5544ZM36.5544 403.078V371.027H32.5829V403.078H28.6113V415.097H32.5829V419.104H36.5544V423.11H40.526V427.117H44.4975V431.123H52.4406V435.129H76.27V431.123H80.2415V427.117H84.2131V423.11H88.1846V371.027H84.2131V367.021H80.2415V363.014H76.27V367.021H80.2415V371.027H84.2131V423.11H80.2415V427.117H76.27V431.123H52.4406V427.117H44.4975V423.11H40.526V419.104V415.097H32.5829V403.078H36.5544ZM36.5544 403.078V407.085H40.526V403.078H36.5544Z" fill="black"/>
<path fill-rule="evenodd" clip-rule="evenodd" d="M50.0362 362.533H46.4653V394.263H50.0362L50.0362 390.737H57.178V387.212H64.3199L64.3199 383.686H67.8908V380.161H71.4617V383.686H75.0326V387.212H78.6035V390.737H82.1744V366.059H78.6035V362.533H75.0326H71.4617H67.8908H64.3199H57.178H50.0362ZM39.3235 366.059H46.4653V401.314H39.3235V397.788H35.7526V369.584H39.3235V366.059ZM35.7526 415.415H39.3235L39.3235 418.941H42.8944L42.8944 422.466H46.4653V429.517H42.8944L42.8944 433.043H39.3235H35.7526L32.1816 433.043V429.517H35.7526V415.415ZM82.1744 373.11H85.7453L85.7453 383.686H89.3163V418.941H85.7453V425.992H89.3163V429.517H92.8872V433.043L89.3163 433.043H85.7453L85.7453 436.568H82.1744V411.89H85.7453V397.788H82.1744V373.11ZM82.1744 422.466H78.6035V433.043H82.1744V422.466Z" fill="black"/>
<path fill-rule="evenodd" clip-rule="evenodd" d="M75.0339 366.059H71.463V373.11H67.8921V380.161H71.463L71.463 373.11H75.0339V366.059ZM35.7539 369.584H39.3248V394.263H42.8957V390.737L46.4666 390.737L50.0376 390.737L50.0376 394.263H46.4666L46.4666 401.314H42.8957H39.3248V397.788H35.7539V369.584ZM57.1794 387.212L57.1794 390.737H50.0376V387.212H57.1794ZM57.1794 387.212V383.686H64.3212V387.212H57.1794ZM85.7467 411.89H82.1758V422.466H78.6049V433.043H82.1758V436.568H85.7467V433.043H89.3176H92.8885V429.517H89.3176V425.992H85.7467V418.941H89.3176V383.686H85.7467V411.89ZM67.8921 380.161H64.3212V383.686H67.8921V380.161Z" fill="black" fill-opacity="0.2" style="mix-blend-mode:multiply"/>
<path fill-rule="evenodd" clip-rule="evenodd" d="M64.3206 366.059H67.8915V373.11H64.3206V366.059ZM60.7497 376.635V373.11H64.3206L64.3206 376.635H60.7497ZM53.6079 376.635H60.7497V380.161H53.6079V376.635ZM46.466 376.635H53.6079V373.11H57.1788V366.059H53.6079L53.6079 373.11H46.466V376.635ZM46.466 376.635V380.161H42.8951V376.635L46.466 376.635ZM50.037 380.161H53.6079V383.686H50.037V380.161ZM42.8951 380.161H39.3242V387.212H42.8951V380.161Z" fill="white" fill-opacity="0.3" style="mix-blend-mode:lighten"/>
<path fill-rule="evenodd" clip-rule="evenodd" d="M78.6041 359.008H46.4659V362.533H39.3241V366.059H35.7532V369.584H32.1822V397.788H35.7532V369.584H39.3241V366.059H46.4659V362.533H78.6041V366.059H82.175V373.11H85.7459V383.686H89.3169V418.941H85.7459V425.992H89.3169V429.517H92.8878V433.043H85.7459V436.568H82.175V433.043H78.6041V425.992H75.0332V433.043H78.6041V436.568H82.175V440.094H85.7459V436.568H92.8878V433.043H96.4587V429.517H92.8878V425.992H89.3169V418.941H92.8878V383.686H89.3169V373.11H85.7459V366.059H82.175V362.533H78.6041V359.008ZM32.1822 415.415H35.7532V429.517H32.1822V415.415ZM32.1822 433.043H28.6113V429.517H32.1822V433.043ZM42.895 433.043V436.568H32.1822V433.043H42.895ZM46.4659 429.517V433.043H42.895L42.895 429.517H46.4659ZM46.4659 429.517V425.992H50.0368V429.517H46.4659ZM78.6041 411.89H82.175V422.466H78.6041V411.89Z" fill="black"/>
<path fill-rule="evenodd" clip-rule="evenodd" d="M71.6366 427.552H55.7503V431.558H59.7219V435.565H67.665V431.558H71.6366V427.552ZM39.8641 435.565H43.8357H47.8072V463.61H43.8357V467.616H39.8641H35.8926V459.603H39.8641V435.565ZM83.5512 455.597H87.5228V463.61H83.5512H79.5797V443.578H83.5512V455.597Z" fill="#FAE6CE"/>
<path fill-rule="evenodd" clip-rule="evenodd" d="M71.6366 427.552H55.7503V431.558H71.6366V427.552ZM79.5797 443.578H83.5512V455.597H87.5228V463.61H83.5512H79.5797V443.578ZM43.8357 447.584H47.8072V467.616H43.8357H35.8926V459.603H43.8357V447.584Z" fill="#714A1C" fill-opacity="0.25" style="mix-blend-mode:multiply"/>
<path d="M39.8652 435.565H43.8368V439.571H39.8652V435.565Z" fill="#FFFCF9" fill-opacity="0.7" style="mix-blend-mode:lighten"/>
<path fill-rule="evenodd" clip-rule="evenodd" d="M47.8083 427.552H51.7799V431.558H55.7514V435.565H59.723V439.571H67.6661L67.6661 435.565H71.6377V431.558H75.6092V467.616H79.5808V479.635H83.5523V487.648H79.5808L75.6092 487.648L71.6377 487.648L67.6661 487.648L59.723 487.648L55.7514 487.648L51.7799 487.648H47.8083H43.8368L39.8652 487.648V483.642H43.8368V475.629H47.8083V463.61H51.7799V435.565H47.8083V427.552Z" fill="#E62E2E"/>
<path fill-rule="evenodd" clip-rule="evenodd" d="M47.8075 427.552H51.779V431.558H47.8075V427.552ZM51.779 431.558H55.7506V435.565H51.779V431.558ZM75.6084 431.558H71.6368V435.565H67.6653V439.571H71.6368V443.578H75.6084V431.558ZM67.6653 471.622H71.6368V479.635H67.6653V471.622ZM67.6653 479.635L67.6653 487.648H63.6937V479.635H67.6653ZM71.6368 463.61H67.6653V467.616H71.6368V463.61ZM67.6653 451.59H71.6368V459.603H67.6653V451.59ZM59.7221 475.629H55.7506V479.635H51.779V483.642H55.7506V479.635H59.7221V475.629ZM59.7221 475.629H63.6937V467.616H59.7221L59.7221 475.629ZM55.7506 451.59H51.779V463.61H47.8075V471.622H51.779V463.61H55.7506V451.59ZM47.8075 475.629H43.8359V479.635H47.8075V475.629ZM79.5799 479.635H83.5515V487.648H79.5799V479.635ZM79.5799 467.616H75.6084V475.629H79.5799V467.616Z" fill="black" fill-opacity="0.2" style="mix-blend-mode:multiply"/>
<path fill-rule="evenodd" clip-rule="evenodd" d="M51.7801 431.558H47.8086V435.565H51.7801V431.558ZM67.6664 455.597H63.6948V463.61H67.6664V455.597ZM55.7517 471.622H59.7233V475.629H55.7517V471.622ZM51.7801 479.635V475.629L55.7517 475.629V479.635H51.7801ZM51.7801 479.635V487.648H47.8086V479.635L51.7801 479.635ZM59.7233 479.635H63.6948V487.648H59.7233V479.635ZM63.6948 479.635V475.629H67.6664V479.635L63.6948 479.635Z" fill="white" fill-opacity="0.3" style="mix-blend-mode:lighten"/>
<path fill-rule="evenodd" clip-rule="evenodd" d="M55.7517 491.654H47.8086V495.661H55.7517V491.654ZM75.6095 491.654H67.6664V495.661H75.6095V491.654Z" fill="black"/>
<path fill-rule="evenodd" clip-rule="evenodd" d="M51.7801 491.654H47.8086V495.661H51.7801V491.654ZM71.6379 491.654H67.6664V495.661H71.6379V491.654Z" fill="black" fill-opacity="0.2" style="mix-blend-mode:multiply"/>
<path fill-rule="evenodd" clip-rule="evenodd" d="M47.8081 423.546H51.7796V427.552H47.8081V423.546ZM47.8081 435.565V427.552H43.8365V431.558H39.865V435.565H35.8934V459.603H31.9219V467.616H35.8934V471.622H43.8365V475.629H39.865V483.642H35.8934V487.648V491.654H43.8365V499.667H47.8081H55.7512H59.7227V491.654H63.6943V499.667H67.6658H83.5521V495.661H79.5805V491.654H87.5236L87.5236 487.648V479.635H83.5521V467.616H87.5236V463.61H91.4952V455.597H87.5236V443.578H83.5521V435.565H79.5805V431.558H75.609V427.552H71.6374V431.558H67.6658V435.565H59.7227V431.558H55.7512V427.552H51.7796V431.558H55.7512V435.565H59.7227V439.571H67.6658V435.565H71.6374V431.558H75.609V467.616H79.5805V479.635H83.5521V487.648H39.865V483.642H43.8365V475.629H47.8081V463.61H51.7796V435.565L47.8081 435.565ZM47.8081 435.565H43.8365L39.865 435.565V459.603H35.8934V467.616H43.8365V463.61H47.8081V435.565ZM83.5521 443.578H79.5805V463.61H83.5521H87.5236V455.597H83.5521V443.578ZM67.6658 495.661H75.609V491.654H67.6658V495.661ZM55.7512 495.661V491.654H47.8081V495.661H55.7512Z" fill="black"/>
<path d="M50.0474 529.464H76.5546V533.251H80.3414V537.037H84.1281V586.265H80.3414V590.052H76.5546V593.839H53.8341V590.052H46.2606V586.265H42.4739V578.692H34.9004V567.331H38.6871V537.037H42.4739V533.251H50.0474V529.464Z" fill="#9C6F4B"/>
<path fill-rule="evenodd" clip-rule="evenodd" d="M46.2606 597.625H76.5546V601.412H80.3414V608.986H76.5546V631.706H80.3414V639.28H76.5546V658.213H68.9811V639.28H65.1944V646.853H61.4076V650.64H57.6209V658.213H50.0474V635.493H53.8341V631.706H42.4739V601.412H46.2606V597.625ZM50.0474 605.199H53.8341V627.919H50.0474V605.199Z" fill="#9C6F4B"/>
<path d="M80.3414 608.986H84.1281V620.346H87.9149V627.919H80.3414V608.986Z" fill="#9C6F4B"/>
<path d="M76.5569 529.464H57.6232V533.251H72.7702V537.037H80.3437V567.331H84.1304V537.037H80.3437V533.251H76.5569V529.464Z" fill="#7E5333"/>
<path d="M42.4762 537.037H38.6895V552.184H42.4762V537.037Z" fill="#7E5333"/>
<path d="M38.6895 571.118H42.4762V567.331H46.2629V586.265H42.4762V574.905H38.6895V571.118Z" fill="#7E5333"/>
<path d="M46.2629 586.265H57.6232V590.052H76.5569V593.839H53.8364V590.052H46.2629V586.265Z" fill="#7E5333"/>
<path d="M80.3437 608.986H84.1304V620.346H87.9172V627.919H80.3437V608.986Z" fill="#7E5333"/>
<path d="M80.3437 608.986H76.5569V605.199H72.7702V601.412H53.8364V597.625H76.5569V601.412H80.3437V608.986Z" fill="#7E5333"/>
<path d="M80.3437 631.706H76.5569V612.772H72.7702V631.706H76.5569V639.28H80.3437V631.706Z" fill="#7E5333"/>
<path d="M72.7702 643.066H76.5569V658.213H72.7702V643.066Z" fill="#7E5333"/>
<path d="M53.8364 635.493H50.0497V658.213H57.6232V650.64H53.8364V635.493Z" fill="#7E5333"/>
<path d="M61.4099 639.28H65.1967V643.066H61.4099V639.28Z" fill="#7E5333"/>
<path d="M50.0497 612.772H46.2629V624.133H42.4762V631.706H53.8364V627.919H50.0497V612.772Z" fill="#7E5333"/>
<path d="M53.8341 537.037H57.6209V540.824H53.8341V537.037Z" fill="#D4B194"/>
<path d="M72.7679 537.037H61.4076V540.824H72.7679V544.611H76.5546V548.398H80.3414V544.611H76.5546V540.824H72.7679V537.037Z" fill="#D4B194"/>
<path d="M38.6871 567.331H34.9004V571.118H38.6871V567.331Z" fill="#D4B194"/>
<path d="M46.2606 597.625H53.8341V601.412H46.2606V597.625Z" fill="#D4B194"/>
<path d="M46.2606 601.412V605.199H42.4739V601.412H46.2606Z" fill="#D4B194"/>
<path d="M61.4076 610.879H57.6209V618.452H61.4076V610.879Z" fill="#D4B194"/>
<path d="M61.4076 610.879H65.1944V607.092H61.4076V610.879Z" fill="#D4B194"/>
<path d="M68.9811 635.493H65.1944V639.28H68.9811V635.493Z" fill="#D4B194"/>
<path fill-rule="evenodd" clip-rule="evenodd" d="M76.5562 525.677H50.049V529.464H42.4755V533.251H38.6887V537.037H34.902V567.331H31.1152V578.692H34.902V582.478H38.6887V586.265H42.4755V590.052H46.2622V597.625H42.4755V601.412H38.6887V631.706H42.4755V635.493H46.2622V662H61.4092V650.64H65.196V662H84.1297V658.213H80.343V639.279H84.1297V631.706H87.9165V627.919H91.7032V620.346H87.9165V608.985H84.1297V601.412H80.343V597.625H76.5562V593.839H80.343V590.052H84.1297V586.265H87.9165V537.037H84.1297V533.251H80.343V529.464H76.5562V525.677ZM76.5562 529.464V533.251H80.343V537.037H84.1297V586.265H80.343V590.052H76.5562V593.839H53.8357V590.052H46.2622V586.265H42.4755V578.692H34.902V567.331H38.6887V571.118H42.4755V567.331H38.6887V537.037H42.4755V533.251H50.049V529.464H76.5562ZM80.343 608.985H76.5562V631.706H80.343V639.279H76.5562V658.213H68.9827V639.279H65.196V643.066H61.4092V650.64H57.6225V658.213H50.049V635.493H57.6225V627.919H53.8357V605.199H50.049V627.919H53.8357V631.706H42.4755V601.412H46.2622V597.625H76.5562V601.412H80.343V608.985ZM80.343 608.985V627.919H87.9165V620.346H84.1297V608.985H80.343Z" fill="black"/>
<path fill-rule="evenodd" clip-rule="evenodd" d="M77.1911 529.644H50.8555V533.463H47.0933H43.3311V537.282H39.5689V567.832H35.8066V579.289H39.5689H43.3311V586.926H47.0933V590.745L50.8555 590.745H54.6178V594.564H77.1911V590.745L80.9533 590.745V586.926H84.7156V537.282H80.9533V533.463H77.1911V529.644Z" fill="#9C6F4B"/>
<path fill-rule="evenodd" clip-rule="evenodd" d="M58.3814 529.644H77.1926V533.463H80.9548L80.9548 537.282L73.4303 537.282V533.463H58.3814V529.644ZM80.9548 537.282H84.717V567.832H80.9548V537.282ZM39.5703 537.282H43.3325V567.832H39.5703V537.282ZM47.0948 586.926H43.3325V575.47H39.5703V571.651H43.3325V567.832H47.0948V586.926ZM58.3814 590.745V586.926L47.0948 586.926V590.745H54.6192V594.564H77.1926V590.745H58.3814ZM43.3325 537.282V533.463H47.0948V537.282L43.3325 537.282Z" fill="#714A1C" fill-opacity="0.25" style="mix-blend-mode:multiply"/>
<path fill-rule="evenodd" clip-rule="evenodd" d="M58.38 537.282H54.6178V541.101H58.38V537.282ZM62.1422 537.282H73.4289V541.101H62.1422V537.282ZM77.1911 544.919V541.101H73.4289V544.919H77.1911ZM77.1911 544.919V548.738H80.9533V544.919H77.1911ZM35.8066 567.832H39.5689V571.651H35.8066V567.832Z" fill="#FFFCF9" fill-opacity="0.7" style="mix-blend-mode:lighten"/>
<path fill-rule="evenodd" clip-rule="evenodd" d="M54.6191 564.013H65.9058V567.832H62.1436V575.47H58.3814V567.832H54.6191V564.013ZM73.4303 583.107H65.9058V586.926H73.4303V583.107ZM73.4303 583.107H77.1925V579.289H73.4303V583.107ZM80.9547 567.832H73.4303V571.651H80.9547V567.832Z" fill="black"/>
<path fill-rule="evenodd" clip-rule="evenodd" d="M69.667 564.013H65.9048V567.832H62.1426V571.651H65.9048V567.832H69.667V564.013Z" fill="#714A1C" fill-opacity="0.25" style="mix-blend-mode:multiply"/>
<path fill-rule="evenodd" clip-rule="evenodd" d="M50.856 525.825H77.1916V529.644H50.856V525.825ZM43.3316 533.463V529.644H50.856V533.463H43.3316ZM39.5694 537.282V533.463H43.3316V537.282H39.5694ZM39.5694 567.832V537.282H35.8071V567.832H32.0449V579.289H35.8071V583.107H39.5694V586.926H43.3316V590.745H47.0938V594.564H54.6183V598.383H77.1916V594.564H80.9538V590.745H84.7161V586.926H88.4783V537.282H84.7161V533.463H80.9538V529.644H77.1916L77.1916 533.463H80.9538V537.282H84.7161V586.926L80.9538 586.926V590.745H77.1916V594.564H54.6183V590.745H47.0938V586.926H43.3316V583.107V579.289H35.8071V567.832H39.5694ZM39.5694 567.832V571.651H43.3316V567.832H39.5694Z" fill="black"/>
<path fill-rule="evenodd" clip-rule="evenodd" d="M56.7529 633.978H49.3359V654.955H56.7529V651.459H60.4614V647.963H64.1699V637.474H67.8783V654.955H75.2953V651.459H79.0038V633.978H75.2953H67.8783H64.1699H60.4614H56.7529Z" fill="black"/>
<path fill-rule="evenodd" clip-rule="evenodd" d="M49.3354 630.482H45.627V661.948H49.3354H56.7524H60.4609V651.459H64.1693V661.948H67.8778H75.2948H79.0033H82.7117V658.452H79.0033V651.459H82.7117V630.482H79.0033H49.3354ZM67.8778 658.452H75.2948V651.459H79.0033V640.971H75.2948V637.474H79.0033V633.978H49.3354V637.474H53.0439V640.971H49.3354V658.452H56.7524V651.459H60.4609V647.963H64.1693V637.474H67.8778V658.452Z" fill="black"/>
<path fill-rule="evenodd" clip-rule="evenodd" d="M49.3359 633.978H53.0444V637.474H49.3359V633.978ZM49.3359 640.971H53.0444V644.467H49.3359V640.971ZM56.7529 651.459H53.0444V654.955H56.7529V651.459ZM60.4614 647.963H56.7529V651.459L60.4614 651.459V647.963ZM60.4614 647.963V637.474H64.1699V647.963L60.4614 647.963ZM79.0038 633.978H75.2953V637.474H79.0038V633.978ZM75.2953 640.971H79.0038V644.467H75.2953V640.971ZM71.5868 640.971H67.8783V654.955H71.5868L75.2953 654.955V647.963H71.5868V640.971Z" fill="black" fill-opacity="0.2" style="mix-blend-mode:multiply"/>
<path fill-rule="evenodd" clip-rule="evenodd" d="M56.7529 654.955H49.3359V658.452H56.7529V654.955ZM75.2953 654.955H67.8783V658.452H75.2953V654.955Z" fill="black"/>
<path fill-rule="evenodd" clip-rule="evenodd" d="M53.0444 654.955H49.3359V658.452H53.0444V654.955ZM71.5868 654.955H67.8783V658.452H71.5868V654.955Z" fill="black" fill-opacity="0.2" style="mix-blend-mode:multiply"/>
<path fill-rule="evenodd" clip-rule="evenodd" d="M53.1501 588.56H49.0654V592.725H44.9807V596.891H40.896V601.056H36.8113V626.048L32.7266 626.048V634.378H36.8113V638.544H44.9807V634.378H89.9124V630.213H85.8277V626.048H81.743V609.387H85.8277V621.883H89.9124V630.213H93.9971V621.883H89.9124V609.387H85.8277V601.056H81.743V596.891H77.6583V592.725H73.5736V596.891H69.4889V601.056H61.3195V596.891H57.2348V592.725H53.1501V588.56ZM53.1501 592.725V596.891H57.2348V601.056H61.3195V605.221H69.4889V601.056H73.5736V596.891H77.6583V601.056H81.743V609.387H77.6583V630.213H53.1501V605.221H49.0654V609.387H40.896V601.056H44.9807V596.891H49.0654V592.725H53.1501ZM49.0654 630.213H44.9807L44.9807 634.378H36.8113V626.048H40.896V613.552H49.0654V630.213Z" fill="black"/>
<path fill-rule="evenodd" clip-rule="evenodd" d="M69.4882 596.891H61.3188V601.056H69.4882V596.891ZM40.8952 613.552H44.98V634.379H40.8952L36.8105 634.379V626.048H40.8952V613.552ZM89.9117 621.883H85.827V630.213H89.9117V621.883ZM81.7423 609.387H85.827V626.048H81.7423V609.387ZM49.0647 613.552H44.98V630.213H49.0647V613.552Z" fill="#9C6F4B"/>
<path fill-rule="evenodd" clip-rule="evenodd" d="M61.32 596.891H69.4894V601.056H61.32V596.891ZM81.7435 609.387H85.8282V621.883H89.9129V630.213H85.8282V626.048H81.7435V609.387ZM44.9812 613.552H49.0659V630.213H44.9812V634.379H40.8965V626.048H44.9812V613.552Z" fill="#714A1C" fill-opacity="0.25" style="mix-blend-mode:multiply"/>
<path fill-rule="evenodd" clip-rule="evenodd" d="M53.1506 592.725H49.0659L49.0659 596.891H44.9812V601.056H40.8965V609.387H44.9812H49.0659L49.0659 605.221H53.1506V630.213H57.2353L61.32 630.213H65.4047H69.4894H73.5741L77.6588 630.213V609.387H81.7435V601.056H77.6588V596.891H73.5741L73.5741 601.056H69.4894V605.221H65.4047H61.32V601.056H57.2353V596.891H53.1506V592.725Z" fill="white"/>
<path fill-rule="evenodd" clip-rule="evenodd" d="M49.0652 592.725H53.1499V596.891H49.0652V592.725ZM73.5734 596.891H77.6581V601.056H73.5734V596.891ZM77.6581 601.056L77.6581 609.387H81.7428V601.056H77.6581ZM77.6581 626.048H53.1499V630.213H77.6581V626.048ZM53.1499 601.056H49.0652V605.221H44.9805V609.387H49.0652V605.221H53.1499V601.056Z" fill="black" fill-opacity="0.2" style="mix-blend-mode:multiply"/>
</svg>
