<svg width="160" height="324" viewBox="0 0 160 324" fill="none" xmlns="http://www.w3.org/2000/svg">
<path d="M59.8025 21.281H122.524V29.9301H131.484V38.5792H140.444V151.018H131.484V159.667H122.524V168.316H68.7627V159.667H50.8424V151.018H41.8822V133.719H23.9619V107.772H32.9221V38.5792H41.8822V29.9301H59.8025V21.281Z" fill="#F3CCA7"/>
<path fill-rule="evenodd" clip-rule="evenodd" d="M50.8424 176.965H122.524V185.614H131.484V202.912H122.524V254.807H131.484V272.105H122.524V315.351H104.603V272.105H95.6431V289.404H86.683V298.053H77.7228V315.351H59.8025V263.456H68.7627V254.807H41.8822V185.614H50.8424V176.965ZM59.8025 194.263H68.7627V246.158H59.8025V194.263Z" fill="#F3CCA7"/>
<path d="M131.484 202.912H140.444V228.86H149.404V246.158H131.484V202.912Z" fill="#F3CCA7"/>
<path d="M122.522 21.281H77.7216V29.9301H113.562V38.5792H131.483V107.772H140.443V38.5792H131.483V29.9301H122.522V21.281Z" fill="#714A1C" fill-opacity="0.25" style="mix-blend-mode:multiply"/>
<path d="M41.881 38.5792H32.9209V73.1757H41.881V38.5792Z" fill="#714A1C" fill-opacity="0.25" style="mix-blend-mode:multiply"/>
<path d="M32.9209 116.421H41.881V107.772H50.8412V151.018H41.881V125.07H32.9209V116.421Z" fill="#714A1C" fill-opacity="0.25" style="mix-blend-mode:multiply"/>
<path d="M50.8412 151.018H77.7216V159.667H122.522V168.316H68.7615V159.667H50.8412V151.018Z" fill="#714A1C" fill-opacity="0.25" style="mix-blend-mode:multiply"/>
<path d="M131.483 202.912H140.443V228.86H149.403V246.158H131.483V202.912Z" fill="#714A1C" fill-opacity="0.25" style="mix-blend-mode:multiply"/>
<path d="M131.483 202.912H122.522V194.263H113.562V185.614H68.7615V176.965H122.522V185.614H131.483V202.912Z" fill="#714A1C" fill-opacity="0.25" style="mix-blend-mode:multiply"/>
<path d="M131.483 254.807H122.522V211.562H113.562V254.807H122.522V272.105H131.483V254.807Z" fill="#714A1C" fill-opacity="0.25" style="mix-blend-mode:multiply"/>
<path d="M113.562 280.754H122.522V315.351H113.562V280.754Z" fill="#714A1C" fill-opacity="0.25" style="mix-blend-mode:multiply"/>
<path d="M68.7615 263.456H59.8013V315.351H77.7216V298.053H68.7615V263.456Z" fill="#714A1C" fill-opacity="0.25" style="mix-blend-mode:multiply"/>
<path d="M86.6818 272.105H95.6419V280.754H86.6818V272.105Z" fill="#714A1C" fill-opacity="0.25" style="mix-blend-mode:multiply"/>
<path d="M59.8013 211.562H50.8412V237.509H41.881V254.807H68.7615V246.158H59.8013V211.562Z" fill="#714A1C" fill-opacity="0.25" style="mix-blend-mode:multiply"/>
<path d="M68.7627 38.5792H77.7228V47.2283H68.7627V38.5792Z" fill="#FFFCF9" fill-opacity="0.7" style="mix-blend-mode:lighten"/>
<path d="M113.563 38.5792H86.683V47.2283H113.563V55.8775H122.524V64.5266H131.484V55.8775H122.524V47.2283H113.563V38.5792Z" fill="#FFFCF9" fill-opacity="0.7" style="mix-blend-mode:lighten"/>
<path d="M32.9221 107.772H23.9619V116.421H32.9221V107.772Z" fill="#FFFCF9" fill-opacity="0.7" style="mix-blend-mode:lighten"/>
<path d="M50.8424 176.965H68.7627V185.614H50.8424V176.965Z" fill="#FFFCF9" fill-opacity="0.7" style="mix-blend-mode:lighten"/>
<path d="M50.8424 185.614V194.263H41.8822V185.614H50.8424Z" fill="#FFFCF9" fill-opacity="0.7" style="mix-blend-mode:lighten"/>
<path d="M86.683 207.237H77.7228V224.535H86.683V207.237Z" fill="#FFFCF9" fill-opacity="0.7" style="mix-blend-mode:lighten"/>
<path d="M86.683 207.237H95.6431V198.588H86.683V207.237Z" fill="#FFFCF9" fill-opacity="0.7" style="mix-blend-mode:lighten"/>
<path d="M104.603 263.456H95.6431V272.105H104.603V263.456Z" fill="#FFFCF9" fill-opacity="0.7" style="mix-blend-mode:lighten"/>
<path fill-rule="evenodd" clip-rule="evenodd" d="M122.523 12.6319H59.8017V21.281H41.8814V29.9301H32.9213V38.5792H23.9611V107.772H15.001V133.719H23.9611V142.369H32.9213V151.018H41.8814V159.667H50.8416V176.965H41.8814V185.614H32.9213V254.807H41.8814V263.456H50.8416V324H86.6822V298.053H95.6423V324H140.443V315.351H131.483V272.105H140.443V254.807H149.403V246.158H158.363V228.86H149.403V202.912H140.443V185.614H131.483V176.965H122.523V168.316H131.483V159.667H140.443V151.018H149.403V38.5792H140.443V29.9301H131.483V21.281H122.523V12.6319ZM122.523 21.281V29.9301H131.483V38.5792H140.443V151.018H131.483V159.667H122.523V168.316H68.7619V159.667H50.8416V151.018H41.8814V133.719H23.9611V107.772H32.9213V116.421H41.8814V107.772H32.9213V38.5792H41.8814V29.9301H59.8017V21.281H122.523ZM131.483 202.912H122.523V254.807H131.483V272.105H122.523V315.351H104.602V272.105H95.6423V280.754H86.6822V298.053H77.722V315.351H59.8017V263.456H77.722V246.158H68.7619V194.263H59.8017V246.158H68.7619V254.807H41.8814V185.614H50.8416V176.965H122.523V185.614H131.483V202.912ZM131.483 202.912V246.158H149.403V228.86H140.443V202.912H131.483Z" fill="black"/>
<path fill-rule="evenodd" clip-rule="evenodd" d="M78.0805 257.249H60.1338V306.573H78.0805V298.352H87.0538V290.132H96.0271V265.47H105L105 306.573H122.947V298.352H131.921V257.249H122.947H105H96.0271H87.0538H78.0805Z" fill="black"/>
<path fill-rule="evenodd" clip-rule="evenodd" d="M60.1335 249.028H51.1602V323.015H60.1335H78.0802H87.0535V298.352H96.0269V323.015H105H122.947H131.92H140.894V314.794H131.92V298.352H140.894V249.028H131.92H60.1335ZM105 314.794H122.947V298.352H131.92V273.69H122.947V265.47H131.92V257.249H60.1335V265.47H69.1068V273.69H60.1335V314.794H78.0802V298.352H87.0535V290.132H96.0269V265.47H105V314.794Z" fill="black"/>
<path fill-rule="evenodd" clip-rule="evenodd" d="M60.1338 257.249H69.1071V265.47H60.1338V257.249ZM60.1338 273.69H69.1071V281.911H60.1338V273.69ZM78.0805 298.352H69.1071V306.573H78.0805V298.352ZM87.0538 290.132H78.0805V298.352L87.0538 298.352V290.132ZM87.0538 290.132V265.47H96.0271V290.132L87.0538 290.132ZM131.921 257.249H122.947V265.47H131.921V257.249ZM122.947 273.69H131.921V281.911H122.947V273.69ZM113.974 273.69H105V306.573H113.974L122.947 306.573V290.132H113.974V273.69Z" fill="black" fill-opacity="0.2" style="mix-blend-mode:multiply"/>
<path fill-rule="evenodd" clip-rule="evenodd" d="M78.0805 306.573H60.1338V314.794H78.0805V306.573ZM122.947 306.573H105V314.794H122.947V306.573Z" fill="#BA6434"/>
<path fill-rule="evenodd" clip-rule="evenodd" d="M69.1071 306.573H60.1338V314.794H69.1071V306.573ZM113.974 306.573H105V314.794H113.974V306.573Z" fill="black" fill-opacity="0.2" style="mix-blend-mode:multiply"/>
<path fill-rule="evenodd" clip-rule="evenodd" d="M105.001 177.263H86.8046V185.591H105.001V177.263ZM150.49 227.235H141.392H132.294V235.563H141.392L141.392 243.892H150.49V227.235ZM41.3148 235.563H32.2168V252.221H41.3148H50.4127V235.563H41.3148ZM59.5107 235.563H50.4127V243.892H59.5107V235.563Z" fill="#FAE6CE"/>
<path fill-rule="evenodd" clip-rule="evenodd" d="M86.8053 177.263H105.001V185.591H86.8053V177.263ZM132.295 227.235H141.393H150.491V243.892H141.393V235.563H132.295V227.235ZM50.4134 235.563H59.5114V243.892H50.4134V252.221H41.3154V235.563H50.4134Z" fill="#714A1C" fill-opacity="0.25" style="mix-blend-mode:multiply"/>
<rect x="86.8047" y="193.92" width="18.1959" height="49.9722" fill="#8F00FF"/>
<path d="M95.9033 193.92H105.001V243.892H95.9033V193.92Z" fill="black" fill-opacity="0.2" style="mix-blend-mode:multiply"/>
<path fill-rule="evenodd" clip-rule="evenodd" d="M68.6093 168.934H59.5114L59.5114 177.263H50.4134V185.591H41.3154V227.235L50.4134 227.235H59.5114L59.5114 193.92H68.6093V168.934ZM59.5114 243.892H68.6093V260.55H59.5114V243.892ZM77.7073 177.263H68.6093V260.55H77.7073V177.263ZM105.001 185.591H114.099V177.263H123.197L123.197 185.591H132.295V202.249H123.197V243.892H132.295V260.55H123.197H114.099V243.892H105.001V185.591ZM132.295 202.249V218.906H141.393V202.249H132.295Z" fill="black"/>
<path fill-rule="evenodd" clip-rule="evenodd" d="M59.5111 168.934H68.609V177.263H59.5111V168.934ZM68.609 185.591V177.263H77.707V185.591H68.609ZM68.609 185.591V193.92H59.5111V185.591H68.609ZM114.099 177.263H123.197V185.591H114.099V177.263ZM132.295 202.249V185.591H123.197V202.249H132.295ZM132.295 202.249V218.906H141.393V202.249H132.295ZM123.197 227.235H114.099V260.549H123.197L132.295 260.55V243.892H123.197L123.197 227.235ZM59.5111 243.892V260.55H77.707V243.892H59.5111ZM50.4131 210.577H59.5111V227.235H50.4131V210.577Z" fill="black" fill-opacity="0.2" style="mix-blend-mode:multiply"/>
<path fill-rule="evenodd" clip-rule="evenodd" d="M68.609 160.605H59.511V168.934H50.413V177.263H41.3151V185.591H32.2171V235.563H23.1191V252.221H32.2171V260.549H50.4131H59.511V268.878H77.707V260.549H86.8049V252.221H105.001V260.549H114.099V185.591V177.263H123.197V185.591H132.295V202.249H123.197V243.892H132.295V260.549H114.099V268.878H132.295V260.549H141.393V252.221H150.491V243.892H159.589V227.235H150.491V202.249H141.393V185.591H132.295V177.263H123.197V168.934H114.099V177.263H105.001V185.591H86.8049V177.263H77.707V168.934H68.609V160.605ZM68.609 168.934V177.263H77.707V260.549H59.511V243.892H68.609V193.92H59.511V227.235H41.3151V185.591H50.413V177.263H59.511V168.934H68.609ZM150.491 227.235V243.892H141.393V235.563H132.295V227.235H141.393H150.491ZM141.393 202.249H132.295V218.906H141.393V202.249ZM105.001 243.892V193.92H86.8049V243.892H105.001ZM59.511 243.892H50.413L50.4131 252.221H32.2171V235.563H41.3151H59.511V243.892Z" fill="black"/>
<path fill-rule="evenodd" clip-rule="evenodd" d="M78.0805 257.249H60.1338V306.573H78.0805V298.352H87.0538V290.132H96.0271V265.47H105L105 306.573H122.947V298.352H131.921V257.249H122.947H105H96.0271H87.0538H78.0805Z" fill="black"/>
<path fill-rule="evenodd" clip-rule="evenodd" d="M60.1335 249.028H51.1602V323.015H60.1335H78.0802H87.0535V298.352H96.0269V323.015H105H122.947H131.92H140.894V314.794H131.92V298.352H140.894V249.028H131.92H60.1335ZM105 314.794H122.947V298.352H131.92V273.69H122.947V265.47H131.92V257.249H60.1335V265.47H69.1068V273.69H60.1335V314.794H78.0802V298.352H87.0535V290.132H96.0269V265.47H105V314.794Z" fill="black"/>
<path fill-rule="evenodd" clip-rule="evenodd" d="M60.1338 257.249H69.1071V265.47H60.1338V257.249ZM60.1338 273.69H69.1071V281.911H60.1338V273.69ZM78.0805 298.352H69.1071V306.573H78.0805V298.352ZM87.0538 290.132H78.0805V298.352L87.0538 298.352V290.132ZM87.0538 290.132V265.47H96.0271V290.132L87.0538 290.132ZM131.921 257.249H122.947V265.47H131.921V257.249ZM122.947 273.69H131.921V281.911H122.947V273.69ZM113.974 273.69H105V306.573H113.974L122.947 306.573V290.132H113.974V273.69Z" fill="black" fill-opacity="0.2" style="mix-blend-mode:multiply"/>
<path fill-rule="evenodd" clip-rule="evenodd" d="M78.0805 306.573H60.1338V314.794H78.0805V306.573ZM122.947 306.573H105V314.794H122.947V306.573Z" fill="white"/>
<path fill-rule="evenodd" clip-rule="evenodd" d="M69.1071 306.573H60.1338V314.794H69.1071V306.573ZM113.974 306.573H105V314.794H113.974V306.573Z" fill="black" fill-opacity="0.2" style="mix-blend-mode:multiply"/>
<path fill-rule="evenodd" clip-rule="evenodd" d="M123.322 21.5596H60.5086V30.4874H51.5353H42.5619L42.5619 39.4152H33.5886V110.837H24.6152V137.621H33.5886H42.5619L42.5619 155.476H51.5353V164.404L60.5086 164.404H69.4819V173.332H123.322L123.322 164.404L132.295 164.404V155.476H141.269V39.4152H132.295V30.4874H123.322V21.5596Z" fill="#F3CCA7"/>
<path fill-rule="evenodd" clip-rule="evenodd" d="M78.4546 21.5596H123.321V30.4874H132.295L132.295 39.4152H114.348V30.4874H78.4546V21.5596ZM132.295 39.4152H141.268V110.837H132.295V39.4152ZM33.5879 39.4152H42.5612V110.837H33.5879V39.4152ZM51.5346 155.476H42.5612V128.693H33.5879V119.765H42.5612V110.837L51.5346 110.837V155.476ZM78.4546 164.404V155.476L51.5346 155.476V164.404H69.4813V173.332H123.321V164.404H78.4546ZM42.5612 39.4152V30.4874H51.5346V39.4152H42.5612Z" fill="#714A1C" fill-opacity="0.25" style="mix-blend-mode:multiply"/>
<path fill-rule="evenodd" clip-rule="evenodd" d="M78.4553 39.4152H69.4819V48.343H78.4553V39.4152ZM87.4286 39.4152H114.349V48.343H87.4286V39.4152ZM114.349 48.343H123.322V57.2707H114.349L114.349 48.343ZM24.6152 110.837H33.5886V119.765H24.6152V110.837ZM132.295 57.2707H123.322V66.1985H132.295V57.2707Z" fill="#FFFCF9" fill-opacity="0.7" style="mix-blend-mode:lighten"/>
<path fill-rule="evenodd" clip-rule="evenodd" d="M96.4015 101.91H69.4814V110.837H78.4548V128.693H87.4281V110.837H96.4015V101.91ZM96.4015 146.549H114.348V155.476H96.4015V146.549ZM96.4015 146.549H87.4281V137.621H96.4015V146.549ZM114.348 101.91H123.321H132.295V110.837H123.321V128.693H114.348V101.91Z" fill="black"/>
<path fill-rule="evenodd" clip-rule="evenodd" d="M105.375 101.91H96.4021V110.837H87.4287V119.765H96.4021V110.837H105.375V101.91Z" fill="#714A1C" fill-opacity="0.25" style="mix-blend-mode:multiply"/>
<path fill-rule="evenodd" clip-rule="evenodd" d="M60.5083 12.6318H123.322V21.5596H60.5083V12.6318ZM42.5616 30.4874V21.5596H60.5083V30.4874H42.5616ZM33.5883 39.4152V30.4874H42.5616V39.4152H33.5883ZM33.5883 110.837V39.4152H24.6149V110.837H15.6416V137.621H24.6149V146.549H33.5883V155.476H42.5616V164.404H51.535V173.332H69.4817V182.26H123.322V173.332H132.295V164.404H141.268V155.476H150.242V39.4152H141.268V30.4874H132.295V21.5596H123.322V30.4874H132.295V39.4152H141.268V155.476H132.295V164.404H123.322V173.332H69.4817V164.404H51.535V155.476H42.5616L42.5616 146.549V137.621H24.6149V110.837L33.5883 110.837ZM33.5883 110.837V119.765H42.5616V110.837L33.5883 110.837Z" fill="black"/>
<path fill-rule="evenodd" clip-rule="evenodd" d="M123.322 21.5596H60.5086V30.4874H51.5353H42.5619L42.5619 39.4152H33.5886V110.837H24.6152V137.621H33.5886H42.5619L42.5619 155.476H51.5353V164.404L60.5086 164.404H69.4819V173.332H123.322L123.322 164.404L132.295 164.404V155.476H141.269V39.4152H132.295V30.4874H123.322V21.5596Z" fill="#F3CCA7"/>
<path fill-rule="evenodd" clip-rule="evenodd" d="M78.4546 21.5596H123.321V30.4874H132.295L132.295 39.4152H114.348V30.4874H78.4546V21.5596ZM132.295 39.4152H141.268V110.837H132.295V39.4152ZM33.5879 39.4152H42.5612V110.837H33.5879V39.4152ZM51.5346 155.476H42.5612V128.693H33.5879V119.765H42.5612V110.837L51.5346 110.837V155.476ZM78.4546 164.404V155.476L51.5346 155.476V164.404H69.4813V173.332H123.321V164.404H78.4546ZM42.5612 39.4152V30.4874H51.5346V39.4152H42.5612Z" fill="#714A1C" fill-opacity="0.25" style="mix-blend-mode:multiply"/>
<path fill-rule="evenodd" clip-rule="evenodd" d="M78.4553 39.4152H69.4819V48.343H78.4553V39.4152ZM87.4286 39.4152H114.349V48.343H87.4286V39.4152ZM114.349 48.343H123.322V57.2707H114.349L114.349 48.343ZM24.6152 110.837H33.5886V119.765H24.6152V110.837ZM132.295 57.2707H123.322V66.1985H132.295V57.2707Z" fill="#FFFCF9" fill-opacity="0.7" style="mix-blend-mode:lighten"/>
<path fill-rule="evenodd" clip-rule="evenodd" d="M96.4015 101.91H69.4814V110.837H78.4548V128.693H87.4281V110.837H96.4015V101.91ZM96.4015 146.549H114.348V155.476H96.4015V146.549ZM96.4015 146.549H87.4281V137.621H96.4015V146.549ZM114.348 101.91H123.321H132.295V110.837H123.321V128.693H114.348V101.91Z" fill="black"/>
<path fill-rule="evenodd" clip-rule="evenodd" d="M105.375 101.91H96.4021V110.837H87.4287V119.765H96.4021V110.837H105.375V101.91Z" fill="#714A1C" fill-opacity="0.25" style="mix-blend-mode:multiply"/>
<path fill-rule="evenodd" clip-rule="evenodd" d="M60.5083 12.6318H123.322V21.5596H60.5083V12.6318ZM42.5616 30.4874V21.5596H60.5083V30.4874H42.5616ZM33.5883 39.4152V30.4874H42.5616V39.4152H33.5883ZM33.5883 110.837V39.4152H24.6149V110.837H15.6416V137.621H24.6149V146.549H33.5883V155.476H42.5616V164.404H51.535V173.332H69.4817V182.26H123.322V173.332H132.295V164.404H141.268V155.476H150.242V39.4152H141.268V30.4874H132.295V21.5596H123.322V30.4874H132.295V39.4152H141.268V155.476H132.295V164.404H123.322V173.332H69.4817V164.404H51.535V155.476H42.5616L42.5616 146.549V137.621H24.6149V110.837L33.5883 110.837ZM33.5883 110.837V119.765H42.5616V110.837L33.5883 110.837Z" fill="black"/>
<path fill-rule="evenodd" clip-rule="evenodd" d="M66.0182 7.69942H57.8517V15.3988H49.6852V23.0983H41.5186V30.7977H33.3521H25.1856V38.4971H17.0191H8.85254V46.1965H17.0191V84.6936H25.1856V92.393H33.3521V100.092H41.5186V115.491H49.6852V84.6936H57.8517V69.2948H66.0182V61.5954H98.6843L123.184 61.5954V69.2948H131.35V76.9942H139.517L139.517 53.8959H147.683V46.1965H139.517V38.4971H147.683V30.7977H139.517H131.35V23.0983H123.184V15.3988H98.6843V7.69942H66.0182Z" fill="black"/>
<path fill-rule="evenodd" clip-rule="evenodd" d="M41.5181 23.0983H49.6847V30.7977H57.8512L57.8512 38.4971H66.0177V46.1965H82.3508V53.8959H123.183V61.5954H82.3508H66.0177V69.2948H57.8512L57.8512 84.6936H49.6847V115.491H41.5181V100.092H33.3516V92.393H25.1851V84.6936H17.0186V61.5954H25.1851V69.2948H33.3516L41.5181 69.2948V61.5954H49.6847V53.8959H57.8512V46.1965H49.6847V38.4971H41.5181V23.0983ZM139.516 53.8959H131.35V61.5954L123.183 61.5954V69.2948H131.35V76.9942H139.516V53.8959ZM139.516 53.8959H147.683V46.1965H139.516V53.8959ZM115.017 38.4971H90.5173V46.1965H115.017V38.4971ZM115.017 38.4971H131.35V30.7977H115.017V38.4971Z" fill="black" fill-opacity="0.2" style="mix-blend-mode:multiply"/>
<path fill-rule="evenodd" clip-rule="evenodd" d="M66.0182 23.0983H90.5177V30.7977H66.0182V23.0983ZM41.5186 38.4971H33.3521V46.1965H25.1855V53.8959H33.3521V46.1965H41.5186V38.4971ZM106.851 23.0983H98.6843V30.7977H106.851V23.0983Z" fill="white" fill-opacity="0.3" style="mix-blend-mode:lighten"/>
<path fill-rule="evenodd" clip-rule="evenodd" d="M57.8512 0H98.6839V7.69942H57.8512V0ZM49.6847 15.3988V7.69942H57.8512V15.3988H49.6847ZM41.5182 23.0983V15.3988H49.6847V23.0983H41.5182ZM25.1851 30.7977V23.0983H41.5182V30.7977H25.1851ZM8.85207 38.4971V30.7977H25.1851V38.4971H8.85207ZM8.85207 46.1965H0.685547V38.4971H8.85207V46.1965ZM17.0186 84.6936H8.85207V46.1965H17.0186V84.6936ZM17.0186 84.6936H25.1851V100.092H17.0186V84.6936ZM123.183 15.3988H98.6839V7.69942H123.183V15.3988ZM131.35 23.0983H123.183V15.3988H131.35V23.0983ZM147.683 30.7977H131.35V23.0983H147.683V30.7977ZM147.683 38.4971V30.7977H155.85V38.4971H147.683ZM147.683 46.1965H139.516V38.4971H147.683V46.1965ZM147.683 53.8959H155.85V46.1965H147.683V53.8959ZM147.683 53.8959V84.6936H139.516V53.8959H147.683Z" fill="black"/>
<path fill-rule="evenodd" clip-rule="evenodd" d="M66.0182 7.69942H57.8517V15.3988H49.6852V23.0983H41.5186V30.7977H33.3521H25.1856V38.4971H17.0191H8.85254V46.1965H17.0191V84.6936H25.1856V92.393H33.3521V100.092H41.5186V115.491H49.6852V84.6936H57.8517V69.2948H66.0182V61.5954H98.6843L123.184 61.5954V69.2948H131.35V76.9942H139.517L139.517 53.8959H147.683V46.1965H139.517V38.4971H147.683V30.7977H139.517H131.35V23.0983H123.184V15.3988H98.6843V7.69942H66.0182Z" fill="black"/>
<path fill-rule="evenodd" clip-rule="evenodd" d="M41.5181 23.0983H49.6847V30.7977H57.8512L57.8512 38.4971H66.0177V46.1965H82.3508V53.8959H123.183V61.5954H82.3508H66.0177V69.2948H57.8512L57.8512 84.6936H49.6847V115.491H41.5181V100.092H33.3516V92.393H25.1851V84.6936H17.0186V61.5954H25.1851V69.2948H33.3516L41.5181 69.2948V61.5954H49.6847V53.8959H57.8512V46.1965H49.6847V38.4971H41.5181V23.0983ZM139.516 53.8959H131.35V61.5954L123.183 61.5954V69.2948H131.35V76.9942H139.516V53.8959ZM139.516 53.8959H147.683V46.1965H139.516V53.8959ZM115.017 38.4971H90.5173V46.1965H115.017V38.4971ZM115.017 38.4971H131.35V30.7977H115.017V38.4971Z" fill="black" fill-opacity="0.2" style="mix-blend-mode:multiply"/>
<path fill-rule="evenodd" clip-rule="evenodd" d="M66.0182 23.0983H90.5177V30.7977H66.0182V23.0983ZM41.5186 38.4971H33.3521V46.1965H25.1855V53.8959H33.3521V46.1965H41.5186V38.4971ZM106.851 23.0983H98.6843V30.7977H106.851V23.0983Z" fill="white" fill-opacity="0.3" style="mix-blend-mode:lighten"/>
<path fill-rule="evenodd" clip-rule="evenodd" d="M57.8512 0H98.6839V7.69942H57.8512V0ZM49.6847 15.3988V7.69942H57.8512V15.3988H49.6847ZM41.5182 23.0983V15.3988H49.6847V23.0983H41.5182ZM25.1851 30.7977V23.0983H41.5182V30.7977H25.1851ZM8.85207 38.4971V30.7977H25.1851V38.4971H8.85207ZM8.85207 46.1965H0.685547V38.4971H8.85207V46.1965ZM17.0186 84.6936H8.85207V46.1965H17.0186V84.6936ZM17.0186 84.6936H25.1851V100.092H17.0186V84.6936ZM123.183 15.3988H98.6839V7.69942H123.183V15.3988ZM131.35 23.0983H123.183V15.3988H131.35V23.0983ZM147.683 30.7977H131.35V23.0983H147.683V30.7977ZM147.683 38.4971V30.7977H155.85V38.4971H147.683ZM147.683 46.1965H139.516V38.4971H147.683V46.1965ZM147.683 53.8959H155.85V46.1965H147.683V53.8959ZM147.683 53.8959V84.6936H139.516V53.8959H147.683Z" fill="black"/>
</svg>
