<svg width="136" height="136" viewBox="0 0 136 136" fill="none" xmlns="http://www.w3.org/2000/svg">
<path fill-rule="evenodd" clip-rule="evenodd" d="M86.497 85.4756C91.6966 80.4542 98.7749 77.3611 106.562 77.3611C122.515 77.3611 135.493 90.3394 135.493 106.292C135.493 122.244 122.515 135.222 106.562 135.222C90.6089 135.222 77.6305 122.244 77.6305 106.292C77.6305 105.082 77.7046 103.889 77.853 102.718L49.4818 88.5348C44.2822 93.5552 37.2039 96.6484 29.4168 96.6484C13.4637 96.6484 0.485352 83.67 0.485352 67.7179C0.485352 51.7658 13.4637 38.7875 29.4168 38.7875C37.2039 38.7875 44.2822 41.8806 49.4818 46.902L77.853 32.7175C77.7046 31.5464 77.6305 30.3536 77.6305 29.1443C77.6305 13.1922 90.6089 0.213867 106.562 0.213867C122.515 0.213867 135.493 13.1922 135.493 29.1443C135.493 45.0964 122.515 58.0748 106.562 58.0748C98.7749 58.0748 91.6966 54.9816 86.497 49.9602L58.1258 64.1447C58.2742 65.3159 58.3483 66.5087 58.3483 67.7179C58.3483 68.9272 58.2742 70.1199 58.1258 71.2911L86.497 85.4756ZM116.211 29.1443C116.211 23.8273 111.885 19.5012 106.562 19.5012C101.247 19.5012 96.9209 23.8273 96.9209 29.1443C96.9209 34.4624 101.247 38.7885 106.562 38.7885C111.885 38.7885 116.211 34.4624 116.211 29.1443ZM29.4168 77.3621C24.1019 77.3621 19.7758 73.036 19.7758 67.7179C19.7758 62.4009 24.1019 58.0748 29.4168 58.0748C34.74 58.0748 39.0662 62.4009 39.0662 67.7179C39.0662 73.036 34.74 77.3621 29.4168 77.3621ZM96.9209 106.292C96.9209 111.61 101.247 115.936 106.562 115.936C111.885 115.936 116.211 111.61 116.211 106.292C116.211 100.975 111.885 96.6484 106.562 96.6484C101.247 96.6484 96.9209 100.975 96.9209 106.292Z" fill="black"/>
</svg>
